<mxfile host="app.diagrams.net" modified="2021-11-21T15:31:37.003Z" agent="5.0 (Windows NT 10.0; Win64; x64) AppleWebKit/537.36 (KHTML, like Gecko) Chrome/95.0.4638.69 Safari/537.36 Edg/95.0.1020.53" etag="tSJoJ-9AuPsHEQVUVcoj" version="15.8.3" type="github">
  <diagram id="wNBkdL5R3AQrKsm_jLUi" name="Page-1">
    <mxGraphModel dx="1422" dy="762" grid="1" gridSize="10" guides="1" tooltips="1" connect="1" arrows="1" fold="1" page="1" pageScale="1" pageWidth="827" pageHeight="1169" math="0" shadow="0">
      <root>
        <mxCell id="0" />
        <mxCell id="1" parent="0" />
        <mxCell id="k85vUh0XSUUEYJ-B9VRs-5" style="edgeStyle=orthogonalEdgeStyle;rounded=0;orthogonalLoop=1;jettySize=auto;html=1;exitX=0.5;exitY=1;exitDx=0;exitDy=0;entryX=0.5;entryY=0;entryDx=0;entryDy=0;" edge="1" parent="1" source="k85vUh0XSUUEYJ-B9VRs-7" target="k85vUh0XSUUEYJ-B9VRs-3">
          <mxGeometry relative="1" as="geometry" />
        </mxCell>
        <mxCell id="k85vUh0XSUUEYJ-B9VRs-8" value="" style="edgeStyle=orthogonalEdgeStyle;rounded=0;orthogonalLoop=1;jettySize=auto;html=1;" edge="1" parent="1" source="k85vUh0XSUUEYJ-B9VRs-1" target="k85vUh0XSUUEYJ-B9VRs-7">
          <mxGeometry relative="1" as="geometry" />
        </mxCell>
        <mxCell id="k85vUh0XSUUEYJ-B9VRs-12" value="[push]" style="edgeStyle=orthogonalEdgeStyle;rounded=0;orthogonalLoop=1;jettySize=auto;html=1;exitX=1;exitY=0.5;exitDx=0;exitDy=0;entryX=0;entryY=0.5;entryDx=0;entryDy=0;" edge="1" parent="1" source="k85vUh0XSUUEYJ-B9VRs-1" target="k85vUh0XSUUEYJ-B9VRs-6">
          <mxGeometry relative="1" as="geometry" />
        </mxCell>
        <mxCell id="k85vUh0XSUUEYJ-B9VRs-1" value="Code locally" style="rounded=0;whiteSpace=wrap;html=1;" vertex="1" parent="1">
          <mxGeometry x="300" y="130" width="120" height="40" as="geometry" />
        </mxCell>
        <mxCell id="k85vUh0XSUUEYJ-B9VRs-4" value="code app" style="edgeStyle=orthogonalEdgeStyle;rounded=0;orthogonalLoop=1;jettySize=auto;html=1;exitX=1;exitY=0.3333333333333333;exitDx=0;exitDy=0;exitPerimeter=0;" edge="1" parent="1" source="k85vUh0XSUUEYJ-B9VRs-2" target="k85vUh0XSUUEYJ-B9VRs-1">
          <mxGeometry relative="1" as="geometry" />
        </mxCell>
        <mxCell id="k85vUh0XSUUEYJ-B9VRs-20" value="[define as code]" style="edgeStyle=orthogonalEdgeStyle;rounded=0;orthogonalLoop=1;jettySize=auto;html=1;exitX=0.5;exitY=1;exitDx=0;exitDy=0;entryX=0.5;entryY=1;entryDx=0;entryDy=0;dashed=1;" edge="1" parent="1" source="k85vUh0XSUUEYJ-B9VRs-21" target="k85vUh0XSUUEYJ-B9VRs-16">
          <mxGeometry relative="1" as="geometry" />
        </mxCell>
        <mxCell id="k85vUh0XSUUEYJ-B9VRs-22" value="code infra" style="edgeStyle=orthogonalEdgeStyle;rounded=0;orthogonalLoop=1;jettySize=auto;html=1;exitX=0;exitY=0.3333333333333333;exitDx=0;exitDy=0;exitPerimeter=0;entryX=0.5;entryY=0;entryDx=0;entryDy=0;dashed=1;" edge="1" parent="1" source="k85vUh0XSUUEYJ-B9VRs-2" target="k85vUh0XSUUEYJ-B9VRs-21">
          <mxGeometry relative="1" as="geometry" />
        </mxCell>
        <mxCell id="k85vUh0XSUUEYJ-B9VRs-2" value="Rafal" style="shape=umlActor;verticalLabelPosition=bottom;verticalAlign=top;html=1;outlineConnect=0;" vertex="1" parent="1">
          <mxGeometry x="70" y="60" width="30" height="60" as="geometry" />
        </mxCell>
        <mxCell id="k85vUh0XSUUEYJ-B9VRs-3" value="Run locally&lt;br&gt;(ArgoCD)" style="rounded=0;whiteSpace=wrap;html=1;fillColor=#f5f5f5;fontColor=#333333;strokeColor=#666666;" vertex="1" parent="1">
          <mxGeometry x="300" y="270" width="120" height="40" as="geometry" />
        </mxCell>
        <mxCell id="k85vUh0XSUUEYJ-B9VRs-14" style="edgeStyle=orthogonalEdgeStyle;rounded=0;orthogonalLoop=1;jettySize=auto;html=1;exitX=0.5;exitY=1;exitDx=0;exitDy=0;entryX=0.5;entryY=0;entryDx=0;entryDy=0;" edge="1" parent="1" source="k85vUh0XSUUEYJ-B9VRs-6" target="k85vUh0XSUUEYJ-B9VRs-13">
          <mxGeometry relative="1" as="geometry" />
        </mxCell>
        <mxCell id="k85vUh0XSUUEYJ-B9VRs-6" value="Push code to VCS" style="rounded=0;whiteSpace=wrap;html=1;" vertex="1" parent="1">
          <mxGeometry x="490" y="130" width="120" height="40" as="geometry" />
        </mxCell>
        <mxCell id="k85vUh0XSUUEYJ-B9VRs-7" value="Run build / tests&lt;br&gt;(Docker / CircleCI)&amp;nbsp;" style="rounded=0;whiteSpace=wrap;html=1;fillColor=#f5f5f5;fontColor=#333333;strokeColor=#666666;" vertex="1" parent="1">
          <mxGeometry x="300" y="200" width="120" height="40" as="geometry" />
        </mxCell>
        <mxCell id="k85vUh0XSUUEYJ-B9VRs-11" value="pull" style="edgeStyle=orthogonalEdgeStyle;rounded=0;orthogonalLoop=1;jettySize=auto;html=1;exitX=0.5;exitY=0;exitDx=0;exitDy=0;entryX=1;entryY=0.5;entryDx=0;entryDy=0;" edge="1" parent="1" source="k85vUh0XSUUEYJ-B9VRs-9" target="k85vUh0XSUUEYJ-B9VRs-3">
          <mxGeometry x="-0.4667" relative="1" as="geometry">
            <mxPoint as="offset" />
          </mxGeometry>
        </mxCell>
        <mxCell id="k85vUh0XSUUEYJ-B9VRs-9" value="Local Kubernetes&lt;br&gt;(Rancher Desktop)" style="rounded=0;whiteSpace=wrap;html=1;fillColor=#f5f5f5;fontColor=#333333;strokeColor=#666666;" vertex="1" parent="1">
          <mxGeometry x="420" y="380" width="120" height="40" as="geometry" />
        </mxCell>
        <mxCell id="k85vUh0XSUUEYJ-B9VRs-18" style="edgeStyle=orthogonalEdgeStyle;rounded=0;orthogonalLoop=1;jettySize=auto;html=1;exitX=0.5;exitY=1;exitDx=0;exitDy=0;entryX=0.5;entryY=0;entryDx=0;entryDy=0;" edge="1" parent="1" source="k85vUh0XSUUEYJ-B9VRs-13" target="k85vUh0XSUUEYJ-B9VRs-15">
          <mxGeometry relative="1" as="geometry" />
        </mxCell>
        <mxCell id="k85vUh0XSUUEYJ-B9VRs-13" value="Run build / tests&lt;br&gt;(CircleCI)&amp;nbsp;" style="rounded=0;whiteSpace=wrap;html=1;fillColor=#f5f5f5;fontColor=#333333;strokeColor=#666666;" vertex="1" parent="1">
          <mxGeometry x="490" y="200" width="120" height="40" as="geometry" />
        </mxCell>
        <mxCell id="k85vUh0XSUUEYJ-B9VRs-15" value="Run externally&lt;br&gt;(ArgoCD)" style="rounded=0;whiteSpace=wrap;html=1;fillColor=#f5f5f5;fontColor=#333333;strokeColor=#666666;" vertex="1" parent="1">
          <mxGeometry x="490" y="270" width="120" height="40" as="geometry" />
        </mxCell>
        <mxCell id="k85vUh0XSUUEYJ-B9VRs-17" style="edgeStyle=orthogonalEdgeStyle;rounded=0;orthogonalLoop=1;jettySize=auto;html=1;exitX=0.5;exitY=0;exitDx=0;exitDy=0;entryX=1;entryY=0.5;entryDx=0;entryDy=0;" edge="1" parent="1" source="k85vUh0XSUUEYJ-B9VRs-16" target="k85vUh0XSUUEYJ-B9VRs-15">
          <mxGeometry relative="1" as="geometry" />
        </mxCell>
        <mxCell id="k85vUh0XSUUEYJ-B9VRs-19" value="pull" style="edgeLabel;html=1;align=center;verticalAlign=middle;resizable=0;points=[];" vertex="1" connectable="0" parent="k85vUh0XSUUEYJ-B9VRs-17">
          <mxGeometry x="-0.5178" y="-1" relative="1" as="geometry">
            <mxPoint as="offset" />
          </mxGeometry>
        </mxCell>
        <mxCell id="k85vUh0XSUUEYJ-B9VRs-16" value="GKE" style="rounded=0;whiteSpace=wrap;html=1;fillColor=#f5f5f5;fontColor=#333333;strokeColor=#666666;" vertex="1" parent="1">
          <mxGeometry x="610" y="380" width="120" height="40" as="geometry" />
        </mxCell>
        <mxCell id="k85vUh0XSUUEYJ-B9VRs-21" value="Define infra&lt;br&gt;(VCS and Terraform Cloud)" style="rounded=0;whiteSpace=wrap;html=1;" vertex="1" parent="1">
          <mxGeometry x="25" y="230" width="155" height="40" as="geometry" />
        </mxCell>
        <mxCell id="k85vUh0XSUUEYJ-B9VRs-23" value="" style="shape=image;verticalLabelPosition=bottom;labelBackgroundColor=#ffffff;verticalAlign=top;aspect=fixed;imageAspect=0;image=data:image/png,iVBORw0KGgoAAAANSUhEUgAAAIcAAACvCAYAAADXGM1RAAAgAElEQVR4Ae2deXxUVZbHW+1ue2Z6me4Ze5vunp6Zz3T39GIvbkAQcGn3vd0QEEVBlrC5o6CCiiLugtgqSosriLIIiLJvIQlkg0AgCdmTylZVqVTV/fPM53tf3eTl5b1KVQKhgvzxPu/Vq/fucs7vnu2ee9/XlFJy4jhBAzcMfM3t5ol7J8ACBk6A44Tk9NQcXxlwRJWSaLSHB2V8hcB0XIMDRkaiSkLhqARbo9LQ3CLlvlY5VBOSvPIW2XTAL58XNMva/PaD3xv2+2VHSUAKq0P62Yr6VgmEotLSGpXWSFQi0ajnaDueVPJxBQ4kQzgSlWAoKg2BiFTWt8qB6pBsOxjQIFiZ0yTL9zQK51W5TbIqr0k+czm4vzK3SVbEnv90d6Os2NMk6/Y2S2ZJUEpqg1Lb1CoNwYgGnpZIx6FEOW7AgXSobQ7LweqAZBYHZG1Bs8DU1XlN8sW+Ztl4ICA7SoOSWd4iOdUtUuALyYGGsBxs6nxwn/95jud5j/cpZ3V+kwbKJ9mNGix55UEpr28Vnz+ipcoJyZEiowSVgZQo87XKnsNBWb+vWZbvtkb4xiK/7CoLSl5tSIoaw3KoOSIl/tgRiEhJICKlnM0921nfjz1j/ud9DZq6kGRXtsi2koCsP+DXUuiz3CbZuN+vVVVNU1haw1Ft3/R1oPRZyRGOKDnsa5XtRQGBOZpBRX7NuH2+Vi0RYCyM9gKBYXwyZ1NecXNEgy63JqQly5r8JkGafFHQLFmlQaluDPd5gPQpcKDbkRaV9WHZWOiXNblN2pjMOByUvb5WzaximwRIhuk9eRbVVFjfqoG5fr9fq501eU2y81BA6v0R3ea+KEX6DDgABkYmxuXy3Y3yye5GART7G8LCKO4Jc4/ku4eaw7KnukWrm4+zGmVVTpNgl7S29j1JkvLgABTocNxKPAyMzC0HA22AOBaSokswxewVAxLUzZb9fvE1h7U31VekSMqCw8QoEMu7DgW0C/ploV+wJzAmu2TQMVAvzjZhnxQ1hGVTkb/Nc9pfFZBAKNIn7JGUBQe2BV7INjyC3CbZWRrUNkU845L/alqi+oj3nJ2JqCQ8EftxpNUUNklWRUube51dEpSmYCTlA2kpBw6tRlrDcqAmpGMUxCv2VIUkEfXha43q8HY4qqQ2FJVSf0S/x7vYAgUNoU5HXn1I8nwhybUd3Mt3PMv7lJNIO+zgs19jNKMSsZd2HgxIRUNrSkuQlAOHvyUi2SV+rUY2HPBLAWokARUBEFqj7bOpwXBUyprDsrchJDm+Ftnja5GM2kC3D96nHI79Ta3ddo+JuRAjWZrVoCVJia81ZSVIyoADidHcEpGMQwEdL0BPH2gMdwkMQAF4OAdCrVpyYK/UhyKyxxeUzLpgtwHhBSbK3A1IGrsnTVAzu6tCup/ERw7WhlJSgqQMOJjYIuyNZU+4GjHelcSoCoTF3xKS6oD1bHFTWDhKA2HJOgqgcIIlsy6gwZftCyavbgIRyam2AIK7iwRJtRnfYw4OCBJqjUhemT8GDNxUa0R6geOwPyLVWPyxKXSMuzxfi+yqDbQdTkYe7d/UnVvf0uZie7Xdfh+jmQgr7jkSpKIhtWIhxxQcMJcpcGZOCWxtKw5IUZO3xEB1VAQj0mJTH9gZlYGI7PYdefXRHUBhk6AOEzVceQ5PhlnfNfnNegIPFZsKsZBjCg7c1VJfqw5ubTzgl/313sYn0qKmJSJ4IhCOdxtbo1La3CqI9e4w0ryz09ciO30h66jrmeFKmUgRPCNUYyIuNQAh2ks6ATGdVHFzjyk4mOYmuYapcNw8u8i1X1cEwtIAMCIWMJA4NaiSekuVGCZ3ea7xSwYHDKysl+zicskp3C+5+QWSm5+vzzmFBySnsEiyDldLRk2z7MR2ib3TZfkObwj3eF9jyLNf9j4ibZCcxs1tDYePuQ1yzMBB5zcVNus5CKbVvUYYwPCH0MXt2VeHmkLaW0iGWTt8rZrZBXt2S8maJVKz6EnxvTxZGuaOlqanbm07GufeIQ3P3iV18x+Q6qWvSWHmDsksq5Md9WEtWZKpU4MwJkXsQPC6xs0lCvxxVoPkVwSP+YTdMQEHKiG7NCDLshslszzoObLKNDAIFFnBrRDBscZkpEVMSlQ1StH6z6ThtWkSeOw6aX3wMonePUSikwdKdPIAiU6yHeP7S5RjwkCJTr1YgtOvlsanRkjd0gWSV1CgAZasJMGrQc14gcJ+v9DXqu0vUhCYi0FKHiv745iAo6YxLCv3NAlBrmK/uwGK8RkM4f9bwCA4tjfmkSQyelEHHIXbN0vjUyMlfPcQUZMHipo0QNSkNOua385j4kBR4weKGjsgdvQTNa6/qIlDpPWhy6T23bmy++BhyUjSVcYO2dvgrToNQJCgqNglmQ2yqdCvYz/HCiC9Cg46GQy1yuZCMrYaO2ZnOaKgFS2Wq8qo8YeSAwbg2V1UIrXvPCPRe8+T6OQ0UVPO7QwEJzDM7/Q0GzhiIBmXpkETndBfIrOHyYHMbZY94rAz4gEXgOxrbO3akwlEdJLzij2Nsreq5Zipl14FB8m/+6patHeSVdniObtaaQNGKByRQ41B7QHEI7z5b1d1k+Tn7pGG59IlOvFsUQDDMD2ZMwAZZ6SH4zyhn0QnDZHSFf+QzLLapDwlAFLYGF+C4L2QkkhwbP3eZq1ejoVq6VVw4J1s2NcsZEt5RUCrgtE2dzUctVxVCGqY39X5QMYWic66UaITzxE1OSYtUCPxVIkXaCa4SBCjbsalSXT8WVL91pPa6+mqXfb/6Y+XOjXqhTP22PI9TbKvsuWY5IH0GjgIdiE1WBaQU+PunaBvAxHLK0EFER5PBhiHMjZJ5LG/iZrUv11aoE7uu0DU9MtFPXCxZXN4gcF5H/vDS3rEQBKd0E+qF86S7OKypNQMbm5XgTJSDz/f26xTIhlYvW179Ao46BSd27TfL5uKAjovwz5CzHVdqF1q1IWIeiYWkCKAtTdzu7Q+OVSUlhgxQxNgPH6tqFdGi3p9gqh5Y0Q9ckU7cJxgcPs9wW6cOtRLDCCR9IFSuXhOTMVYHpJdUnhdkxoQDyBMIyA9WD+D9GCA9aZ66RVwYGvsr7Zsjd1VLa4uHVIC+wIgcSQzxb5n/0GpfyHdMjzbGJwmavplFigW3yPq3XtFcX5tnKgHLkkcIJO6BgeeTevdF0vpx28KNo8XGJz3md1lhtYMDrczmW9ID7Lam1p6N0GoV8DhD0X1uo51+5pdQ+SoE5OoAzDKSA1M0M7YVdUoFe/OlcjUwZ0Z/uR1ot652wIG4OB4a7Kohy5PTr0YOyPeedw50vzkCMnLyZGdSYTgmYtxA4W5R1balkMBWZbVqJdi9Oa8y1EHh1EpuK7bWUrocFn5TWofzyEycXV3+xIzQGHC3swdEph1c2evBAP0iWs7g2PhJFHTkgRH+rmdXVsXoETHnyNVi+dIdmlVwiF3BoGezXWhi6EVM7cs29xc5NfJ1r2lWo46OCIRJQUVLTrljzC56bA5E+zymen3aFT2NSRmZyCiCWuXv/+iQ53E7A3Ace8Fop6/TdQ/ploqZdEUUc8OTy7mYdSUCxjaA2XtsZDorFukMDsjYXDQD6RHvLxVVA8eHrkuJEQdN+BgDev6Qtaquruv5YGIhGOTTA0trZKboNQghJ2/O0v8T4yI76bee6GoOTeJemGEqGdu7h4wAEgi4OCZ8WdK2ZL5kllZn7DtwazygXi2RwC3tkVPyjHQjhtwsBBJT0WXBV2DXpXBdiOUCbVEbY3MygYpWbVYz4vED3KliZpI+LtffBAZCeF1ThQcY8+WwMybJau4LGFwID3y8VziLM5izgWvhe0iesvuOOpqJZdEFlwxX+ekXFSKP+aeBcJRnQzstOi9fmeW1Yjv1QdFpRMFdZkjOdL3EgbHAImkD5CCzB1JqRbSGuNJD4KG2B1GtRgb7WhKkaMCDpBtji/3+XW43M2fL4tJDTpYHQwnlQycfbBEWqddkZzX0RPAJAGO6ISzpPLD+ZJRl5hhbQZAV2F18j3wWth3hJntoy1Bjjg42BKhuiGsO1DXFNbpbxhTxgC1n8tj4IhEIlLWlMRUfI1f8rIzJTKpX+9IDUCVBDiY1Q3Pv1921SYeEAMgBfFUi05IbtFpDpv3+/UORb6mVgmHj56BekTBEY5EJL+MZJVGnbDyaTbnRr1PhtsSxham5JWS5nBU5zuYEdTVeVd1sxzYvDY2sdYLKiVZcIwbKNGHr5bMwzVJ2R3YW145tEhekoFQKxxLMxv0eW95QKD70VAvRxQcBLvIgfw4s1GLP0Qg4NAurMv6VoDBUdeS3BwK4fKyZQtTGBxpotIHSlZJxREDBxKXYCFzU9BV0zbTyjmF7qkPjpbO4CAn8qDL4qTDxkth6WKwNWEvBalC8Kviw1etmVfC28x/jD9X1DjbwW+CV/zfE1vDvOtUK2PSRI0e2Pm4KzaTO+5PsmffgaTBEc8oBRykEXYCR0sfBQcp93Y7w1wbcFjT8qGkiEiMo+aNpySqGXSuqNsGibp1sKgRQ0QNH2Kd+X37YFFjBokae64oZlgNo5M9m/kVGH/nQFF32OqkHvtx+yDrmbF/lD179yfXLxMQ84iWAo6tNsmMhEZS+/sqOFiLQacMKLR4JCoatFZ4hSJKrz3tys6w/1+0drUE7x4qavhgUcMGibqpn6gbzxY1NM26x5l7w85tB8sdg0WRn5EsMHgecBhAAEDKpQ7qvPEs63zTOaJuGWi1h2dGni21i1+TzIr6pBOTO+xfZgMKdGSWlhTCDmqlr4KDPFE3cDADi55siSQe39CTbAtfkZaxV1ogGD5IVPo1ol6bLWrVu6I2rhK1c72oDStEfbRA1Kx0Ubed3y5RRg6yJEkyAAEYSCAYPuI8DYzw2Csl8tJjoj58TdSaD0Stfl/UBwtEzX1A1OhLRNGu4YMkOvoyqXv6ftlVeCg2GZeY9xIPHMxqHzfgYEG0GzjM4iSCXwktdkaVzH9aIiPPt0Ynovzd+aIOF4lqbhLVGhIVCYtiCQPnloCo+jpR2dtFPTquoxRB1SQCEGyW24y6GizqrstELX1LoocPimpqsOqgXo5gQFRjvaiSA1a7aN/wwRIdPkTqHx2v18LoNTAJzDbHAwcJQMcFOOgEOwF3BY4uQ+Y1fqlcsliiYy63gHHHRaJyMmKAiFiAcKbwA5JoRFQ4LCrUIuqDv4sa2s+SOEiQrlQMEmMUDMaOGSTq3uGi9u7pWKdtLY0GpQZmxHqG9tHO4UMkeuv54nvmQStrvYfgYA+0E+CwEbFgx07xTx1q6fS7LhW1P9tivErQSjdMe/81USNidgiMRzK4SRCAgXS5FWAMFnXPUFGVxaKSiSdQZ2mhqInXaUBHR54npUveSSgZyEtyYK+dAEcbMPySVVwlVa8+LVGMvTGXitq1SVTYfcOTlpYW8fv97j4/zAqFRL0+J2Y/DBE1dpC7qwtotJ1xnqhJfxNVftACI2U4JJSpkyiv8z8ttfZliZpwlQZ280OjJS87p8s5l68MOHC9uq1WavxSkLFLgveMsGyGN+Za9oWNSSx6gkGbN2+W2bNny/Tp0+W9996T2traDksoNeNQM9gEd99iqSc36YHUuGuQBaDb/yrqy+WWmnCAgjSDrVu3ysyZM2XGjBmyePFiKS8vlw4goZ1Bv6gPkFhDJDryfCn55P0upYcnOALHkeTAD0/EIPWyOXZV1EvR0sUSReePu0pU1tZO9kVra6ssW7ZMBg8eLN/61rfk61//uvz85z+XWbNmSSAQ6AyQQLOo9+eLurm/qBGDreCZXbUYqYGLPHOCqLrqTnUCyHXr1smQIUPkG9/4RludAKWurq6jBAEgBdmi7h0h6pY08c15QDIPs9bFe2cAL3AwyIg2Hxc2B774F/vcvRWzfxeuLBu22eMY5jqzzCdV856yDMmn7xZVdqgj4dneqb5eRo8erYHxta99TThOOeUU6devn2RmZnYcyYx+xH/GBlF3XiJq2ODOqmXCuVZQ6+Z+ljvMyHdIDQA5atQoXedJJ52k6zz55JNlwIABsmPHjk7Pq7oqUa89oaVfa/p1smdv/MhpPHAcV67sur3u4Ai0hDQRCYIxVW0A0X4OSmZxpTRNHy/qlgGi3n1JVFN9J8KXlZXJtddeK4ZJgIPr3/zmN7JkyRKdZdaBuYzkwlxRD91hGZuoEFSJkR6E3fFQsHHWL+9k3yA1kA6XXXaZBqEBJHX++te/lpUrV3Zqo/aWVrwr6tbztWrJ35UZ1+6IB46dpYHjR3IQPnfLcGpusWZkQ1ElB5rcwbH7UIVEHh5jgePjhVYswTGKg8GgjBs3Tk499VQ9go3kOPfccyUnJ6ezWgEcpUWinr7HAgfhcDdwjLpI1K6NMa+o40p37Irrr79eqxMDDqQVqg1p1QGMRlptWCnqzkslekuaHNj4ueyqaXYZEFb+h9sMto4sByI6NHDcqBWyznG/7OFzrs3cCl89qva7JRUHJftQuYQfuL0dHAS2HODAMIQhV155pfzoRz+S73//+/K73/1O5s2b11ml8G4bOO6ODw6isNrGcfFClJLc3FwZOHCgnHbaafKDH/xA1/n8889LCI/I0UYdb9HguESDY/+mLzzBQUAwnuQgF/e4mXhjyl4vZHLOrwTac0fdp+xRK1XSNCPdAscHr1qeioPwiHkAUlpaqj2GZ599VrKysqykZYDgeF6D40C+qBl3WeAY7Zi5Ra0QKr/1PFFb11rRVmcZSunyS0pKZOHChfLSSy9JRkaGIMU6eCvmPVzvNUtEjbxAR3jzMrM81Uphg/cqfHI6mKs6bsBBUsoOj/UqJp+DPUPdNnzDqq99aZaoof1FvTBdVGVZZ2bHGABIYAxnjk6gMIzCIM3cLMrMzxDrMPYGZ2OQMpH2ySJRLUHPskxdpl7POht9ot55QdSwgdJ615Wye2+Rq0rBa2NvU6eUNb/Jw2XnwT4JDlIE2UsUnQgo6ASSgxwE00H72azBsLZZ6KxaMit8UvrR29oFVJNvFJWf5ckoT8YYUJgzzIbpnq4sE23Mug4Q9ew0UQ2+ntdZXCjqsXG6zKYZE7Sh3W54t+eZxssEww5h10G2hIK20JgDekP3hPtv6JDA+YhmgpH0WtUQ1h+hQTfyvTW+tMinMNzWhLJFJJ1iBFb4XRJ+appl77Zt0jLpJgsgH71uGaXxJEO8ThMEq6kQNWOMFVQbRUKQzVNBcujQOR7LYGtuJGd7J48lKUagUjYs17PDGKOl770hxG/cwJHra/G0NxhUm4sCGhx8sgz67ioOSG1T+Kht7nJEwQHRAAgLmVrC1ic2i6pDsiKnUX9QzxkpPRwDB+/Vh6J65VdHovklu6RSql59Shty6q4rRJURyu7mSGltFbX8XVHDY+7qXR5zK2SUMa8y7FxpmT7W1UtKCCC001cj6sHbtNQITh4qBTu8V8N1tesPSxPIy/UHQ/pTqND5aGagH3FwOInW6G/RepKP8TldNNat8D0VbA92FzzQ4BI1ZF+vjRulZeINena05b6RogL+5AACk5idLcy27JdbzxdFxha799jtDfv1aELo54m66Wwr/M3Mrtv8iaekInQeEDX/CVE399NzQ4cXzZfMcp+rMartjSb3HX8YVPl1Ib04bF3BcbSoSS+H3OfX6uWQy5K/CryW2KZwbDjLznsdpUdASPIpX/yaRO642MrAmpkuqqLUmopHVXgxCFDAUPIsdqwVNWyAFeAi14LUQTsYnNekFY4iaWeIFaF9f4EVSgdk8SQX/yGhaitFvfqkqBvO1OH/+sfSJSe/0HMFvt6rI86KNzaxJeu8tM590tGTBl60SeD+UZccxDEO1VgLqXNdFlKXBSLi5/tnSumvPue7bdhSY9TL0xLBxSRNjzTBLz62JtLcPAqYBCjyMkW99ayo2y/QEUqd79kVMAxQkCwjSfY5z5qHee4hUZmbLLsl7BLPaG0RVXlY1LZ1Vhba0P5aYjTdf7vs27y5E+jtgyDeVpTYaxj1eCpsP3k0gOBW5lEHB5X6mkP6055eWzDw4RzAwbOHm1ols23Kvl2KsBwhq6RSKhbMkdaxV0p0GHmdF4maPVnUhwtEffGJqMytVubXji9Frf7QAsW9w2I2RiwRGGDYI6IGCG5nnuN5vBeTr5p+rah5j4r6dJGorZ9b9WVtE7V5jSiiuC88bE0S3jJQAwOJsW/TJldVYsCR5QvqPFq7J2e/5usKGPXbDwZ6dXefXgEHn8vYcdD6ovN+l704Wflm1szyzXmvvcxJs8O93b9urTTMnCRRk+wLUAh34+5OvVkUDLztwvaEX4xLbAgCXG4g6OoeEoQ5GJ38E0swRoKNu9Kqb8pNou660gqeMZuLpLnrCql883nZo2MaLraUbQDoLRhsicR2YHC9NfapET6ZejQNUKf06BVw4MGU1LXqhcB8zdltrsUXkx50vi7QxdLI6mbZv36tRMf2F3VnbFkCIzuW2KvPMBKVwP+AoidLEwAPUoRyKE+rGkd91K8jqyyHGCgNL0zTK9662uUHqeG1yg1gsGEtnzJjj/jjctsnVAZfAuC7ZqybdZMe2vYwOwlGo3KwOeyto9mbIytDIpPOsZgG44lXcMBAcjK4x5GoCulKepj/Kc/URzSV+ji4pv6JAyU6cYDUvDVHdroY10aVcGYeJd7XqJhjwcvDEN1fybLHbrrwCRifTqnB716RHFSERDhUG9LL+ZhrcVt1X9Uc0TESnkfa4Ll4JQLlFORb4DBMS6FzNP0sKfv4TU/PBGDQL6SGGx2MWiFczkd6vtzXLLXHYB/0XgMHDEd6bD3gl/WFfteIKURpIrATW0PrD0c9wbFnb0HvrrJPAnzsnHz4k7fjggOpYUDgeg5YUoMpiMLKgPuEXjclArxI5OhVcCA9+NgdljfbGDmDYhCJgA8AQXKwV5iX5MguOiiRqUyaxQlkJcHQbhmqHuUDjkPrlsXNFY1nZ0AHbA0WTX+515IaiTDzSD/Tq+Cg8S2tUdleFNC7/bBAx23UAJD61qgc8nutvg8Km7dE2E+UryB4MOlY3Wdr7QNb13nmbHS1vSQ0YaUg4OATZwyUI834RMrrdXDQqMr6kKzc02hFTeN8BRKDjG0Y7UacdR2U7JJyiTw+NPl9vroDpnQM38RBiKG8N2OLa2zDmlzznpY3s6+oE9x/XPtEGHk0njkm4MDqLqxs0VY4nwl1kx7mHl5LZ4AEJbu0QiJP32ZtBJeI5GDvsJV/FzX9yhijE1BHbI+dfpao2SNEzbw6YRUGOPKzdnUCB/2gP6ZvbucCn2W0f5bTJHVNLlHYBO2FIwGWYwIOGs732jBM2Wkwp7ql09oWO+GQIB23uw5K5uFqaZ47ThSjuktw8HmM06Vs2xeiDu4R9fjVoib8Jb7UQVKknynqhfGiyg+IenZMAvVY0/9sR5WTn9dB4tF+r/Q/+ooqJUzOVtbkbJTUok6OndSAR8cMHFTeGo7qrRNx1+J9ABDi4fJBYMtADepN6BtempogOIiBnCkr58yQKBNxNYdFLXpU1GT2FDPqAknCpzcGWJvrP3yFqC8/ENVcL7WlB6X0zjPaP9HRBRgjU86V7AMH28DBBv/xXFbTP+wMgLGjmPU21q5HR0ICdLeMYwoOCFDuaxVEKMkr7Hlllxhu14wu3EDC6L5XH04cHJMHyktDfiSVlZUWQJiC37tL1NuPinr8JlEPXyrqkatFPTta1Np3RPmq9WwxKYDvvb7AUi9dgMJIsMh9F0r2wWK9cCk7AWCwjSSplOyCtH5fc1usp7tMPVLvHVNw0AmkBwlBa3Kb9Oc2+EIRItYNGOYeAMmtrpeat2eLSmdEO7K5PH5vvfH3MnFiulRXVVnT7mzVwPYJ/kYrKae+VhQzq2RvRSPC4iUy2y/+9U8SrgPJE51+lewtKdWSriuJQV+IgrJX65cFTVLfnDrftT/m4AAg5HzgsgGQLQe9v8diwMH5cJ0vaXA0jO8vv/rpaTJr5kwpLi52zVAntwRpQSb5pk2b5KKLLpJH+/80cXBM7C/RmTdKZXlpXIDTB+aYMiusDxQRz6husD54eKRGfk/LSQlw0AniHwBkdW6Tnn9hRMWTIKW+eqlaPDcpyRFMHyBj//Qz+ckPT5Phw4frNbasXgMQhpAsys7Pz9eLss8++2y95DFrROLSCQM5One0VFZWdAkOJAaxjHX5zVq99vbciemz1zllwEHIHAmic073WBnrAMQuLTpc1zdL9fI3kgJHeFKabLzxdPnW10+Wf/qnf5L/+7//k7/+9a8ybNgweeSRRyQ9PV0uv/xyveb13/7t3+TrJ58kF/7yB9I8wfZZMA+V1abaAMe8qVJZXe3e9pjKZPcBknfW5jVpYPT2V5i8AGG/nzLgMI2CSMW1Ib2kYbX2Yty/B1dS75fqzxZZ7mZXDLP9Xze2n9x5+k/kpNiaWta4sjL/X/7lX/SSSn5zsMwREC254lcSnphATMTUMbGfNMx/UMpqajuBw7irmw+SRd6ov/5Y1WBtVW36n0rnlAOHnnSLKqlpbJVl2Q06g8wtDnK4MSgN6z9KPAgWY1500kDZdvOf5C8//p6cEgOBWe9qzief9DU59ZST5YFzfiG+8XwmNDGDV0uP9DPEN+9+KavuDA7cdSuO0ajzMwLBYxcaTwSEKQcO02hAUt/coqerseR3Hg7qb60a67+0MSj1Gz9O3FA0Izt2XnHNH+T0074j3zzlZAEM7cdJ8r1Tvy6jT/+pFI06KzlgUHb6GdpQxmA2apDPhJLqx9IC1g5v6+V0P0PTZM8pCw46AkAaghHJLAlow41RB5EhNpnqdRnrROnPkCch9mPgiExKkw03/lGG//aH0u+n39NA+eMPvy3n//y78uiAX0rxnWcLNkqbLeEAl+f99DOk+h9z5LCvXnsjSAtyZ/UMa0GTVplHe71JsiDweuKQLasAABz0SURBVD6lwWEazXI/PBkCREz3Mx9TUBOUml0bRD14afIMtDHaN/ZsyRr+F1l7/enyxfWny6Hb/tyj8pAcVUtflX2VDZJRFtRqZOWeJr3TcE1jarmqhr5e5z4BDhpPNLXOH5a88qAGyGc5DZK3bl2PwRGdPFAikzjStKRIyr6wgaxNkqSfIUUfLZTPc+pkaVaDbNjfLMU1Qb2eFUnoxYhUvN9nwGGIh0iuagxL1qFmyVi9UdSM662cTjdG9fY9DNf0cyT/nTfli5w6/aFgnz/c67mfhlY9Pfc5cJgOh1rDEszbJWrmUCuhmKTi3gaDvT7q10d/CX3xoQT8QT3zbNrbF899Fhx6TmTjMlHprHnlMMzpZZDY6+Waz3u8+IAon2NXwT6mUgBz3wQH4e6aSlFzJgmfzOoADDuzkolP2KVAV9dafdjAaK+TZQuj0kTt2x1/TW0fAEvfBAfT7WyjdGv/9j3MJ3oxK7b8sadA4X0Or3oAiFknwwLsJyaKqi7vUwaoU/WlPjiQEiTosLqd1evV5RJev1LUpBtEscH9OFv0EsZ1xTwYaA4vwGgQ2J7jebt0sF+bOo204T+2xmYf0wVPWttaNvmsNADzVQfbRJ+TIan0O7XBATHZ/ISV8qs+EPXGHFGzJ0l4zBXWwmaWPLKG1TDGnDXzPSSJnbFcG+baz85nvH5Tj6nTnCkHcOivLQwW9dAoUS9ME7X4FVGkKZbsF8UeYX0AIKkJDn+TqJ0bRLHN09z7RE0bKWrs5aJGDLI2X2EDWdbFsq1COguoHUbolEGiHrxc1D1/tVSBF3O7c9+ol/uo1wmOc0Xdd7GoMRe0r9ulrewvxp4gU24Q9egYUS8/au0wtHe3677qqSI9UhMcqBE+dsO+43xsJ3enqE2rRC1bJOrFR0Q9PknUnPtEffaBqHceFzXJMaVO1viMa0SxrsUsejJM5ZwsKMy7BgyE1WfdHAvd2wDCfRKRVy8WNW+WqEfGiXphhqh/vCTq08Witq4Rlb/L2njGV5v8DkW9bMSmJjjsRED8snuPSeljoxY2q+XMJvcrXu0MDuZbnrmjIzgMY4/EmYz3Z0aJ0ivuHOBYcK+osqL2NtJODGjsJWNz2PuXwtepD454xMNI/XyRqCk2BiEpYNpLE48uOOZPFXXPee2SCdDxheyFD4uqLe8TNkVX6qtvgwP188W7jhGcJure80S9Md0dHPec72Ir2MHlcg0I7DO0LJBCnd3/187gWPSIKF8sgTkesPvAf30bHBB481JrBLcxL03U/ReKeu9pUQ/abA49smO2QtuzLkBwUzssu5xos2vIeH//KVHTHDPCSI4PnrK8kUQ/MZbCIOn74Ni+XNT9F7WPbBh///miPpkvasaVHaUE6ubF9KTWvWqP5OXJopAWBjiA49NXRM1giaQNYBjGS+bGPv3RnrTclfhO1f/7Pjgy14l66Ip2hmtwnCdqzVux9a025mGoLnykswFrZ7Db9aJZHXNVAcfKBaIevbYdlLwHOJbPsz7dlcISIVEw9n1wZK+3LY6GQWmiHrxA1KYlombd0A6aiQNEPXKtqH880X7PDQhu9z5+pTM4MITxWDqoqDRRq14XFfLeTD9RxqTCc30fHLlbRT12nY3haaKmXyEqY62oWTe238dmeH6kqKUvtd9zA4LbvXXv6oXYbTETJMfGD0U9N7ajWkFtrXvHCvWfkBwpkNlUmClq9i02hqeJeuQqUdkbRM26qf0+K+ZfniLq45dti6dtKscNFCyqhuG71nYGx/ZPRKFuJrIYOyaxpg62JNZxAAwkV9+XHHyAePawdjsCMY/EyNvWGRxvPZYkONJEPcwXm75wAcenopYghWJejLZ1LhKFgXwCHCkgNWBCSYGouSOtbRMYwdgWT40Qlb9D1BM2iYLkwHZISnKgoq4ShXQad3p7TAO1suNTUZ8vbpdC2ta5VFTG6hPgSJnRwdeinx/TUbw/P1bUvl2inh4ZUytposb/SdS690StfL2dyW6qxH4PhgOOw/tFTbBlpWtwLBe1fZUVFdVqZYBlGGMgn5AcKSI5qg+Lenl8OziwAV6fZo12OzgY+Vs+E7VmUTtDOwDBbOJis0MMOAiHG/XBO4Bj5wpR2VtFTYrFP7BPcG1zNp8AR8qMDkLVr07qCI4P5rqDI2uDqDVvi5poC2jBbFQRsRLOHQATkxzUwX0AYAdHYZaoybFtp/jvyaGi9rl8OrSPSpK+b5A2N4h64752cLCN02dviTqUZ+3npRlq7QmmbQckhxMc2CNEVJnqt4ODSTyioPXVlmGKJOH/ieeIyvjMUjdTjLcywPKasE/6KBic7e774Ag2i3prWkdwbP5EVHGBqBcnxIJUMXCQG9IJHNgjf7RslEeJl9iWQKKinrlFVEONFUAz/3F/12orS21qTJpwb84IUYdyT4DDibJe/02eB1s2VRwUNS+9HRzYALnbRJXstYEDO+FsURWHXMAx0EraaagT9eb0jrYFDCd5p7FO1PN2u6a/qMw1Vj4Jk3uABgn1+I2iMj+3wud9IA2wK571HclhT/oh2QcPYscKUW9Os6bOYQ5R0AcvsqbMS/fZwBGTBr7qzuDgPVxff4OotRirttlXDY67RJEg/Oo9tv/SLBCQvPP6gx0n5ebeIeqLxaIO5ogCcDrBJ9In8ztSHxyAQqcN1os6sNuaUFv8mKjn7rSmzJkmh4nYAewtuuoNiyFt4Bhgjez7LxaFfbLuA1F8isPYFlx/+Kw1H1KwI7b9ZMxjAWzPxsChJ+xsBisTfjC+aI+oe8+3AMLzgOueIaKeHm7ZQh+/aAXkMGqRdH1IoqQ2OGBmzlZRq98StegxUS+ME/X4zaLYI/Shyy0jkTgEuxKzmezat9tH694MUY/9rT2mQU4pictbPu0MDgJXMLqq2FIxbbZFf1EvT7JAteSF9vcA4pZl1s6DTLJlrhX11gyrbbSHqKpu3+WiHrlGFNJk4XRRyxeI2vW5qKqSPgGS1AYHWz6y/aOvUlR1iajKQxZhIa7z4Jmg32JyfY2o1/BgYhIC7wR7gv+3r2hnspYe/a0dihnRjO7Zw9v3NkUKzL/bsi0AgJE4SIinhosCgEgDDlQIm98628Vv2k376yqsRCBA3wckSGqDw8slNKoG8JC821xviff1H4pacJ+ou7ExYioAm4I0v+I8S3VsW94xcIWrCtOoC6YtmtluQ6Cu5k0VhUcE4PB+jBvM8ocpuK/DRVEvczwAGUkCWIyt4dqHvpEI1PfAAeFZ6MSoXf53i3kPXSpqSn9RxBw43zPYOh64wFI3BRkWs3iXeIaRKHgwL0+0vBGYCGNX/d2yXXQ8o5+o2X+zDFLS/iqLrR2P2e343iFWHfZ67zvPyvF4f66orC9FVZRYWejYTK4gSZEos0fb+h44ENNEIZmSz/xSFIYhU+pbPhG1camoTUtFbV5m3T+YZ0kDmI6nQmh72uXtxijBr0/nWwyEQIz2jDWi2pKQWTV3pqjPXreAgZeEagIkuzda9VAf9VI/OSS4splfiGKOhWcwWPmCtgcDUvl+3wNHV0RG5eh1LhFRLX7LBti9QdR7s0XdPdhmTwwQ9di1ovK3t3+GnHeJmyy4J2bI2iKirEfBCCW4hvqJbYFt2Q59Q00kC8TjAxxtgAhbBh8h7I1LRH00V9S8idaG9/qLCGkWOPiGysxrLWaz77kdcKgeZnRfHC9qSlp7cI3377tQ1NxRot6ebrnUOVusNSrGvqAd9rL6+HXfBwer3opyRG1YImrRDFHPXS9q5kXWVxCwB5hBnXiWJQkwTHErP3xGVN4Wy7V1YyAAIU/k83+IemWS5SproJxllUeZZLjPGCJq7tWiFtxhpQKQQ6IDX33TxnACu++DA2+ltsIKjZfkiyrKtA4ilHx4hwO9z28+qsP0e5ta8BrpscAbNgbuLfGPssL2snR5lGvqyhZVXmS1g1iKG+D64L2+Dw6IrtUKtkYXR48Z1EX5J9RKartfx8uoTYV+HB+So8cS4QTg3cB4AhwngOVpI50Axwlw9A44zCewwuGwhEIh/SksPodlDr6CxH2+ncansuxfSHITa8nec9ZPfX6/X3w+nz5Tb1d1Osug7U1NTVJaWiolJSVSX1+v+0M/6OfR6oehIX1oaGiQ8vJyOXz4sNTU1LTVf7ToaOh+xCSHISqM2LBhg8yZM0fOOuss+f3vfy+/+93v9PGHP/xBbr31Vnn77belsLBQg6QrZpmGdnU29cPIdevWyfTp02XQoEG6Xr7IRBtoE0SPVyfMrq2tlTVr1sgDDzwgZ555pvz2t7+VX//61/KrX/1KX59zzjkydepU+fzzzzVwjiRAKAvg7dq1S5599ln9JSnaTv0c9OX000/XdHzvvfc0YLvqU1e08/q/x+CA0HQGgr722mvCd9G+973v6c9knXzyyfqLR20fuTn5ZPnmN78p3/72t+X73/++3HTTTbJlyxZhdHS3g9TPCGpsbNSg4/Nb1P+tb31LTjnllA718zWm+++/X7fXThDTB4D95ptvSr9+/drKMF9tMn3gTL9OPfVU/Qz1AXbqT0Qy2es119RP/6EDwObTYv/6r/8q//zP/6z74GwDv6Hjd77zHfnFL34hd999txw8eFBLFMBlyu3puUfgoFOIPEYZ6IYZNNzZGTthuTbPcIaRkyZNkqKiok5MS6RzMOWTTz7REgqmmbKddZp6//M//1P27t3bRkD6EAgEZP369frbbnzSK14Z9nLNc9T7pz/9qU2SJNJu+zMMLj46OHLkSD1wTLmc7fU5r81z1P+Nb3xDXn/9da1C6ZO9/O5edxscNAC0InrNKO2qM87O8duMwiFDhsjq1av1CEykM4wQ7IBZs2bJz3/+c/2dNrfynff+4z/+Q3bs2KGJRx/Q5YjvnvSBOmDOf/3Xf8nTTz+ty0x0BGPDLF26VAMTadAdGho68v4dd9yhgUb9PQVJt8BBxfv375cxY8Zo9dHdDtkZh9RBl3/22Wddimc6XVVVJRMnTtSSJ9H6AeJf/vIXDSrK4OvU2CaIZ3tbuntNO/793/9dpk2bJs5PkjoBT/2okQ8++EBLXdrW3XrNe9QPQK699lrZs2ePNpad9Sbzu1vgOHTokEyYMEHbDV6M4T4dhunm4He853lu8ODB+ivQ6G+vjjQ3N2uJBVPjlcd/pm7UxR//+Ef56KOPNPiwkR5//HH58Y9/HLcM0wfeN2VRrle9PI89hfGLuvLqA/1DlWG0U65Xedx3tqErOkKXW265RQoKCnokPZICB2hHx8+dO1ePELcO0XAICYIxrO655x556KGH5MEHH5RRo0bJf//3f2sR7NVBxPMVV1yhvQAnYamfY8mSJZoBlGFGjTnTJoiNLYOq4lux1E2bN27cqA0/GIOl/7Of/azT+5RDGaYPF1xwge7DE088IU8++aRMnjxZl0v5XkylXagv6qO9bv3ALcV4p7+m7eZsAMG3bwE0Eprv3gJmaDl06FANatroRQPa9+ijj3YpwZxts/9OChwQFfcN186rUXT2uuuuk5UrVwoSBvGKF8CBGM/NzdWMwsqHuIYg5gxh8ATeeeedTjEE1Bk2Arqd58w79jP1n3/++bJ8+XJtExEXoG6kjdHDuNE33nija/2UBdGvuuoqWbFihS6DPjAoOJA42FqUj1cTj7m4nsRJ7ADhGs+EQeMFLu7/8Ic/lLfeeku7/NXV1Tq+Qv30BRrg5Y0dO9ZTrUIfysCeiSeF7WBwXicFDoiEK+hGEMBy2mmn6dFFB7DAnZWZ3wSm0InxjEDKMgw176GjGUGAxw4IriEo95955hlNQK/6KQOrnrqdAIegiORx48ZpBsQjKuVDD0YyUtJZFm2ijpdffrkDLQDGvn37tKvq7AP1A0wkCgAAWKbvzjPlENNZtGiR/O///q9r/dBk/PjxAric7yfyOylw4G4h5twIgRibOXNmp5Hi1ghGD6MYKQII3MojJrF48eIOqCdCiWfi9jxMBRgw3z5SnfUz8gnEuUkeQE/shREarwxTJs/AwClTpuiYhJPZtBPXmcFi3qF99957ryfAsbmQdkbKmffcztQPSADIT3/6004Dhj6iOrOzsxPqj7OOhMHBSEFPM0rshOWae1deeaUmQiJENY2AsFjrqBh7mRAZRiH6kTLmeerH2HM+y2/0MB4MRDXPO8/8t3v3bm0vORnJKDvjjDO0ykimDzAH+wH7yq1deC9r165taxOjmCinE+C8C/CJLntJPWd/+E1bMXxvu+02LamcbYCOCxcu7HLQuJWdEDhoACIM4w6xZycsjSGat3PnTo1it0ri3auoqNAgcBKLOv7nf/5HM4v3YSw6FiA668fj+PTTT+MCgzJgJNIIcW8vg2tUklMFxGu3/T/Uz7vvvtsJuNAGCUgshueh46ZNmzQInPUDTmJGdiljryPeNf3KycnpVD91wC9iH4lKQ3s9CYMD/Uocgk7YOwZTL730Uo32eKPWXqn9Gsnw4osvuhpnjKTNmzdrotK5iy66qEPdpvPXX3+91uP2ct2uEekPP/xwJ4BRzo9+9CMpKyvrEmBu5cJ0JBKejZM+MAe3EtpwEJ5HmthpCIhQy0jGZKSGaQv18x58cA4y2kNsB/7xnHknkXNC4KBTEA4J4ayc33SYZ5KtnAYy6rCo3dQFEgG3lbIR3ehjO1G5Rmwy4uh8Vx024pd3nOXg4VBPV2V4/Q99kGxuZV988cVaPVL+jBkz5Lvf/W6H+qEhKo2BgBTwqsPrPnTnPSSfG3/gW3eAnzA4MGrcrHIaw9xKdwlLpwgGMdPo1JfYIkzm8QzzIQMGDOhAVBhMm5566qkOtokXEfF+cFGdqpFysFm83kvkPuD08uSQKPxPP5hHYkLNDk5oSLsw+LtDR8DBewwyN3BAI+iXbNkJgyMzM9MTHBhcyVZsCA7B0MN//vOfXcExf/58TVQI179//w5ENeDAS4nn9pm6UGEYzm7gGDZsWI/BgQRzkxyAAw+Evt533316cs0JDlRCd0PeBhxMQLqBA3uqO8BLGBxMcoF4t8o//PBDDY7uqhU6RcDGTXIcSXCgVkaPHu3KQCQXzDNASvYMfbzKtoNj9uzZ2r6wg4N+/+Y3v9HT9d1pg1ErRIHd+IM7e1TVCvEBCOg0uGgMIhmDqDvgwEj8+9//rkfz0QYHbYQ5bkE0gI/F313mbN261TMGZMCBdMXoZCA4wYE0gw6JSEAncCkXgx2HwQkO+DVw4MCkwwzUkZDkgOlUji/tFMkwFGOSSZ7uEJaQ+vDhwzt1CuJhcxxJyUH7COu7ubLoZUR+vMkyJ1PMb95BtdkZbr8GHAwu6IhX88tf/rLTszAVr4vIqCk30TP9QrXj8TgHGPwiGQh7K9nBmzA4GOFvvPFGJ5FMYxiJt99+u9aryTSAMlFJREmdnToa4KBtpBqQ7mdnHtcwh8myL7/8MikVibdFjAep6izT/LaDgzgGXpfXICO0n4z0QGow14NBC8BNnebMPTy+eFMBXiBMCBy8DGExSonjuzES1DLPQOdpcDyQ8D9oJ+mGDCqnqjIdO9KSg37QPoJ5gMHZDwiJwUr+Ju2L1wf+4xky2MhVdTNETT/s4EC1PffcczoPxvxvztAB22PVqlWamfHoSP38j+TFA2L6wJRjzvSRlADmcrwAEO9+wuCgENwxRK8T9TQGQuNPQ/ji4mLdOSdx+c2BxADNzFpCECeTTOeOBjhgKNFUrzkabA9iHuRy0k5nH6ADTIHJzIwiMaAHjDDtdp7t4OBdPBdo5XwOOkAP0hrmzZvnmbxMm5AEzC5jBLupE8oCsGSmYRLEA4HXf0mBgwYxZU++qBdD0edIAzqHuEMfm4MQfEZGhp7cgvFuILMT7GiAA8Iy2sjLoH63fnAfO4oJNeI7uMCIevpBH5Cgd955p86piCcxTF/s4KB+AMKcEu+6gQqAwHAiwkgRpJ2hIWfmkF566SU9R+NmP1Ev5V544YW6rQwILwDEu58UOOgYjSPphRHmRlju0TA6yIF0gDjEKLDSucf/POf2viEo56MBDohBP/Au0tLSPAFq78NPfvITTWjUB7OsRlKYftjb7HZtB4dhBmDDEPdirp2O0A36UY6RtnY6OuvkXTvt6K+pN5lzUuAwBePTk/PgJs6cDTVETpSQ9vftHTwSQTDTfs6MJlIGWUsDoe31Oq9NH+IxxPmO/bcbOJDCJEOhwig33kCxA4W22Mt2XvMsUg/1j8Sx9znZ626BAyRiVxzJBGNnJ/mdCDjwlBKNkDqJg3jHO0DHx2OOW9uSuecGDtoCHYkOMy1ASmAyZbo9Sx+Q6KhD7JruSgxDp26DA8JiU5CZRdqel/5264T9HiOBaW03KcTsJbkIjPIDBw7oYI79Xa4Bx/PPP9+t2UyIgNGJ/mdyzMsGcNbp/A1TYC59cBvZXuCgftQLXhuGJTPDXUkRZ938pn7ojy1Iris2VU+BQdu6BQ6DLBqAgYb1T5QU4hjRC5FotNvBfxwwA2sfG+aaa65pIwzv8D/Bou3bt2sDjsVTGGjOcolNwFzAatrVnTOGJ9P5xECMTeHWdnPP9IFnaSdJzDfccIPug5OB8cBBW6EjKsasGIQuho6mPrczbeA56E7yNoGwZGIkXdGpR+AwHUN/YodgWeNzI6YZ0XSSAwJycE0sASMMUbpgwQI9IcTCHlxHwr/8z7NIE6SSiexBQEDINL4pk2fJFmM6v6cjBemEjgaMgBVbxPSB9sAE0w/TBxKMWRDFhBnMjTcrayKkXgwB3PSV2VOSq4m3II2oy/TX1M9v2sZSSJaIMCtOZBU+9JQO9vb1GBymMBpF45AkuFq4rGRHMZ1uDvINli1bpkPt6EQ7yhHv+O3ML/A83gRl2SUCnhIjnFGKQUzuJGl33XXVaDPlczZE5TeuK+USDGMuhPbABIDP8gAkVV5entbrtAkaEAOiXTAuWclhaGjO0AKgEmAj3A/dyDslhsTM76uvvqpzP5hMI4ZB/037TRlH4nzEwGEaYwhOg70OGGCY4vWe83+ecyub50wZyZxpG6oKpnK2l+NWj7MvPG9vI3qeFXhu4EAdAvRE22fqp3xnvfbf9voTLTuZ5444OJKp/Fg8C+ER32RdYdWzgMqIZiQGBE+2XZTJjO4ll1zSyebALmB5IkxNttxj/fxXDhwwCfeRABiMMyoAFxCbBtWYLFN4h8RlN4+LckkNTLbMVHj+KwcOpAPrWDHu8AAMOPjN8kniN0iCRJmDpEGl4G3Zy6Ncfv/gBz/Qdlai5aXSc185cGDAsQreyUiYySjH6MSz6Eq9ACAOjEfWpCI1DNDMGclEuL07ORqpAJKvHDhgJta+U3KYkQ6TmZRDGsQDCOoJIxMPhUiuXUUZcOBuknnGDG4qMDvZNnzlwAHDcUOvvvrqTsajYSpxGAJaxC9wVQEUDObgGhccV/u8887rlCxsQAZY2N6KGE48kCXLsN58/isHDogLs5AeMM8Awn5G5RD0IgBF/iVrgFnxzsFmLyaHg2fc1BPAYG0Kwalk7JfeZHwidX0lwQFhsCvYEZCkGzcGGwkAAExE0kRM3VSIARf/USZRVhMgS4QRqfjMVxYcjGhW7RPjwBA1zO3JGZBhf1AmEeBUZHgybfrKggMioV6YE0GCYGd4qYlEAMO7TMChdpJ1h5NhWG8++5UGB4RGgjCPwhIIkxmGakAKeKkbwGL+51nUDqmR5IYwr9SbDDyadX3lwWEAgn3AZjLkhpCxjSTB3TVAMdIDUHCP/7BBAMUrr7yi3yWG0lc9EzeQnQCHbWN8pAgRVFIA2PKSfbvwVshUBwgcrLFBwvAfzyB1cG37slfiBgzunQCHDRxGijD6CXIxZ0Jsg4k6gmJ4OEgY7vEfz/Ds8QiME+BwAMNrBBnQxPv/ePzv/wFVXfIQ9FlDlQAAAABJRU5ErkJggg==;" vertex="1" parent="1">
          <mxGeometry x="586.86" y="290" width="23.14" height="30" as="geometry" />
        </mxCell>
        <mxCell id="k85vUh0XSUUEYJ-B9VRs-24" value="" style="shape=image;verticalLabelPosition=bottom;labelBackgroundColor=#ffffff;verticalAlign=top;aspect=fixed;imageAspect=0;image=data:image/png,iVBORw0KGgoAAAANSUhEUgAAAIcAAACvCAYAAADXGM1RAAAgAElEQVR4Ae2deXxUVZbHW+1ue2Z6me4Ze5vunp6Zz3T39GIvbkAQcGn3vd0QEEVBlrC5o6CCiiLugtgqSosriLIIiLJvIQlkg0AgCdmTylZVqVTV/fPM53tf3eTl5b1KVQKhgvzxPu/Vq/fucs7vnu2ee9/XlFJy4jhBAzcMfM3t5ol7J8ACBk6A44Tk9NQcXxlwRJWSaLSHB2V8hcB0XIMDRkaiSkLhqARbo9LQ3CLlvlY5VBOSvPIW2XTAL58XNMva/PaD3xv2+2VHSUAKq0P62Yr6VgmEotLSGpXWSFQi0ajnaDueVPJxBQ4kQzgSlWAoKg2BiFTWt8qB6pBsOxjQIFiZ0yTL9zQK51W5TbIqr0k+czm4vzK3SVbEnv90d6Os2NMk6/Y2S2ZJUEpqg1Lb1CoNwYgGnpZIx6FEOW7AgXSobQ7LweqAZBYHZG1Bs8DU1XlN8sW+Ztl4ICA7SoOSWd4iOdUtUuALyYGGsBxs6nxwn/95jud5j/cpZ3V+kwbKJ9mNGix55UEpr28Vnz+ipcoJyZEiowSVgZQo87XKnsNBWb+vWZbvtkb4xiK/7CoLSl5tSIoaw3KoOSIl/tgRiEhJICKlnM0921nfjz1j/ud9DZq6kGRXtsi2koCsP+DXUuiz3CbZuN+vVVVNU1haw1Ft3/R1oPRZyRGOKDnsa5XtRQGBOZpBRX7NuH2+Vi0RYCyM9gKBYXwyZ1NecXNEgy63JqQly5r8JkGafFHQLFmlQaluDPd5gPQpcKDbkRaV9WHZWOiXNblN2pjMOByUvb5WzaximwRIhuk9eRbVVFjfqoG5fr9fq501eU2y81BA6v0R3ea+KEX6DDgABkYmxuXy3Y3yye5GART7G8LCKO4Jc4/ku4eaw7KnukWrm4+zGmVVTpNgl7S29j1JkvLgABTocNxKPAyMzC0HA22AOBaSokswxewVAxLUzZb9fvE1h7U31VekSMqCw8QoEMu7DgW0C/ploV+wJzAmu2TQMVAvzjZhnxQ1hGVTkb/Nc9pfFZBAKNIn7JGUBQe2BV7INjyC3CbZWRrUNkU845L/alqi+oj3nJ2JqCQ8EftxpNUUNklWRUube51dEpSmYCTlA2kpBw6tRlrDcqAmpGMUxCv2VIUkEfXha43q8HY4qqQ2FJVSf0S/x7vYAgUNoU5HXn1I8nwhybUd3Mt3PMv7lJNIO+zgs19jNKMSsZd2HgxIRUNrSkuQlAOHvyUi2SV+rUY2HPBLAWokARUBEFqj7bOpwXBUyprDsrchJDm+Ftnja5GM2kC3D96nHI79Ta3ddo+JuRAjWZrVoCVJia81ZSVIyoADidHcEpGMQwEdL0BPH2gMdwkMQAF4OAdCrVpyYK/UhyKyxxeUzLpgtwHhBSbK3A1IGrsnTVAzu6tCup/ERw7WhlJSgqQMOJjYIuyNZU+4GjHelcSoCoTF3xKS6oD1bHFTWDhKA2HJOgqgcIIlsy6gwZftCyavbgIRyam2AIK7iwRJtRnfYw4OCBJqjUhemT8GDNxUa0R6geOwPyLVWPyxKXSMuzxfi+yqDbQdTkYe7d/UnVvf0uZie7Xdfh+jmQgr7jkSpKIhtWIhxxQcMJcpcGZOCWxtKw5IUZO3xEB1VAQj0mJTH9gZlYGI7PYdefXRHUBhk6AOEzVceQ5PhlnfNfnNegIPFZsKsZBjCg7c1VJfqw5ubTzgl/313sYn0qKmJSJ4IhCOdxtbo1La3CqI9e4w0ryz09ciO30h66jrmeFKmUgRPCNUYyIuNQAh2ks6ATGdVHFzjyk4mOYmuYapcNw8u8i1X1cEwtIAMCIWMJA4NaiSekuVGCZ3ea7xSwYHDKysl+zicskp3C+5+QWSm5+vzzmFBySnsEiyDldLRk2z7MR2ib3TZfkObwj3eF9jyLNf9j4ibZCcxs1tDYePuQ1yzMBB5zcVNus5CKbVvUYYwPCH0MXt2VeHmkLaW0iGWTt8rZrZBXt2S8maJVKz6EnxvTxZGuaOlqanbm07GufeIQ3P3iV18x+Q6qWvSWHmDsksq5Md9WEtWZKpU4MwJkXsQPC6xs0lCvxxVoPkVwSP+YTdMQEHKiG7NCDLshslszzoObLKNDAIFFnBrRDBscZkpEVMSlQ1StH6z6ThtWkSeOw6aX3wMonePUSikwdKdPIAiU6yHeP7S5RjwkCJTr1YgtOvlsanRkjd0gWSV1CgAZasJMGrQc14gcJ+v9DXqu0vUhCYi0FKHiv745iAo6YxLCv3NAlBrmK/uwGK8RkM4f9bwCA4tjfmkSQyelEHHIXbN0vjUyMlfPcQUZMHipo0QNSkNOua385j4kBR4weKGjsgdvQTNa6/qIlDpPWhy6T23bmy++BhyUjSVcYO2dvgrToNQJCgqNglmQ2yqdCvYz/HCiC9Cg46GQy1yuZCMrYaO2ZnOaKgFS2Wq8qo8YeSAwbg2V1UIrXvPCPRe8+T6OQ0UVPO7QwEJzDM7/Q0GzhiIBmXpkETndBfIrOHyYHMbZY94rAz4gEXgOxrbO3akwlEdJLzij2Nsreq5Zipl14FB8m/+6patHeSVdniObtaaQNGKByRQ41B7QHEI7z5b1d1k+Tn7pGG59IlOvFsUQDDMD2ZMwAZZ6SH4zyhn0QnDZHSFf+QzLLapDwlAFLYGF+C4L2QkkhwbP3eZq1ejoVq6VVw4J1s2NcsZEt5RUCrgtE2dzUctVxVCGqY39X5QMYWic66UaITzxE1OSYtUCPxVIkXaCa4SBCjbsalSXT8WVL91pPa6+mqXfb/6Y+XOjXqhTP22PI9TbKvsuWY5IH0GjgIdiE1WBaQU+PunaBvAxHLK0EFER5PBhiHMjZJ5LG/iZrUv11aoE7uu0DU9MtFPXCxZXN4gcF5H/vDS3rEQBKd0E+qF86S7OKypNQMbm5XgTJSDz/f26xTIhlYvW179Ao46BSd27TfL5uKAjovwz5CzHVdqF1q1IWIeiYWkCKAtTdzu7Q+OVSUlhgxQxNgPH6tqFdGi3p9gqh5Y0Q9ckU7cJxgcPs9wW6cOtRLDCCR9IFSuXhOTMVYHpJdUnhdkxoQDyBMIyA9WD+D9GCA9aZ66RVwYGvsr7Zsjd1VLa4uHVIC+wIgcSQzxb5n/0GpfyHdMjzbGJwmavplFigW3yPq3XtFcX5tnKgHLkkcIJO6BgeeTevdF0vpx28KNo8XGJz3md1lhtYMDrczmW9ID7Lam1p6N0GoV8DhD0X1uo51+5pdQ+SoE5OoAzDKSA1M0M7YVdUoFe/OlcjUwZ0Z/uR1ot652wIG4OB4a7Kohy5PTr0YOyPeedw50vzkCMnLyZGdSYTgmYtxA4W5R1balkMBWZbVqJdi9Oa8y1EHh1EpuK7bWUrocFn5TWofzyEycXV3+xIzQGHC3swdEph1c2evBAP0iWs7g2PhJFHTkgRH+rmdXVsXoETHnyNVi+dIdmlVwiF3BoGezXWhi6EVM7cs29xc5NfJ1r2lWo46OCIRJQUVLTrljzC56bA5E+zymen3aFT2NSRmZyCiCWuXv/+iQ53E7A3Ace8Fop6/TdQ/ploqZdEUUc8OTy7mYdSUCxjaA2XtsZDorFukMDsjYXDQD6RHvLxVVA8eHrkuJEQdN+BgDev6Qtaquruv5YGIhGOTTA0trZKboNQghJ2/O0v8T4yI76bee6GoOTeJemGEqGdu7h4wAEgi4OCZ8WdK2ZL5kllZn7DtwazygXi2RwC3tkVPyjHQjhtwsBBJT0WXBV2DXpXBdiOUCbVEbY3MygYpWbVYz4vED3KliZpI+LtffBAZCeF1ThQcY8+WwMybJau4LGFwID3y8VziLM5izgWvhe0iesvuOOpqJZdEFlwxX+ekXFSKP+aeBcJRnQzstOi9fmeW1Yjv1QdFpRMFdZkjOdL3EgbHAImkD5CCzB1JqRbSGuNJD4KG2B1GtRgb7WhKkaMCDpBtji/3+XW43M2fL4tJDTpYHQwnlQycfbBEWqddkZzX0RPAJAGO6ISzpPLD+ZJRl5hhbQZAV2F18j3wWth3hJntoy1Bjjg42BKhuiGsO1DXFNbpbxhTxgC1n8tj4IhEIlLWlMRUfI1f8rIzJTKpX+9IDUCVBDiY1Q3Pv1921SYeEAMgBfFUi05IbtFpDpv3+/UORb6mVgmHj56BekTBEY5EJL+MZJVGnbDyaTbnRr1PhtsSxham5JWS5nBU5zuYEdTVeVd1sxzYvDY2sdYLKiVZcIwbKNGHr5bMwzVJ2R3YW145tEhekoFQKxxLMxv0eW95QKD70VAvRxQcBLvIgfw4s1GLP0Qg4NAurMv6VoDBUdeS3BwK4fKyZQtTGBxpotIHSlZJxREDBxKXYCFzU9BV0zbTyjmF7qkPjpbO4CAn8qDL4qTDxkth6WKwNWEvBalC8Kviw1etmVfC28x/jD9X1DjbwW+CV/zfE1vDvOtUK2PSRI0e2Pm4KzaTO+5PsmffgaTBEc8oBRykEXYCR0sfBQcp93Y7w1wbcFjT8qGkiEiMo+aNpySqGXSuqNsGibp1sKgRQ0QNH2Kd+X37YFFjBokae64oZlgNo5M9m/kVGH/nQFF32OqkHvtx+yDrmbF/lD179yfXLxMQ84iWAo6tNsmMhEZS+/sqOFiLQacMKLR4JCoatFZ4hSJKrz3tys6w/1+0drUE7x4qavhgUcMGibqpn6gbzxY1NM26x5l7w85tB8sdg0WRn5EsMHgecBhAAEDKpQ7qvPEs63zTOaJuGWi1h2dGni21i1+TzIr6pBOTO+xfZgMKdGSWlhTCDmqlr4KDPFE3cDADi55siSQe39CTbAtfkZaxV1ogGD5IVPo1ol6bLWrVu6I2rhK1c72oDStEfbRA1Kx0Ubed3y5RRg6yJEkyAAEYSCAYPuI8DYzw2Csl8tJjoj58TdSaD0Stfl/UBwtEzX1A1OhLRNGu4YMkOvoyqXv6ftlVeCg2GZeY9xIPHMxqHzfgYEG0GzjM4iSCXwktdkaVzH9aIiPPt0Ynovzd+aIOF4lqbhLVGhIVCYtiCQPnloCo+jpR2dtFPTquoxRB1SQCEGyW24y6GizqrstELX1LoocPimpqsOqgXo5gQFRjvaiSA1a7aN/wwRIdPkTqHx2v18LoNTAJzDbHAwcJQMcFOOgEOwF3BY4uQ+Y1fqlcsliiYy63gHHHRaJyMmKAiFiAcKbwA5JoRFQ4LCrUIuqDv4sa2s+SOEiQrlQMEmMUDMaOGSTq3uGi9u7pWKdtLY0GpQZmxHqG9tHO4UMkeuv54nvmQStrvYfgYA+0E+CwEbFgx07xTx1q6fS7LhW1P9tivErQSjdMe/81USNidgiMRzK4SRCAgXS5FWAMFnXPUFGVxaKSiSdQZ2mhqInXaUBHR54npUveSSgZyEtyYK+dAEcbMPySVVwlVa8+LVGMvTGXitq1SVTYfcOTlpYW8fv97j4/zAqFRL0+J2Y/DBE1dpC7qwtotJ1xnqhJfxNVftACI2U4JJSpkyiv8z8ttfZliZpwlQZ280OjJS87p8s5l68MOHC9uq1WavxSkLFLgveMsGyGN+Za9oWNSSx6gkGbN2+W2bNny/Tp0+W9996T2traDksoNeNQM9gEd99iqSc36YHUuGuQBaDb/yrqy+WWmnCAgjSDrVu3ysyZM2XGjBmyePFiKS8vlw4goZ1Bv6gPkFhDJDryfCn55P0upYcnOALHkeTAD0/EIPWyOXZV1EvR0sUSReePu0pU1tZO9kVra6ssW7ZMBg8eLN/61rfk61//uvz85z+XWbNmSSAQ6AyQQLOo9+eLurm/qBGDreCZXbUYqYGLPHOCqLrqTnUCyHXr1smQIUPkG9/4RludAKWurq6jBAEgBdmi7h0h6pY08c15QDIPs9bFe2cAL3AwyIg2Hxc2B774F/vcvRWzfxeuLBu22eMY5jqzzCdV856yDMmn7xZVdqgj4dneqb5eRo8erYHxta99TThOOeUU6devn2RmZnYcyYx+xH/GBlF3XiJq2ODOqmXCuVZQ6+Z+ljvMyHdIDQA5atQoXedJJ52k6zz55JNlwIABsmPHjk7Pq7oqUa89oaVfa/p1smdv/MhpPHAcV67sur3u4Ai0hDQRCYIxVW0A0X4OSmZxpTRNHy/qlgGi3n1JVFN9J8KXlZXJtddeK4ZJgIPr3/zmN7JkyRKdZdaBuYzkwlxRD91hGZuoEFSJkR6E3fFQsHHWL+9k3yA1kA6XXXaZBqEBJHX++te/lpUrV3Zqo/aWVrwr6tbztWrJ35UZ1+6IB46dpYHjR3IQPnfLcGpusWZkQ1ElB5rcwbH7UIVEHh5jgePjhVYswTGKg8GgjBs3Tk499VQ9go3kOPfccyUnJ6ezWgEcpUWinr7HAgfhcDdwjLpI1K6NMa+o40p37Irrr79eqxMDDqQVqg1p1QGMRlptWCnqzkslekuaHNj4ueyqaXYZEFb+h9sMto4sByI6NHDcqBWyznG/7OFzrs3cCl89qva7JRUHJftQuYQfuL0dHAS2HODAMIQhV155pfzoRz+S73//+/K73/1O5s2b11ml8G4bOO6ODw6isNrGcfFClJLc3FwZOHCgnHbaafKDH/xA1/n8889LCI/I0UYdb9HguESDY/+mLzzBQUAwnuQgF/e4mXhjyl4vZHLOrwTac0fdp+xRK1XSNCPdAscHr1qeioPwiHkAUlpaqj2GZ599VrKysqykZYDgeF6D40C+qBl3WeAY7Zi5Ra0QKr/1PFFb11rRVmcZSunyS0pKZOHChfLSSy9JRkaGIMU6eCvmPVzvNUtEjbxAR3jzMrM81Uphg/cqfHI6mKs6bsBBUsoOj/UqJp+DPUPdNnzDqq99aZaoof1FvTBdVGVZZ2bHGABIYAxnjk6gMIzCIM3cLMrMzxDrMPYGZ2OQMpH2ySJRLUHPskxdpl7POht9ot55QdSwgdJ615Wye2+Rq0rBa2NvU6eUNb/Jw2XnwT4JDlIE2UsUnQgo6ASSgxwE00H72azBsLZZ6KxaMit8UvrR29oFVJNvFJWf5ckoT8YYUJgzzIbpnq4sE23Mug4Q9ew0UQ2+ntdZXCjqsXG6zKYZE7Sh3W54t+eZxssEww5h10G2hIK20JgDekP3hPtv6JDA+YhmgpH0WtUQ1h+hQTfyvTW+tMinMNzWhLJFJJ1iBFb4XRJ+appl77Zt0jLpJgsgH71uGaXxJEO8ThMEq6kQNWOMFVQbRUKQzVNBcujQOR7LYGtuJGd7J48lKUagUjYs17PDGKOl770hxG/cwJHra/G0NxhUm4sCGhx8sgz67ioOSG1T+Kht7nJEwQHRAAgLmVrC1ic2i6pDsiKnUX9QzxkpPRwDB+/Vh6J65VdHovklu6RSql59Shty6q4rRJURyu7mSGltFbX8XVHDY+7qXR5zK2SUMa8y7FxpmT7W1UtKCCC001cj6sHbtNQITh4qBTu8V8N1tesPSxPIy/UHQ/pTqND5aGagH3FwOInW6G/RepKP8TldNNat8D0VbA92FzzQ4BI1ZF+vjRulZeINena05b6RogL+5AACk5idLcy27JdbzxdFxha799jtDfv1aELo54m66Wwr/M3Mrtv8iaekInQeEDX/CVE399NzQ4cXzZfMcp+rMartjSb3HX8YVPl1Ib04bF3BcbSoSS+H3OfX6uWQy5K/CryW2KZwbDjLznsdpUdASPIpX/yaRO642MrAmpkuqqLUmopHVXgxCFDAUPIsdqwVNWyAFeAi14LUQTsYnNekFY4iaWeIFaF9f4EVSgdk8SQX/yGhaitFvfqkqBvO1OH/+sfSJSe/0HMFvt6rI86KNzaxJeu8tM590tGTBl60SeD+UZccxDEO1VgLqXNdFlKXBSLi5/tnSumvPue7bdhSY9TL0xLBxSRNjzTBLz62JtLcPAqYBCjyMkW99ayo2y/QEUqd79kVMAxQkCwjSfY5z5qHee4hUZmbLLsl7BLPaG0RVXlY1LZ1Vhba0P5aYjTdf7vs27y5E+jtgyDeVpTYaxj1eCpsP3k0gOBW5lEHB5X6mkP6055eWzDw4RzAwbOHm1ols23Kvl2KsBwhq6RSKhbMkdaxV0p0GHmdF4maPVnUhwtEffGJqMytVubXji9Frf7QAsW9w2I2RiwRGGDYI6IGCG5nnuN5vBeTr5p+rah5j4r6dJGorZ9b9WVtE7V5jSiiuC88bE0S3jJQAwOJsW/TJldVYsCR5QvqPFq7J2e/5usKGPXbDwZ6dXefXgEHn8vYcdD6ovN+l704Wflm1szyzXmvvcxJs8O93b9urTTMnCRRk+wLUAh34+5OvVkUDLztwvaEX4xLbAgCXG4g6OoeEoQ5GJ38E0swRoKNu9Kqb8pNou660gqeMZuLpLnrCql883nZo2MaLraUbQDoLRhsicR2YHC9NfapET6ZejQNUKf06BVw4MGU1LXqhcB8zdltrsUXkx50vi7QxdLI6mbZv36tRMf2F3VnbFkCIzuW2KvPMBKVwP+AoidLEwAPUoRyKE+rGkd91K8jqyyHGCgNL0zTK9662uUHqeG1yg1gsGEtnzJjj/jjctsnVAZfAuC7ZqybdZMe2vYwOwlGo3KwOeyto9mbIytDIpPOsZgG44lXcMBAcjK4x5GoCulKepj/Kc/URzSV+ji4pv6JAyU6cYDUvDVHdroY10aVcGYeJd7XqJhjwcvDEN1fybLHbrrwCRifTqnB716RHFSERDhUG9LL+ZhrcVt1X9Uc0TESnkfa4Ll4JQLlFORb4DBMS6FzNP0sKfv4TU/PBGDQL6SGGx2MWiFczkd6vtzXLLXHYB/0XgMHDEd6bD3gl/WFfteIKURpIrATW0PrD0c9wbFnb0HvrrJPAnzsnHz4k7fjggOpYUDgeg5YUoMpiMLKgPuEXjclArxI5OhVcCA9+NgdljfbGDmDYhCJgA8AQXKwV5iX5MguOiiRqUyaxQlkJcHQbhmqHuUDjkPrlsXNFY1nZ0AHbA0WTX+515IaiTDzSD/Tq+Cg8S2tUdleFNC7/bBAx23UAJD61qgc8nutvg8Km7dE2E+UryB4MOlY3Wdr7QNb13nmbHS1vSQ0YaUg4OATZwyUI834RMrrdXDQqMr6kKzc02hFTeN8BRKDjG0Y7UacdR2U7JJyiTw+NPl9vroDpnQM38RBiKG8N2OLa2zDmlzznpY3s6+oE9x/XPtEGHk0njkm4MDqLqxs0VY4nwl1kx7mHl5LZ4AEJbu0QiJP32ZtBJeI5GDvsJV/FzX9yhijE1BHbI+dfpao2SNEzbw6YRUGOPKzdnUCB/2gP6ZvbucCn2W0f5bTJHVNLlHYBO2FIwGWYwIOGs732jBM2Wkwp7ql09oWO+GQIB23uw5K5uFqaZ47ThSjuktw8HmM06Vs2xeiDu4R9fjVoib8Jb7UQVKknynqhfGiyg+IenZMAvVY0/9sR5WTn9dB4tF+r/Q/+ooqJUzOVtbkbJTUok6OndSAR8cMHFTeGo7qrRNx1+J9ABDi4fJBYMtADepN6BtempogOIiBnCkr58yQKBNxNYdFLXpU1GT2FDPqAknCpzcGWJvrP3yFqC8/ENVcL7WlB6X0zjPaP9HRBRgjU86V7AMH28DBBv/xXFbTP+wMgLGjmPU21q5HR0ICdLeMYwoOCFDuaxVEKMkr7Hlllxhu14wu3EDC6L5XH04cHJMHyktDfiSVlZUWQJiC37tL1NuPinr8JlEPXyrqkatFPTta1Np3RPmq9WwxKYDvvb7AUi9dgMJIsMh9F0r2wWK9cCk7AWCwjSSplOyCtH5fc1usp7tMPVLvHVNw0AmkBwlBa3Kb9Oc2+EIRItYNGOYeAMmtrpeat2eLSmdEO7K5PH5vvfH3MnFiulRXVVnT7mzVwPYJ/kYrKae+VhQzq2RvRSPC4iUy2y/+9U8SrgPJE51+lewtKdWSriuJQV+IgrJX65cFTVLfnDrftT/m4AAg5HzgsgGQLQe9v8diwMH5cJ0vaXA0jO8vv/rpaTJr5kwpLi52zVAntwRpQSb5pk2b5KKLLpJH+/80cXBM7C/RmTdKZXlpXIDTB+aYMiusDxQRz6husD54eKRGfk/LSQlw0AniHwBkdW6Tnn9hRMWTIKW+eqlaPDcpyRFMHyBj//Qz+ckPT5Phw4frNbasXgMQhpAsys7Pz9eLss8++2y95DFrROLSCQM5One0VFZWdAkOJAaxjHX5zVq99vbciemz1zllwEHIHAmic073WBnrAMQuLTpc1zdL9fI3kgJHeFKabLzxdPnW10+Wf/qnf5L/+7//k7/+9a8ybNgweeSRRyQ9PV0uv/xyveb13/7t3+TrJ58kF/7yB9I8wfZZMA+V1abaAMe8qVJZXe3e9pjKZPcBknfW5jVpYPT2V5i8AGG/nzLgMI2CSMW1Ib2kYbX2Yty/B1dS75fqzxZZ7mZXDLP9Xze2n9x5+k/kpNiaWta4sjL/X/7lX/SSSn5zsMwREC254lcSnphATMTUMbGfNMx/UMpqajuBw7irmw+SRd6ov/5Y1WBtVW36n0rnlAOHnnSLKqlpbJVl2Q06g8wtDnK4MSgN6z9KPAgWY1500kDZdvOf5C8//p6cEgOBWe9qzief9DU59ZST5YFzfiG+8XwmNDGDV0uP9DPEN+9+KavuDA7cdSuO0ajzMwLBYxcaTwSEKQcO02hAUt/coqerseR3Hg7qb60a67+0MSj1Gz9O3FA0Izt2XnHNH+T0074j3zzlZAEM7cdJ8r1Tvy6jT/+pFI06KzlgUHb6GdpQxmA2apDPhJLqx9IC1g5v6+V0P0PTZM8pCw46AkAaghHJLAlow41RB5EhNpnqdRnrROnPkCch9mPgiExKkw03/lGG//aH0u+n39NA+eMPvy3n//y78uiAX0rxnWcLNkqbLeEAl+f99DOk+h9z5LCvXnsjSAtyZ/UMa0GTVplHe71JsiDweuKQLasAABz0SURBVD6lwWEazXI/PBkCREz3Mx9TUBOUml0bRD14afIMtDHaN/ZsyRr+F1l7/enyxfWny6Hb/tyj8pAcVUtflX2VDZJRFtRqZOWeJr3TcE1jarmqhr5e5z4BDhpPNLXOH5a88qAGyGc5DZK3bl2PwRGdPFAikzjStKRIyr6wgaxNkqSfIUUfLZTPc+pkaVaDbNjfLMU1Qb2eFUnoxYhUvN9nwGGIh0iuagxL1qFmyVi9UdSM662cTjdG9fY9DNf0cyT/nTfli5w6/aFgnz/c67mfhlY9Pfc5cJgOh1rDEszbJWrmUCuhmKTi3gaDvT7q10d/CX3xoQT8QT3zbNrbF899Fhx6TmTjMlHprHnlMMzpZZDY6+Waz3u8+IAon2NXwT6mUgBz3wQH4e6aSlFzJgmfzOoADDuzkolP2KVAV9dafdjAaK+TZQuj0kTt2x1/TW0fAEvfBAfT7WyjdGv/9j3MJ3oxK7b8sadA4X0Or3oAiFknwwLsJyaKqi7vUwaoU/WlPjiQEiTosLqd1evV5RJev1LUpBtEscH9OFv0EsZ1xTwYaA4vwGgQ2J7jebt0sF+bOo204T+2xmYf0wVPWttaNvmsNADzVQfbRJ+TIan0O7XBATHZ/ISV8qs+EPXGHFGzJ0l4zBXWwmaWPLKG1TDGnDXzPSSJnbFcG+baz85nvH5Tj6nTnCkHcOivLQwW9dAoUS9ME7X4FVGkKZbsF8UeYX0AIKkJDn+TqJ0bRLHN09z7RE0bKWrs5aJGDLI2X2EDWdbFsq1COguoHUbolEGiHrxc1D1/tVSBF3O7c9+ol/uo1wmOc0Xdd7GoMRe0r9ulrewvxp4gU24Q9egYUS8/au0wtHe3677qqSI9UhMcqBE+dsO+43xsJ3enqE2rRC1bJOrFR0Q9PknUnPtEffaBqHceFzXJMaVO1viMa0SxrsUsejJM5ZwsKMy7BgyE1WfdHAvd2wDCfRKRVy8WNW+WqEfGiXphhqh/vCTq08Witq4Rlb/L2njGV5v8DkW9bMSmJjjsRED8snuPSeljoxY2q+XMJvcrXu0MDuZbnrmjIzgMY4/EmYz3Z0aJ0ivuHOBYcK+osqL2NtJODGjsJWNz2PuXwtepD454xMNI/XyRqCk2BiEpYNpLE48uOOZPFXXPee2SCdDxheyFD4uqLe8TNkVX6qtvgwP188W7jhGcJure80S9Md0dHPec72Ir2MHlcg0I7DO0LJBCnd3/187gWPSIKF8sgTkesPvAf30bHBB481JrBLcxL03U/ReKeu9pUQ/abA49smO2QtuzLkBwUzssu5xos2vIeH//KVHTHDPCSI4PnrK8kUQ/MZbCIOn74Ni+XNT9F7WPbBh///miPpkvasaVHaUE6ubF9KTWvWqP5OXJopAWBjiA49NXRM1giaQNYBjGS+bGPv3RnrTclfhO1f/7Pjgy14l66Ip2hmtwnCdqzVux9a025mGoLnykswFrZ7Db9aJZHXNVAcfKBaIevbYdlLwHOJbPsz7dlcISIVEw9n1wZK+3LY6GQWmiHrxA1KYlombd0A6aiQNEPXKtqH880X7PDQhu9z5+pTM4MITxWDqoqDRRq14XFfLeTD9RxqTCc30fHLlbRT12nY3haaKmXyEqY62oWTe238dmeH6kqKUvtd9zA4LbvXXv6oXYbTETJMfGD0U9N7ajWkFtrXvHCvWfkBwpkNlUmClq9i02hqeJeuQqUdkbRM26qf0+K+ZfniLq45dti6dtKscNFCyqhuG71nYGx/ZPRKFuJrIYOyaxpg62JNZxAAwkV9+XHHyAePawdjsCMY/EyNvWGRxvPZYkONJEPcwXm75wAcenopYghWJejLZ1LhKFgXwCHCkgNWBCSYGouSOtbRMYwdgWT40Qlb9D1BM2iYLkwHZISnKgoq4ShXQad3p7TAO1suNTUZ8vbpdC2ta5VFTG6hPgSJnRwdeinx/TUbw/P1bUvl2inh4ZUytposb/SdS690StfL2dyW6qxH4PhgOOw/tFTbBlpWtwLBe1fZUVFdVqZYBlGGMgn5AcKSI5qg+Lenl8OziwAV6fZo12OzgY+Vs+E7VmUTtDOwDBbOJis0MMOAiHG/XBO4Bj5wpR2VtFTYrFP7BPcG1zNp8AR8qMDkLVr07qCI4P5rqDI2uDqDVvi5poC2jBbFQRsRLOHQATkxzUwX0AYAdHYZaoybFtp/jvyaGi9rl8OrSPSpK+b5A2N4h64752cLCN02dviTqUZ+3npRlq7QmmbQckhxMc2CNEVJnqt4ODSTyioPXVlmGKJOH/ieeIyvjMUjdTjLcywPKasE/6KBic7e774Ag2i3prWkdwbP5EVHGBqBcnxIJUMXCQG9IJHNgjf7RslEeJl9iWQKKinrlFVEONFUAz/3F/12orS21qTJpwb84IUYdyT4DDibJe/02eB1s2VRwUNS+9HRzYALnbRJXstYEDO+FsURWHXMAx0EraaagT9eb0jrYFDCd5p7FO1PN2u6a/qMw1Vj4Jk3uABgn1+I2iMj+3wud9IA2wK571HclhT/oh2QcPYscKUW9Os6bOYQ5R0AcvsqbMS/fZwBGTBr7qzuDgPVxff4OotRirttlXDY67RJEg/Oo9tv/SLBCQvPP6gx0n5ebeIeqLxaIO5ogCcDrBJ9In8ztSHxyAQqcN1os6sNuaUFv8mKjn7rSmzJkmh4nYAewtuuoNiyFt4Bhgjez7LxaFfbLuA1F8isPYFlx/+Kw1H1KwI7b9ZMxjAWzPxsChJ+xsBisTfjC+aI+oe8+3AMLzgOueIaKeHm7ZQh+/aAXkMGqRdH1IoqQ2OGBmzlZRq98StegxUS+ME/X4zaLYI/Shyy0jkTgEuxKzmezat9tH694MUY/9rT2mQU4pictbPu0MDgJXMLqq2FIxbbZFf1EvT7JAteSF9vcA4pZl1s6DTLJlrhX11gyrbbSHqKpu3+WiHrlGFNJk4XRRyxeI2vW5qKqSPgGS1AYHWz6y/aOvUlR1iajKQxZhIa7z4Jmg32JyfY2o1/BgYhIC7wR7gv+3r2hnspYe/a0dihnRjO7Zw9v3NkUKzL/bsi0AgJE4SIinhosCgEgDDlQIm98628Vv2k376yqsRCBA3wckSGqDw8slNKoG8JC821xviff1H4pacJ+ou7ExYioAm4I0v+I8S3VsW94xcIWrCtOoC6YtmtluQ6Cu5k0VhUcE4PB+jBvM8ocpuK/DRVEvczwAGUkCWIyt4dqHvpEI1PfAAeFZ6MSoXf53i3kPXSpqSn9RxBw43zPYOh64wFI3BRkWs3iXeIaRKHgwL0+0vBGYCGNX/d2yXXQ8o5+o2X+zDFLS/iqLrR2P2e343iFWHfZ67zvPyvF4f66orC9FVZRYWejYTK4gSZEos0fb+h44ENNEIZmSz/xSFIYhU+pbPhG1camoTUtFbV5m3T+YZ0kDmI6nQmh72uXtxijBr0/nWwyEQIz2jDWi2pKQWTV3pqjPXreAgZeEagIkuzda9VAf9VI/OSS4splfiGKOhWcwWPmCtgcDUvl+3wNHV0RG5eh1LhFRLX7LBti9QdR7s0XdPdhmTwwQ9di1ovK3t3+GnHeJmyy4J2bI2iKirEfBCCW4hvqJbYFt2Q59Q00kC8TjAxxtgAhbBh8h7I1LRH00V9S8idaG9/qLCGkWOPiGysxrLWaz77kdcKgeZnRfHC9qSlp7cI3377tQ1NxRot6ebrnUOVusNSrGvqAd9rL6+HXfBwer3opyRG1YImrRDFHPXS9q5kXWVxCwB5hBnXiWJQkwTHErP3xGVN4Wy7V1YyAAIU/k83+IemWS5SproJxllUeZZLjPGCJq7tWiFtxhpQKQQ6IDX33TxnACu++DA2+ltsIKjZfkiyrKtA4ilHx4hwO9z28+qsP0e5ta8BrpscAbNgbuLfGPssL2snR5lGvqyhZVXmS1g1iKG+D64L2+Dw6IrtUKtkYXR48Z1EX5J9RKartfx8uoTYV+HB+So8cS4QTg3cB4AhwngOVpI50Axwlw9A44zCewwuGwhEIh/SksPodlDr6CxH2+ncansuxfSHITa8nec9ZPfX6/X3w+nz5Tb1d1Osug7U1NTVJaWiolJSVSX1+v+0M/6OfR6oehIX1oaGiQ8vJyOXz4sNTU1LTVf7ToaOh+xCSHISqM2LBhg8yZM0fOOuss+f3vfy+/+93v9PGHP/xBbr31Vnn77belsLBQg6QrZpmGdnU29cPIdevWyfTp02XQoEG6Xr7IRBtoE0SPVyfMrq2tlTVr1sgDDzwgZ555pvz2t7+VX//61/KrX/1KX59zzjkydepU+fzzzzVwjiRAKAvg7dq1S5599ln9JSnaTv0c9OX000/XdHzvvfc0YLvqU1e08/q/x+CA0HQGgr722mvCd9G+973v6c9knXzyyfqLR20fuTn5ZPnmN78p3/72t+X73/++3HTTTbJlyxZhdHS3g9TPCGpsbNSg4/Nb1P+tb31LTjnllA718zWm+++/X7fXThDTB4D95ptvSr9+/drKMF9tMn3gTL9OPfVU/Qz1AXbqT0Qy2es119RP/6EDwObTYv/6r/8q//zP/6z74GwDv6Hjd77zHfnFL34hd999txw8eFBLFMBlyu3puUfgoFOIPEYZ6IYZNNzZGTthuTbPcIaRkyZNkqKiok5MS6RzMOWTTz7REgqmmbKddZp6//M//1P27t3bRkD6EAgEZP369frbbnzSK14Z9nLNc9T7pz/9qU2SJNJu+zMMLj46OHLkSD1wTLmc7fU5r81z1P+Nb3xDXn/9da1C6ZO9/O5edxscNAC0InrNKO2qM87O8duMwiFDhsjq1av1CEykM4wQ7IBZs2bJz3/+c/2dNrfynff+4z/+Q3bs2KGJRx/Q5YjvnvSBOmDOf/3Xf8nTTz+ty0x0BGPDLF26VAMTadAdGho68v4dd9yhgUb9PQVJt8BBxfv375cxY8Zo9dHdDtkZh9RBl3/22Wddimc6XVVVJRMnTtSSJ9H6AeJf/vIXDSrK4OvU2CaIZ3tbuntNO/793/9dpk2bJs5PkjoBT/2okQ8++EBLXdrW3XrNe9QPQK699lrZs2ePNpad9Sbzu1vgOHTokEyYMEHbDV6M4T4dhunm4He853lu8ODB+ivQ6G+vjjQ3N2uJBVPjlcd/pm7UxR//+Ef56KOPNPiwkR5//HH58Y9/HLcM0wfeN2VRrle9PI89hfGLuvLqA/1DlWG0U65Xedx3tqErOkKXW265RQoKCnokPZICB2hHx8+dO1ePELcO0XAICYIxrO655x556KGH5MEHH5RRo0bJf//3f2sR7NVBxPMVV1yhvQAnYamfY8mSJZoBlGFGjTnTJoiNLYOq4lux1E2bN27cqA0/GIOl/7Of/azT+5RDGaYPF1xwge7DE088IU8++aRMnjxZl0v5XkylXagv6qO9bv3ALcV4p7+m7eZsAMG3bwE0Eprv3gJmaDl06FANatroRQPa9+ijj3YpwZxts/9OChwQFfcN186rUXT2uuuuk5UrVwoSBvGKF8CBGM/NzdWMwsqHuIYg5gxh8ATeeeedTjEE1Bk2Arqd58w79jP1n3/++bJ8+XJtExEXoG6kjdHDuNE33nija/2UBdGvuuoqWbFihS6DPjAoOJA42FqUj1cTj7m4nsRJ7ADhGs+EQeMFLu7/8Ic/lLfeeku7/NXV1Tq+Qv30BRrg5Y0dO9ZTrUIfysCeiSeF7WBwXicFDoiEK+hGEMBy2mmn6dFFB7DAnZWZ3wSm0InxjEDKMgw176GjGUGAxw4IriEo95955hlNQK/6KQOrnrqdAIegiORx48ZpBsQjKuVDD0YyUtJZFm2ijpdffrkDLQDGvn37tKvq7AP1A0wkCgAAWKbvzjPlENNZtGiR/O///q9r/dBk/PjxAric7yfyOylw4G4h5twIgRibOXNmp5Hi1ghGD6MYKQII3MojJrF48eIOqCdCiWfi9jxMBRgw3z5SnfUz8gnEuUkeQE/shREarwxTJs/AwClTpuiYhJPZtBPXmcFi3qF99957ryfAsbmQdkbKmffcztQPSADIT3/6004Dhj6iOrOzsxPqj7OOhMHBSEFPM0rshOWae1deeaUmQiJENY2AsFjrqBh7mRAZRiH6kTLmeerH2HM+y2/0MB4MRDXPO8/8t3v3bm0vORnJKDvjjDO0ykimDzAH+wH7yq1deC9r165taxOjmCinE+C8C/CJLntJPWd/+E1bMXxvu+02LamcbYCOCxcu7HLQuJWdEDhoACIM4w6xZycsjSGat3PnTo1it0ri3auoqNAgcBKLOv7nf/5HM4v3YSw6FiA668fj+PTTT+MCgzJgJNIIcW8vg2tUklMFxGu3/T/Uz7vvvtsJuNAGCUgshueh46ZNmzQInPUDTmJGdiljryPeNf3KycnpVD91wC9iH4lKQ3s9CYMD/Uocgk7YOwZTL730Uo32eKPWXqn9Gsnw4osvuhpnjKTNmzdrotK5iy66qEPdpvPXX3+91uP2ct2uEekPP/xwJ4BRzo9+9CMpKyvrEmBu5cJ0JBKejZM+MAe3EtpwEJ5HmthpCIhQy0jGZKSGaQv18x58cA4y2kNsB/7xnHknkXNC4KBTEA4J4ayc33SYZ5KtnAYy6rCo3dQFEgG3lbIR3ehjO1G5Rmwy4uh8Vx024pd3nOXg4VBPV2V4/Q99kGxuZV988cVaPVL+jBkz5Lvf/W6H+qEhKo2BgBTwqsPrPnTnPSSfG3/gW3eAnzA4MGrcrHIaw9xKdwlLpwgGMdPo1JfYIkzm8QzzIQMGDOhAVBhMm5566qkOtokXEfF+cFGdqpFysFm83kvkPuD08uSQKPxPP5hHYkLNDk5oSLsw+LtDR8DBewwyN3BAI+iXbNkJgyMzM9MTHBhcyVZsCA7B0MN//vOfXcExf/58TVQI179//w5ENeDAS4nn9pm6UGEYzm7gGDZsWI/BgQRzkxyAAw+Evt533316cs0JDlRCd0PeBhxMQLqBA3uqO8BLGBxMcoF4t8o//PBDDY7uqhU6RcDGTXIcSXCgVkaPHu3KQCQXzDNASvYMfbzKtoNj9uzZ2r6wg4N+/+Y3v9HT9d1pg1ErRIHd+IM7e1TVCvEBCOg0uGgMIhmDqDvgwEj8+9//rkfz0QYHbYQ5bkE0gI/F313mbN261TMGZMCBdMXoZCA4wYE0gw6JSEAncCkXgx2HwQkO+DVw4MCkwwzUkZDkgOlUji/tFMkwFGOSSZ7uEJaQ+vDhwzt1CuJhcxxJyUH7COu7ubLoZUR+vMkyJ1PMb95BtdkZbr8GHAwu6IhX88tf/rLTszAVr4vIqCk30TP9QrXj8TgHGPwiGQh7K9nBmzA4GOFvvPFGJ5FMYxiJt99+u9aryTSAMlFJREmdnToa4KBtpBqQ7mdnHtcwh8myL7/8MikVibdFjAep6izT/LaDgzgGXpfXICO0n4z0QGow14NBC8BNnebMPTy+eFMBXiBMCBy8DGExSonjuzES1DLPQOdpcDyQ8D9oJ+mGDCqnqjIdO9KSg37QPoJ5gMHZDwiJwUr+Ju2L1wf+4xky2MhVdTNETT/s4EC1PffcczoPxvxvztAB22PVqlWamfHoSP38j+TFA2L6wJRjzvSRlADmcrwAEO9+wuCgENwxRK8T9TQGQuNPQ/ji4mLdOSdx+c2BxADNzFpCECeTTOeOBjhgKNFUrzkabA9iHuRy0k5nH6ADTIHJzIwiMaAHjDDtdp7t4OBdPBdo5XwOOkAP0hrmzZvnmbxMm5AEzC5jBLupE8oCsGSmYRLEA4HXf0mBgwYxZU++qBdD0edIAzqHuEMfm4MQfEZGhp7cgvFuILMT7GiAA8Iy2sjLoH63fnAfO4oJNeI7uMCIevpBH5Cgd955p86piCcxTF/s4KB+AMKcEu+6gQqAwHAiwkgRpJ2hIWfmkF566SU9R+NmP1Ev5V544YW6rQwILwDEu58UOOgYjSPphRHmRlju0TA6yIF0gDjEKLDSucf/POf2viEo56MBDohBP/Au0tLSPAFq78NPfvITTWjUB7OsRlKYftjb7HZtB4dhBmDDEPdirp2O0A36UY6RtnY6OuvkXTvt6K+pN5lzUuAwBePTk/PgJs6cDTVETpSQ9vftHTwSQTDTfs6MJlIGWUsDoe31Oq9NH+IxxPmO/bcbOJDCJEOhwig33kCxA4W22Mt2XvMsUg/1j8Sx9znZ626BAyRiVxzJBGNnJ/mdCDjwlBKNkDqJg3jHO0DHx2OOW9uSuecGDtoCHYkOMy1ASmAyZbo9Sx+Q6KhD7JruSgxDp26DA8JiU5CZRdqel/5264T9HiOBaW03KcTsJbkIjPIDBw7oYI79Xa4Bx/PPP9+t2UyIgNGJ/mdyzMsGcNbp/A1TYC59cBvZXuCgftQLXhuGJTPDXUkRZ938pn7ojy1Iris2VU+BQdu6BQ6DLBqAgYb1T5QU4hjRC5FotNvBfxwwA2sfG+aaa65pIwzv8D/Bou3bt2sDjsVTGGjOcolNwFzAatrVnTOGJ9P5xECMTeHWdnPP9IFnaSdJzDfccIPug5OB8cBBW6EjKsasGIQuho6mPrczbeA56E7yNoGwZGIkXdGpR+AwHUN/YodgWeNzI6YZ0XSSAwJycE0sASMMUbpgwQI9IcTCHlxHwr/8z7NIE6SSiexBQEDINL4pk2fJFmM6v6cjBemEjgaMgBVbxPSB9sAE0w/TBxKMWRDFhBnMjTcrayKkXgwB3PSV2VOSq4m3II2oy/TX1M9v2sZSSJaIMCtOZBU+9JQO9vb1GBymMBpF45AkuFq4rGRHMZ1uDvINli1bpkPt6EQ7yhHv+O3ML/A83gRl2SUCnhIjnFGKQUzuJGl33XXVaDPlczZE5TeuK+USDGMuhPbABIDP8gAkVV5entbrtAkaEAOiXTAuWclhaGjO0AKgEmAj3A/dyDslhsTM76uvvqpzP5hMI4ZB/037TRlH4nzEwGEaYwhOg70OGGCY4vWe83+ecyub50wZyZxpG6oKpnK2l+NWj7MvPG9vI3qeFXhu4EAdAvRE22fqp3xnvfbf9voTLTuZ5444OJKp/Fg8C+ER32RdYdWzgMqIZiQGBE+2XZTJjO4ll1zSyebALmB5IkxNttxj/fxXDhwwCfeRABiMMyoAFxCbBtWYLFN4h8RlN4+LckkNTLbMVHj+KwcOpAPrWDHu8AAMOPjN8kniN0iCRJmDpEGl4G3Zy6Ncfv/gBz/Qdlai5aXSc185cGDAsQreyUiYySjH6MSz6Eq9ACAOjEfWpCI1DNDMGclEuL07ORqpAJKvHDhgJta+U3KYkQ6TmZRDGsQDCOoJIxMPhUiuXUUZcOBuknnGDG4qMDvZNnzlwAHDcUOvvvrqTsajYSpxGAJaxC9wVQEUDObgGhccV/u8887rlCxsQAZY2N6KGE48kCXLsN58/isHDogLs5AeMM8Awn5G5RD0IgBF/iVrgFnxzsFmLyaHg2fc1BPAYG0Kwalk7JfeZHwidX0lwQFhsCvYEZCkGzcGGwkAAExE0kRM3VSIARf/USZRVhMgS4QRqfjMVxYcjGhW7RPjwBA1zO3JGZBhf1AmEeBUZHgybfrKggMioV6YE0GCYGd4qYlEAMO7TMChdpJ1h5NhWG8++5UGB4RGgjCPwhIIkxmGakAKeKkbwGL+51nUDqmR5IYwr9SbDDyadX3lwWEAgn3AZjLkhpCxjSTB3TVAMdIDUHCP/7BBAMUrr7yi3yWG0lc9EzeQnQCHbWN8pAgRVFIA2PKSfbvwVshUBwgcrLFBwvAfzyB1cG37slfiBgzunQCHDRxGijD6CXIxZ0Jsg4k6gmJ4OEgY7vEfz/Ds8QiME+BwAMNrBBnQxPv/ePzv/wFVXfIQ9FlDlQAAAABJRU5ErkJggg==;" vertex="1" parent="1">
          <mxGeometry x="396.86" y="290" width="23.14" height="30" as="geometry" />
        </mxCell>
        <mxCell id="k85vUh0XSUUEYJ-B9VRs-25" value="" style="shape=image;verticalLabelPosition=bottom;labelBackgroundColor=#ffffff;verticalAlign=top;aspect=fixed;imageAspect=0;image=data:image/png,iVBORw0KGgoAAAANSUhEUgAAAMAAAACmCAYAAACMcYBAAAAYbUlEQVR4Ae3dvc8tV3UG8NtHAsrIQoqQQiiCgowLkEITyiA3ocCVy1CFzgWUlgtocGkplEFy79J/gOXCrRUkS9C4cuXulif6vbBy99135szX3ufMmVnFaObMx5718Txrrb1nz5xnz58/v+SSNjgrBp6dVfHUO0kPA0mAzICnrgCSAEmAJECWA1kOnBUDmQEyA2QGOCv7U+/MfJkBMgNkBshImJHwrBjIDJAZIDPAWdmfemfmywyQGSAzQEbCjIRnxUBmgMwAmQHOyv7UOzNfZoDMAJkBMhJmJDwrBjIDZAbIDHBW9vfW+6uvvrr85S9/vnzxxReXP/3pfy+ffPLJ5aOPPnpp+eyzz56OOefLL7+8uKa3XNn+i4yfGaBRBvj666+fgA7gv/vdby+/+tV/Xd58883Lj3/8o8t3v/uPl9de+/vLt7/92uU73/mHlxb7HPv+9//58tOf/tvlrbd+cXnnnXcu77//+8vHH3/8RAhtJ2hfgLalLZIAGwkApO++++4TeAEZwL/3vX96AvQPfvAvF8sPf/j6rCXORwZtIIfl5z//j8sHH3zwlEFaOj/bylciV0VWpYwIXwJ+CdDnEiLO0zZCRKaQHT7//PNVsifoX84kmQFmZgD1+YcffvgU6SPCB0BvuQ4yWL/99tuZFWb6b4z4SYAJA+qU/uEP//0EfOVNz0i/lEhKJf2LX/7yP5MIE35MAqwwkPpex3RvwK+JgghkRASjTWPOzv0vlz/skRlggBjqa+WFmntPEb8Gfv0bEb71rW8+jULlyNGrYB8KAEmAigDKnXvW+DWo1/xWFslcOutDTs99L8iRBPgbAdT6SgjgeaSoP0YQOlgMnybgXwC+tkUS4Pnzi6exIqbIPwaoR9yPAPoGhmyzJBomwekJ4Mmt2tnyiCCfIzNi/+xn//401aKOgGf/fWoCqPc9aT1CyTNFBASnp2x3dtCX+p+WAB5qKQ+mgHOk4whgblKS4EU5dEoCAL/O7pHAPVcXJLDkVIq/kuB0BFDzH2WkZy7o6/MQ4Cc/+dfsE5ztQZhx8aiFa1Cc7Tc7mK599vcPTpMBTGZL8L88LdvokGcfZafwbNunIYAXTRDgbJF+Sl8kOPPDslMQgIPPNuIzBfzyONucdWTo8AT49NNPdwP+GIEp1yUQ77VNHk/Cz1b+0PfQBPD43+uE9yh9gMp9lRgirFmaAG4c3lNZgLPt2K3eLLtGMCNj3mU+GwkOTQClz63H+wEfqK3NwSGD0SedcIQcWnwRwvDse++99/RSPNJYtHENtK2PuefZSqHDEgDgRNhbgch9AEjG+eMf/+fpcyhroimCeEiFDLLELZ9ZyFhIu0buR73msATwpQaAbB0lh9oDUmWNKA7ArcBgjF4GCXIN3bv1Prqc6T2CQxJA9I+auzVAyvZETPW7iN8K9EPt0Me3gujUO6PRyZDxkBxH3HdIAujM9Y7+2geUW76D6x1lALWURGy9TbezZIHDEUDZIEr2jJTKBBH5HtMIdFKVWz1JoO2zPCE+HAF6T3MGfhmmZa2/tLSQdXqTQGmn9Foq26OdfygCAKWvOfSKjkqDvURGQ6dmdPbKdIjuhaFHA/RSeQ9FAMOHxuBb18TaQ6q9dQ5lgl5vtCGWLHPPTLcUzGvOPxQBej34AgbRVtRdY+Se1xh67UV6ZdDRX5w5FAFE6B4lgXIA0HoCeUvbHl71GPWit6CyRba9X3sYAigHejz5Vfrs/eloT931eY5cBh2GAMate5QCyoAW82OAiIxGqWKRVVqVGD3KP9lUUPEvN3uP5GvlOwwB1OdvvPH6UykgardYEGpr9CdXTMtQpigrysU+/QsjLlsirSHLHqNCOtktAsBagPa+7jAEYCgR1gMqoG2xAO4WUJoiIYJO1eciLbJ5R3cL2Eygm7rX0hEy7R25H3AoAvSOFkvaB0agXtIpl7UA1JSHJfeKc5FHxF4K8mvnk0lQiXscbZ0EqL4O3cLBIuZaICKMRcd2qSyyVesyiCx7e/6x1C7Xzk8CNCaAKLx1JirQKZ2uOW7sWOsyiCweiN1j3tOYji33JwEaEkAENmwYpcy10mLqmI6y0aKlzm79YAwB9voQcKlths5PAjQkgLKl1VBsRN4hp13b5yMAa8uvMVKSZUvn/Jq89z6WBGhIAEOZIvcYkJbuV0otnZHpfM8ult7r2vkyWhKgIVDuzfpe9zda0qL8CTDKJmumYHzjG3/XlACGQmWWXna7Z7uZARoS27OHlgSQTda8btmaAEqqo74hlgRIAkxmiyRAQ5DcM931vnfrDLCXEogcmQGSBJM18Pvv/77pVIQ18/ENxW59DhF9kFjnKFCCfxL8souRklYjMEBnWZq1zC5tPQyao0BJgFlAFH19GQ5wI3quXesAr5mE1utB2JqpGUvJe4/zsxPcmNwmsm3NAghkavfSZwAA1LoMI4tPNK6R5R6AXnrPJEBjAnCAzvCWB2JrO7/u3SoDReZCAG0uBdajnJ8E6EAApZAZlIAcQJqzBjYd2DWlD8B5+WZr9qnlVP/v5VMwPUh1KAJI0yaQmZLQYlnzFDachAS/+c2vnzqkUw/HAN/TVsuWeyKONmoQb/mtPWVV6HW09WEIAPzeqDICovxosYjGW52vT+BjXSEPMpRLZAll05bPrpiubNoyMm0BfH0te659QecRyHIYAnhQ03r4DxgAdOtL4bKBIVJZCdCVFBYZQsTfAvwAWevRnyACQm3VP2Tc4/owBACw1tEPCJQA3g3eo/NCJtHfSE1r/bWnL4PAca+jrQ9DAE5SArUGARIoX/Y8FcDHeskYUbvV+uj1PzIfhgCUaf06YABJzW4ocI+R0DTl1h3f0NuI0lGnQUcmOxQBOCs6leHEVmsg29vXEXqVPmwmk3oVco+kD/C2WB+KAADRqwwCCuTSkW1h+K1tAKaOdK/or90z/G3qoQgAVMbCe9TDkUkMjW4Zq98KfNcH+HvredTXIEsfHI4Angf0KoOCBIZbtz4fKJ2wZFuW81yhV+SP8sczhSVyPeq5hyMARxhfn3r6GmBeuwZA9wHIWznfVGfA7K2bzHLkh1+lvw5JgJbz8q8RBAkAsnepoOQxxYMsvcGv80uno3d+gwSHJADlDFv2BgtAAozhQg/Lejwx9fwhJtb1eMZRE1z5uOaDXAGoR1sflgDKhVsQIAAkGyCCodKtGUFZpQQRibV5Kz3c5+hPfmuCHpYAFBWVe46UBPjLNRBZgNcwomcTMsO1voKOuzeujC6ZK2RaA0LdIuKXsov+Z6n9gwiHJgDg9ZgjU4JmbBt4gdiIkQdKSjLj9gBeLkZ0kEU7AIg8twa+e5N1bw/6AqQ914cmAMOpZ3vMEh0D/tB+gLZEdqjX9wB8Kaf7I4BM1BNse2z78ARgdJGNg0un5/br/28PmefeD/fuRY5TEED93fqPI45CoLOWPkG4UxCAsjFr8t7lxp6IoxTTN7nWQQ+gHHV9GgJwoA/NZin019JHIPAvNK3+pvVRCXIqAnCSodF7d4r3kAXYYM8v+dyKUKcjAMManz8zCcxoPdt4/xihTkmAs5IghjvPOuIzRILTEoAxzOa89ZPie5U/wK/Te6Z5PkOAr/edmgCMoRwyDn4vYN7ivhH5s+x5/sqDvtMTAAlERZPOAOUWgLzlPYx6Ge056ted64i+9HcS4G/fBjWDMyah3RKgve6FzDKb+UdnHuefIkQSoPg4LqCYNqFf8MjZQK1P/jV/sDcFmKMdTwIUBAjnGiV5xGwA9MhrhunWdxLCFkdfJwEGCMDpsoGHZv5yVETtVaq0aDeAT86M+q92dK+ROAkwQoAwmg/Xmr/vwdneplEE8JHI52DO8h5v+KbFOgkwQYAwspJCRhBl79lHAHoy6OB6kQbws5O7LOqHT62TADMJEEaTEYDOLEoZwQKULUqZa224B9Ab0lTj66ck8NcDP/yZBFhIgDCccsMUaw/SvGuACDJDC0JElI/2RHyEU9/neP520IcPrZMAKwlQGtG2acWisi9Uxz/VeLim7yByB5gja8TafotznGuiGgKI8jKNp7cZ6duCvvRdEqARAUqjxraX8k05RgzRG6B9UjEW2cPHdh1zjn5Ggr0f2MMv5ToJ0JEApaFz+7bAnmvvJEAS4JUJYnPBc4TzkgBJgCTAEZicOuyzxNi7XzIDZAbIDLB3lqZ8Gd17YSAzQGaAzAC92JXtZuTeOwYyA2QGyAywd5amfJlJemEgM0BmgMwAvdiV7Wbk3jsGMgPcOQPEtGqT5iz5Lu/1oGHSoBeBvKpqRq0JhVsmED4MAUw3NpuSwkf6orH5/aZAx/ToN954vcu/Te49Es+Rzyxa08bjBaR4ScjU8bUkeAgCALw3oWJevfVRvnKGAN4b8DZYOLbH363OAdiez/EmnkAx9NYcPCDHGvkfggC+4SlChvLekPLBpyO8BF4TIDPAcAnk632AHhgo1wKHsuiwBPA6INCH0hT21tXatLfGUL2uSQIMA762txeHvDkXGCjXhycA5b0uSFGLbV9oqI30iL+TAPMIoOSNUrEEv23BUT9gjf8fogSimHdtfa1NieA7PUeI/vRKAswjAFvxf1kJAL+AqDxe2yd8GAIwgM6hzpDtoyxJgPm+5Hulb3xEIPoEW76G91AEOAroSz2SAPMJEHbzvETEt2wdMWtKAGUJoYzV67j6Xo6hK2nLti8v680vHcc32hMPikL5ugSKLzDE8bERIg+a9CnUjIZW544m+Rd1uhmRMuKgFPMwJjpg9ntIszRDtSJAbXu6xfMFpYOycY3tA3Rz12FfdnVfUVrtzv9sbriSj+a2V54XGPA9plhiX42H8rpr200IABxAHx+IUpNFhzU6LH4jgvRl+623fjHbEEAFcNrVBuDVT0wZnLGdw+BAXioOvDGaRAbtWICZ/OW55TayAg9AxXWlbrEdutHX+bV8ZZvl9lYCkD36R3Sfa3v2KOXYsi3YIH9tX7ap/R8ysjsfLQEuH7g+fBfrITzM1WczAUQVwA9gh8JTa8IDrKxwDYAUQQD3CIMaBaoBxvhxnCxBAAY2YuRe7lnK5XyOGHICp4pWzglQldeObTs/HDPnMf0WAoTtl8hH7rA9om4tIfhBZI/gMGaXej878Ymafi4ZSwyU7Q3hoTsBAETapwRlSoECNIwSjB8zkOMUqwFdKrCWAGSUachYyxcgkKZrAvrNqXN0o5eltoH72e/+10C2hgD0QuoYGq51Y1P3jrXtmvyuCdsrJ0p7z90GXDIMtV3KdG2b3ZRqEbCu3Xs3BBgDFkMwCFCJftIiI1n01KNMqQHDCK4dI8FSAnCs6A18tsMB7hOgiZq9rkeBn/zlda4nn9JKxDInKXSz5jz7HR+6zrU1ycLRawgQdgy9Qj66KRPoHvKVtnd8yPb213YI+cbWss/Y1IRSrrnb2iL32P3s3w0BlC21o0VLjpmKJsoNAAIKSxgIOAEI2GsjLCWANrVnifY5firdIraSqJbLtQgDrLVs5W9yRrlV3lt7SDVUai0lgLKFPKGXddh+CsRhe7LVOrL9lH6hK1LVMpTyrN2mB2zEfer1LgiA+SJGKMmYyGB/LfC134wdnaZoi1PsA8Ty2jUEiDatOUtHsW63vIdt4C2JTTdG5/D63Gu/AdF1JcjIoP36uiUEENUBNXRba3sl2Zjth0hayswXyOzeIUe9dozuUUL6bZttp65zfIzIdyeANC7FlkpQlGNKI83dZuw64iJX/WBjCwEY/VpUCVmVXzW46LZ0yDbac10NFCSoyTSXAGwFaKXt6bbF9krEkqRAOlWLD2X/kgDagxEZE5DZwcK+Spyh8rK+HibCjuX67gSgQJn65hisVGBoWzQyxAl8wK8WrLPAWgIACIcN3bfep7QoweDasUhUXzv2WzkYetHNcJ37lOfPJUBte36YQ+zyXvV29HeCVNZANtZf4YfS/yVwbcODMnjsevdHZNnYufX18XsoULj2rgSojQUslK2NuuY3owAbwFjXoyZrCMCZY3V3LaP2y+jPAZxUn7fmN11CN/rVZdgcArBPmU3Y3ijVGnnqa2SkEoy26wwc19QlYgDWms2GSry4tl7LNIJM2UZs853+Wn3NXQnAibWhpjq8tQJrf68hAIdMpfOQRyR1PgdEFHTPON5zPYcAbF/2u8hqXyu5BLLIftZKo6G2HWOfAGqs1xIyMoE260UlUAfCuxKAsMFYwjJSHc2GjNZi31oCiJxz7l8DYG7ZNKftqXPmEMCQcml70dF1svLWhY3KaMy3avi6jFHHl1kywG+NkGuCIYArd9X8dCrXwF4Pi9+VAGWHiTM4Zcq5rY4vJUAQdM79OZrhXRPOXDqiNec+Y+fMIUBJUDKSVUYAyBZLkCtALaLXgNbZLiuAODdsvTYYug4Jh5baZnclwD1BspQAHDq3hheFSsMClmhXG7/X7zkEECWDoAG8nmsRvR6t0i+IMrG89y2DYemnUgY+q7PFXH/NngtUEkAkqA0094ZrzltKAI6aW/8DewkuEbVO/2tknnvNFAFExtL2peN7bQNUPbxqFKrOFO5v39bRqLm22hUBagPNVWLNeT0JAICGYYMECFB3vtbIPPeaKQIoEdTHIR/Qhbz29ViGMoCAMpYBkGOuvlvO2w0Bbsl6ButJANG+HGIU/VqOsEw5fIoArjfkqS4HfmvDjWwie/Va6pp+rAQiT/1sY0rntcfvSoDyQRGlbzlS0pMAHK2DHxEWuW8V0QBhDgHYuiTArQBXArUeio3yi92GRo3Ka69tG3BQQskw5WJfXYrelQAELUcBOKQW8JqiW471JAC5PLaP+pZD6yfRW2SfunYOAUrbR8nDJlNttzwuUCgPlV8B/lgrjdaMCupHejru+np59uzZKyNRdyVAdBYjUhL4VpGyNwE4QulTOvRWnfw5BKB/2J2MyLoGcFsJUQ/Hhr2sybfEZnQqS8+6LQG2lveuBCBMaQAKS32IUQu69DdnSuux1MTqTQAjLaUz6Gbkpa6Dl+qlXfV66MV+9TSDOQRwX21EGUQ+kXjt0F+ph1Ij5LO+RiwDHwJfCdbYJpNlTv+Jzjr2oU+0EeuxMvTuBKgjJQWUCxxdGnXJtrpPaaUti21AKdvoTQD3AsyyxOOEWo5SpjnbwC+zhG5KiJrccwkA7K4PkGgTSXvbvtZT0AP0kKNc28+GSMRn9bVKZv52HvnLa8ttJGOX+vq7E4BAokTUy4S2vdYRAf5SeQasjXcLAtCtzAJk4gj61o6Y81vHtYyWnK79GrBzCeCe2ixtD0TaXNMXE/lLwoe+UxldEKyvK/1nm4yITzZBhA1FfPvYZIxArtV2HSTC3rsgAAcStFQi2Dy3BuR0RqkNKcINTUO4FQE4n0ylbpwpy9VTA8Ip9Vqk5uwSqOzF+UNtLCGAkoxspXxsLyrPfS7Dlog01/a1fn7LbPX1dKwXcpLPUspcnxe/2cyQ71jpuQsCMABH1o4IZSmgnPAwSWRCGItt1xlx4bAaICIDxwwZ/FYEcG9Aqh0Wv0Uzx2vd/EZ+pA47hFOtgX+I2O63hADORzD2I1Pcwz3Z03CurDokn9qc7YGotj0wA/WQ7Yf28SdblBkuZFm7po+MwddD97RvNwQgDIfXjqA8RRiGkZVGsTgXEAJMpaGcOwZ+97olAdwPWMkEWKWcZAcW69ArOnOxvzw/gAmU2h1alhJAGwIJMJCjvh/bW8hHNss12zsXMYZku7avJQnYGvinyq9dEYBxCMzQnF+DhWPsK5fSWbY5UNlzDSDuc2sCuKeIyTEAUstd6zZ03LWWqdJkDQHC9kCz1fb6AtpbuyAPH9ZkHLJJvQ82BEWZC6GmZNgdAUJgJQ9lIgrarpWN344BhhcelAzSdbQztgYS17uOoYe+BCbSAWuQaqtjQxYjGu4bbY/pZr97O48dXDfHqYIIfVzrPpZrZUDIFWu2F+GX2l7GZddoZ8tasFD6IgL5x2zEh2EnwEfgqQBRymXoV/tsFYvfQ3gor7u2PXs26LVGHONspQNQU4yCnBJLRAlsB44lxtcpMjIg2sRSg4shHVPLWg91OKd0GDsew3ecDGx0Cb2s/eYcxxFvDqnjXtoOmclNz7FOYFxTr0vbi5JkKu1PPsDTmWf7qVKjbn/ub/0TOkRZWMoQ27CBfEropXoie/iYzcJupr6z41w5y/OaEaBslDCiGCUB05rR7VuqdNnuvbfJDtx0Cd3oh8z270G32vbkA0zy1UGjlz3dh6/d1/0tsoR9a4HaS9YuBOglbLa7vlZP2w3bLgmwoQOYoBoG1SPZJQmQBFhVOz8SyK/JmgRIAiQBrjEkjz1+mk8fjvswM0BmgMwAGSHGI0Ta5ti2+T94N3HTQyQv0AAAAABJRU5ErkJggg==;" vertex="1" parent="1">
          <mxGeometry x="389.93" y="237" width="30.07" height="26" as="geometry" />
        </mxCell>
        <mxCell id="k85vUh0XSUUEYJ-B9VRs-26" value="" style="shape=image;verticalLabelPosition=bottom;labelBackgroundColor=#ffffff;verticalAlign=top;aspect=fixed;imageAspect=0;image=data:image/png,iVBORw0KGgoAAAANSUhEUgAAAMAAAACmCAYAAACMcYBAAAAYbUlEQVR4Ae3dvc8tV3UG8NtHAsrIQoqQQiiCgowLkEITyiA3ocCVy1CFzgWUlgtocGkplEFy79J/gOXCrRUkS9C4cuXulif6vbBy99135szX3ufMmVnFaObMx5718Txrrb1nz5xnz58/v+SSNjgrBp6dVfHUO0kPA0mAzICnrgCSAEmAJECWA1kOnBUDmQEyA2QGOCv7U+/MfJkBMgNkBshImJHwrBjIDJAZIDPAWdmfemfmywyQGSAzQEbCjIRnxUBmgMwAmQHOyv7UOzNfZoDMAJkBMhJmJDwrBjIDZAbIDHBW9vfW+6uvvrr85S9/vnzxxReXP/3pfy+ffPLJ5aOPPnpp+eyzz56OOefLL7+8uKa3XNn+i4yfGaBRBvj666+fgA7gv/vdby+/+tV/Xd58883Lj3/8o8t3v/uPl9de+/vLt7/92uU73/mHlxb7HPv+9//58tOf/tvlrbd+cXnnnXcu77//+8vHH3/8RAhtJ2hfgLalLZIAGwkApO++++4TeAEZwL/3vX96AvQPfvAvF8sPf/j6rCXORwZtIIfl5z//j8sHH3zwlEFaOj/bylciV0VWpYwIXwJ+CdDnEiLO0zZCRKaQHT7//PNVsifoX84kmQFmZgD1+YcffvgU6SPCB0BvuQ4yWL/99tuZFWb6b4z4SYAJA+qU/uEP//0EfOVNz0i/lEhKJf2LX/7yP5MIE35MAqwwkPpex3RvwK+JgghkRASjTWPOzv0vlz/skRlggBjqa+WFmntPEb8Gfv0bEb71rW8+jULlyNGrYB8KAEmAigDKnXvW+DWo1/xWFslcOutDTs99L8iRBPgbAdT6SgjgeaSoP0YQOlgMnybgXwC+tkUS4Pnzi6exIqbIPwaoR9yPAPoGhmyzJBomwekJ4Mmt2tnyiCCfIzNi/+xn//401aKOgGf/fWoCqPc9aT1CyTNFBASnp2x3dtCX+p+WAB5qKQ+mgHOk4whgblKS4EU5dEoCAL/O7pHAPVcXJLDkVIq/kuB0BFDzH2WkZy7o6/MQ4Cc/+dfsE5ztQZhx8aiFa1Cc7Tc7mK599vcPTpMBTGZL8L88LdvokGcfZafwbNunIYAXTRDgbJF+Sl8kOPPDslMQgIPPNuIzBfzyONucdWTo8AT49NNPdwP+GIEp1yUQ77VNHk/Cz1b+0PfQBPD43+uE9yh9gMp9lRgirFmaAG4c3lNZgLPt2K3eLLtGMCNj3mU+GwkOTQClz63H+wEfqK3NwSGD0SedcIQcWnwRwvDse++99/RSPNJYtHENtK2PuefZSqHDEgDgRNhbgch9AEjG+eMf/+fpcyhroimCeEiFDLLELZ9ZyFhIu0buR73msATwpQaAbB0lh9oDUmWNKA7ArcBgjF4GCXIN3bv1Prqc6T2CQxJA9I+auzVAyvZETPW7iN8K9EPt0Me3gujUO6PRyZDxkBxH3HdIAujM9Y7+2geUW76D6x1lALWURGy9TbezZIHDEUDZIEr2jJTKBBH5HtMIdFKVWz1JoO2zPCE+HAF6T3MGfhmmZa2/tLSQdXqTQGmn9Foq26OdfygCAKWvOfSKjkqDvURGQ6dmdPbKdIjuhaFHA/RSeQ9FAMOHxuBb18TaQ6q9dQ5lgl5vtCGWLHPPTLcUzGvOPxQBej34AgbRVtRdY+Se1xh67UV6ZdDRX5w5FAFE6B4lgXIA0HoCeUvbHl71GPWit6CyRba9X3sYAigHejz5Vfrs/eloT931eY5cBh2GAMate5QCyoAW82OAiIxGqWKRVVqVGD3KP9lUUPEvN3uP5GvlOwwB1OdvvPH6UykgardYEGpr9CdXTMtQpigrysU+/QsjLlsirSHLHqNCOtktAsBagPa+7jAEYCgR1gMqoG2xAO4WUJoiIYJO1eciLbJ5R3cL2Eygm7rX0hEy7R25H3AoAvSOFkvaB0agXtIpl7UA1JSHJfeKc5FHxF4K8mvnk0lQiXscbZ0EqL4O3cLBIuZaICKMRcd2qSyyVesyiCx7e/6x1C7Xzk8CNCaAKLx1JirQKZ2uOW7sWOsyiCweiN1j3tOYji33JwEaEkAENmwYpcy10mLqmI6y0aKlzm79YAwB9voQcKlths5PAjQkgLKl1VBsRN4hp13b5yMAa8uvMVKSZUvn/Jq89z6WBGhIAEOZIvcYkJbuV0otnZHpfM8ult7r2vkyWhKgIVDuzfpe9zda0qL8CTDKJmumYHzjG3/XlACGQmWWXna7Z7uZARoS27OHlgSQTda8btmaAEqqo74hlgRIAkxmiyRAQ5DcM931vnfrDLCXEogcmQGSBJM18Pvv/77pVIQ18/ENxW59DhF9kFjnKFCCfxL8souRklYjMEBnWZq1zC5tPQyao0BJgFlAFH19GQ5wI3quXesAr5mE1utB2JqpGUvJe4/zsxPcmNwmsm3NAghkavfSZwAA1LoMI4tPNK6R5R6AXnrPJEBjAnCAzvCWB2JrO7/u3SoDReZCAG0uBdajnJ8E6EAApZAZlIAcQJqzBjYd2DWlD8B5+WZr9qnlVP/v5VMwPUh1KAJI0yaQmZLQYlnzFDachAS/+c2vnzqkUw/HAN/TVsuWeyKONmoQb/mtPWVV6HW09WEIAPzeqDICovxosYjGW52vT+BjXSEPMpRLZAll05bPrpiubNoyMm0BfH0te659QecRyHIYAnhQ03r4DxgAdOtL4bKBIVJZCdCVFBYZQsTfAvwAWevRnyACQm3VP2Tc4/owBACw1tEPCJQA3g3eo/NCJtHfSE1r/bWnL4PAca+jrQ9DAE5SArUGARIoX/Y8FcDHeskYUbvV+uj1PzIfhgCUaf06YABJzW4ocI+R0DTl1h3f0NuI0lGnQUcmOxQBOCs6leHEVmsg29vXEXqVPmwmk3oVco+kD/C2WB+KAADRqwwCCuTSkW1h+K1tAKaOdK/or90z/G3qoQgAVMbCe9TDkUkMjW4Zq98KfNcH+HvredTXIEsfHI4Angf0KoOCBIZbtz4fKJ2wZFuW81yhV+SP8sczhSVyPeq5hyMARxhfn3r6GmBeuwZA9wHIWznfVGfA7K2bzHLkh1+lvw5JgJbz8q8RBAkAsnepoOQxxYMsvcGv80uno3d+gwSHJADlDFv2BgtAAozhQg/Lejwx9fwhJtb1eMZRE1z5uOaDXAGoR1sflgDKhVsQIAAkGyCCodKtGUFZpQQRibV5Kz3c5+hPfmuCHpYAFBWVe46UBPjLNRBZgNcwomcTMsO1voKOuzeujC6ZK2RaA0LdIuKXsov+Z6n9gwiHJgDg9ZgjU4JmbBt4gdiIkQdKSjLj9gBeLkZ0kEU7AIg8twa+e5N1bw/6AqQ914cmAMOpZ3vMEh0D/tB+gLZEdqjX9wB8Kaf7I4BM1BNse2z78ARgdJGNg0un5/br/28PmefeD/fuRY5TEED93fqPI45CoLOWPkG4UxCAsjFr8t7lxp6IoxTTN7nWQQ+gHHV9GgJwoA/NZin019JHIPAvNK3+pvVRCXIqAnCSodF7d4r3kAXYYM8v+dyKUKcjAMManz8zCcxoPdt4/xihTkmAs5IghjvPOuIzRILTEoAxzOa89ZPie5U/wK/Te6Z5PkOAr/edmgCMoRwyDn4vYN7ivhH5s+x5/sqDvtMTAAlERZPOAOUWgLzlPYx6Ge056ted64i+9HcS4G/fBjWDMyah3RKgve6FzDKb+UdnHuefIkQSoPg4LqCYNqFf8MjZQK1P/jV/sDcFmKMdTwIUBAjnGiV5xGwA9MhrhunWdxLCFkdfJwEGCMDpsoGHZv5yVETtVaq0aDeAT86M+q92dK+ROAkwQoAwmg/Xmr/vwdneplEE8JHI52DO8h5v+KbFOgkwQYAwspJCRhBl79lHAHoy6OB6kQbws5O7LOqHT62TADMJEEaTEYDOLEoZwQKULUqZa224B9Ab0lTj66ck8NcDP/yZBFhIgDCccsMUaw/SvGuACDJDC0JElI/2RHyEU9/neP520IcPrZMAKwlQGtG2acWisi9Uxz/VeLim7yByB5gja8TafotznGuiGgKI8jKNp7cZ6duCvvRdEqARAUqjxraX8k05RgzRG6B9UjEW2cPHdh1zjn5Ggr0f2MMv5ToJ0JEApaFz+7bAnmvvJEAS4JUJYnPBc4TzkgBJgCTAEZicOuyzxNi7XzIDZAbIDLB3lqZ8Gd17YSAzQGaAzAC92JXtZuTeOwYyA2QGyAywd5amfJlJemEgM0BmgMwAvdiV7Wbk3jsGMgPcOQPEtGqT5iz5Lu/1oGHSoBeBvKpqRq0JhVsmED4MAUw3NpuSwkf6orH5/aZAx/ToN954vcu/Te49Es+Rzyxa08bjBaR4ScjU8bUkeAgCALw3oWJevfVRvnKGAN4b8DZYOLbH363OAdiez/EmnkAx9NYcPCDHGvkfggC+4SlChvLekPLBpyO8BF4TIDPAcAnk632AHhgo1wKHsuiwBPA6INCH0hT21tXatLfGUL2uSQIMA762txeHvDkXGCjXhycA5b0uSFGLbV9oqI30iL+TAPMIoOSNUrEEv23BUT9gjf8fogSimHdtfa1NieA7PUeI/vRKAswjAFvxf1kJAL+AqDxe2yd8GAIwgM6hzpDtoyxJgPm+5Hulb3xEIPoEW76G91AEOAroSz2SAPMJEHbzvETEt2wdMWtKAGUJoYzV67j6Xo6hK2nLti8v680vHcc32hMPikL5ugSKLzDE8bERIg+a9CnUjIZW544m+Rd1uhmRMuKgFPMwJjpg9ntIszRDtSJAbXu6xfMFpYOycY3tA3Rz12FfdnVfUVrtzv9sbriSj+a2V54XGPA9plhiX42H8rpr200IABxAHx+IUpNFhzU6LH4jgvRl+623fjHbEEAFcNrVBuDVT0wZnLGdw+BAXioOvDGaRAbtWICZ/OW55TayAg9AxXWlbrEdutHX+bV8ZZvl9lYCkD36R3Sfa3v2KOXYsi3YIH9tX7ap/R8ysjsfLQEuH7g+fBfrITzM1WczAUQVwA9gh8JTa8IDrKxwDYAUQQD3CIMaBaoBxvhxnCxBAAY2YuRe7lnK5XyOGHICp4pWzglQldeObTs/HDPnMf0WAoTtl8hH7rA9om4tIfhBZI/gMGaXej878Ymafi4ZSwyU7Q3hoTsBAETapwRlSoECNIwSjB8zkOMUqwFdKrCWAGSUachYyxcgkKZrAvrNqXN0o5eltoH72e/+10C2hgD0QuoYGq51Y1P3jrXtmvyuCdsrJ0p7z90GXDIMtV3KdG2b3ZRqEbCu3Xs3BBgDFkMwCFCJftIiI1n01KNMqQHDCK4dI8FSAnCs6A18tsMB7hOgiZq9rkeBn/zlda4nn9JKxDInKXSz5jz7HR+6zrU1ycLRawgQdgy9Qj66KRPoHvKVtnd8yPb213YI+cbWss/Y1IRSrrnb2iL32P3s3w0BlC21o0VLjpmKJsoNAAIKSxgIOAEI2GsjLCWANrVnifY5firdIraSqJbLtQgDrLVs5W9yRrlV3lt7SDVUai0lgLKFPKGXddh+CsRhe7LVOrL9lH6hK1LVMpTyrN2mB2zEfer1LgiA+SJGKMmYyGB/LfC134wdnaZoi1PsA8Ty2jUEiDatOUtHsW63vIdt4C2JTTdG5/D63Gu/AdF1JcjIoP36uiUEENUBNXRba3sl2Zjth0hayswXyOzeIUe9dozuUUL6bZttp65zfIzIdyeANC7FlkpQlGNKI83dZuw64iJX/WBjCwEY/VpUCVmVXzW46LZ0yDbac10NFCSoyTSXAGwFaKXt6bbF9krEkqRAOlWLD2X/kgDagxEZE5DZwcK+Spyh8rK+HibCjuX67gSgQJn65hisVGBoWzQyxAl8wK8WrLPAWgIACIcN3bfep7QoweDasUhUXzv2WzkYetHNcJ37lOfPJUBte36YQ+zyXvV29HeCVNZANtZf4YfS/yVwbcODMnjsevdHZNnYufX18XsoULj2rgSojQUslK2NuuY3owAbwFjXoyZrCMCZY3V3LaP2y+jPAZxUn7fmN11CN/rVZdgcArBPmU3Y3ijVGnnqa2SkEoy26wwc19QlYgDWms2GSry4tl7LNIJM2UZs853+Wn3NXQnAibWhpjq8tQJrf68hAIdMpfOQRyR1PgdEFHTPON5zPYcAbF/2u8hqXyu5BLLIftZKo6G2HWOfAGqs1xIyMoE260UlUAfCuxKAsMFYwjJSHc2GjNZi31oCiJxz7l8DYG7ZNKftqXPmEMCQcml70dF1svLWhY3KaMy3avi6jFHHl1kywG+NkGuCIYArd9X8dCrXwF4Pi9+VAGWHiTM4Zcq5rY4vJUAQdM79OZrhXRPOXDqiNec+Y+fMIUBJUDKSVUYAyBZLkCtALaLXgNbZLiuAODdsvTYYug4Jh5baZnclwD1BspQAHDq3hheFSsMClmhXG7/X7zkEECWDoAG8nmsRvR6t0i+IMrG89y2DYemnUgY+q7PFXH/NngtUEkAkqA0094ZrzltKAI6aW/8DewkuEbVO/2tknnvNFAFExtL2peN7bQNUPbxqFKrOFO5v39bRqLm22hUBagPNVWLNeT0JAICGYYMECFB3vtbIPPeaKQIoEdTHIR/Qhbz29ViGMoCAMpYBkGOuvlvO2w0Bbsl6ButJANG+HGIU/VqOsEw5fIoArjfkqS4HfmvDjWwie/Va6pp+rAQiT/1sY0rntcfvSoDyQRGlbzlS0pMAHK2DHxEWuW8V0QBhDgHYuiTArQBXArUeio3yi92GRo3Ka69tG3BQQskw5WJfXYrelQAELUcBOKQW8JqiW471JAC5PLaP+pZD6yfRW2SfunYOAUrbR8nDJlNttzwuUCgPlV8B/lgrjdaMCupHejru+np59uzZKyNRdyVAdBYjUhL4VpGyNwE4QulTOvRWnfw5BKB/2J2MyLoGcFsJUQ/Hhr2sybfEZnQqS8+6LQG2lveuBCBMaQAKS32IUQu69DdnSuux1MTqTQAjLaUz6Gbkpa6Dl+qlXfV66MV+9TSDOQRwX21EGUQ+kXjt0F+ph1Ij5LO+RiwDHwJfCdbYJpNlTv+Jzjr2oU+0EeuxMvTuBKgjJQWUCxxdGnXJtrpPaaUti21AKdvoTQD3AsyyxOOEWo5SpjnbwC+zhG5KiJrccwkA7K4PkGgTSXvbvtZT0AP0kKNc28+GSMRn9bVKZv52HvnLa8ttJGOX+vq7E4BAokTUy4S2vdYRAf5SeQasjXcLAtCtzAJk4gj61o6Y81vHtYyWnK79GrBzCeCe2ixtD0TaXNMXE/lLwoe+UxldEKyvK/1nm4yITzZBhA1FfPvYZIxArtV2HSTC3rsgAAcStFQi2Dy3BuR0RqkNKcINTUO4FQE4n0ylbpwpy9VTA8Ip9Vqk5uwSqOzF+UNtLCGAkoxspXxsLyrPfS7Dlog01/a1fn7LbPX1dKwXcpLPUspcnxe/2cyQ71jpuQsCMABH1o4IZSmgnPAwSWRCGItt1xlx4bAaICIDxwwZ/FYEcG9Aqh0Wv0Uzx2vd/EZ+pA47hFOtgX+I2O63hADORzD2I1Pcwz3Z03CurDokn9qc7YGotj0wA/WQ7Yf28SdblBkuZFm7po+MwddD97RvNwQgDIfXjqA8RRiGkZVGsTgXEAJMpaGcOwZ+97olAdwPWMkEWKWcZAcW69ArOnOxvzw/gAmU2h1alhJAGwIJMJCjvh/bW8hHNss12zsXMYZku7avJQnYGvinyq9dEYBxCMzQnF+DhWPsK5fSWbY5UNlzDSDuc2sCuKeIyTEAUstd6zZ03LWWqdJkDQHC9kCz1fb6AtpbuyAPH9ZkHLJJvQ82BEWZC6GmZNgdAUJgJQ9lIgrarpWN344BhhcelAzSdbQztgYS17uOoYe+BCbSAWuQaqtjQxYjGu4bbY/pZr97O48dXDfHqYIIfVzrPpZrZUDIFWu2F+GX2l7GZddoZ8tasFD6IgL5x2zEh2EnwEfgqQBRymXoV/tsFYvfQ3gor7u2PXs26LVGHONspQNQU4yCnBJLRAlsB44lxtcpMjIg2sRSg4shHVPLWg91OKd0GDsew3ecDGx0Cb2s/eYcxxFvDqnjXtoOmclNz7FOYFxTr0vbi5JkKu1PPsDTmWf7qVKjbn/ub/0TOkRZWMoQ27CBfEropXoie/iYzcJupr6z41w5y/OaEaBslDCiGCUB05rR7VuqdNnuvbfJDtx0Cd3oh8z270G32vbkA0zy1UGjlz3dh6/d1/0tsoR9a4HaS9YuBOglbLa7vlZP2w3bLgmwoQOYoBoG1SPZJQmQBFhVOz8SyK/JmgRIAiQBrjEkjz1+mk8fjvswM0BmgMwAGSHGI0Ta5ti2+T94N3HTQyQv0AAAAABJRU5ErkJggg==;" vertex="1" parent="1">
          <mxGeometry x="579.9300000000001" y="237" width="30.07" height="26" as="geometry" />
        </mxCell>
        <mxCell id="k85vUh0XSUUEYJ-B9VRs-27" value="" style="shape=image;verticalLabelPosition=bottom;labelBackgroundColor=#ffffff;verticalAlign=top;aspect=fixed;imageAspect=0;image=data:image/png,iVBORw0KGgoAAAANSUhEUgAAAKQAAABjCAYAAAAVWKtNAAANn0lEQVR4Ae2dW2wU1xmA56FQgpS3qk99QY16ScUDUVFVtW9RC22TVoqaNCqt2lKlVSuCCMb3S0mr2hQIamgdIIDiAk0aBC1417uzu7YJMbZZHDBgGxtzNbbxhZu52Dz+1X9mzux4vLNnLme8Z7zn4ejM9cx//v87/7nMP7uKUp0AmaQOhGFAGEFkw5COARmQQErvKBQDQgkjvaT0khJI6SGFYkAoYaSHlB5SAik9pFAMCCWM9JDSQ3IFslJ1qVC83u09vDxavp7rRn4qI83d3Mvr2mbdRm5kcHOtRU6uQFZh4SgMTZaHzfKAeA1WNtc1PM9RJenPxMZDGpCeG/s8n+m3LJNsjnTq93nW+3WdUT0ZMlD72uTG9dbyHOzzA0IXrjQGipNUFgWlrEm7dt6gTIBSo8uJjadKNzjZxn0HCptPWfFZKCOV0zA0bUwoL9YnILlrYqAUx0EpRVtFndkVZTQckwe5uFSGKqpShZd2t8OaD9Ls1JCGNQ1pWF3fpnsqD8K7MoQKSysSoJTEQSk6Roz4wpYkvFCXBJLjtsCJGLkkpsmODb5K70oRGqKHIMCMa3bUbeXErt+rb8/0PK7so9ufC5DYIhDKkhikLo1C/8hdx+lg+wC5T2vpPLpw6j2ogVStZZdF4bU9n0Ct2geHzw1BU/8YdF4Zh/SVcZLjtsgJ5f1v9w3Yql6AX+3vhKXlEb13SWm6J06Bb6PGBpy+PuHYlmj3evW85lW9wIj3cAESC6pAIKNwefw+PH36FGZmnpIct3Ol+IUhUDZhK0eQUKEUJI/KJV2GCkpNXDPUhgj8/mAnHOm+Dj1DE3D77kN4ND0DMyijLhvdFj1/Mv0Exu5NQf/wHYj3jkLxkS5Q3orA0vJGrZvEOnsFYc59KjxbnoDRB49z2s9q28Mne0AponJ4sCW3ChAgI66BjF24lakAluEXSBxvYRnFKVhRl4TDXddgcPQOoDGp8qZntAbjtNHQ+0TKsfHcGL8Hx8+PwOp3EqBswmGIBwDmgEgdwQID0qnxMkDSwTBViJccDZIiXdkv9rZBx+WxWSBSmahnpPthzrEun10dgzf+1aZD6UVv2e4pdCC5dDc4XozDmr0d0Dc0bnjEMAPnVPaBkUn444dpjlAWPJB0tpittTo8VqnCi9tT0Ds0WVAwUmgHb9+Fn+85Bc/ghIeufNh2ySydSiC9D8ip8ouOQXPvcEHCSKHsuTkJz5Yd47CmygNICr2L1ZOgJjVUQazcGEMa62m0Ei5ynMiUxGH9f07Dw+mZggYS9b2tuYfMvv3ZlgeQdJKVdO5s/AltgsYyy2aBSM9zAbI6Ac+UNMKV23cKHkbU69j9KfhadVTvtk02ctV9cwCSzAsolA7lCD+QKihlMVh78FPXMNJlH8xFTbThOs1xSQuv3R6/CMpbjaalIJdgVHMAshrXI10+N/RAYitc3whq7w1XQFIYnRo6X9dROWnOkoMuafWN3gVlY8TUVboEgwuQDr2i2XOHHkhshcUxmJh65BhIp8ZlGV/E87RuD5/MwFc3N/mYbfPwkG4bAfdXh5k3NU6N5XsMWanC8tqkYxjNcsW6b8LO+AXYmewXOh07cwVoV2yWn7X92p42UEqbTF7SjceSQHpTXIUKP61vcw3k8a5B+GZtKzz/lyQ8/9dWWFbbMjfVtcCyLc2wrM5y3jie5R5yfZbjxj2WsvC5jHtW/K0N/tk64LqONUe7QCmOetMrly67AD3kkvIErG1IuzbWq7vbQClugkUVKiyqiutxhxh/aEpkbGMXM6krG1cXZt1jdxy9k905/XhVKktZKijlSfjyllZSR9ols7wjnt8W6SIBL96GZaH2kKoe7eO+y46cv6kFV+Rch9QNZh786tsYkfLGoTOugfzW1hPa+AphJM/O8gwa0kUCTi3dnd05u+Nm2a3l0Xuqc6zXVSWMOjqFkgBpeEhz/czbtKHgsdlpUUkspNE+qFA0bIl7IM/cGAdlfQSUDRFQimySYTALFNUJ4uE8A4lg2MGIAFnByQUVPZfrHnqNNWfdQ+qfMoB04h0ND1lMJzZzdUc8J+p8QxSUjZa0IQrPbW6CqSfTrjzzR5/0auGEOWyW02PnPGlVnN0+CRvD2W4ULo64W5y+8/AJ7GgZhM3RXqhLXJqVNsd6yP5L73eCUkZj7CyKrVD9eUiyVmYp066e+TpO9NviAcgzZFhCYlWtspfF4dvvthH9ou43N2mpTu0HTHjsaNd145lOvXK92q0BScIAPeiVH5AYkxeD1ksjpBJuZoXYCsfvPwKE05zosdpoj/1YyA+QaGivLdlq4CD3uQOJ8aJN8JsDaaJv1DNNVP+4T9c03diy6HCXHnBt40BYeuIHpErGgu+mLmkunhEp7qTboa1yu9pnP1v0C6TXlsxSLM/z3IFMwJLSuOOehYLJshmCu2pHq9ab5ZwT5PCcXIAkYyBtNvjK7g5Pa2bZKjsbSJv1NL9A8gQnqLICABIng2sPuF+dyGYneuz6xAP4QulxbYKbVyANQyThi1VJGOAU5DA/QKY8rtPlaOWGPjhdExCQv244bYwRKVR+8oaTvaAU4fc9uIyWzy7bMIAKS0pU+NOxDi4VDRxI4tnDByTVCwuebRH7SQ16yN9y9JB3H03Dyjr82E8PqGCtHBjMWBotly7bVPjiygQsqzgO3TcnfENJFa+NIQPossMwoUHdBuQhvSyX2TWCXa2X4fObbGxk4oPJG/MCN4WRa3EGF4WX32uH2/edBzxkq2jgQBJDh89DZtNVtmMsD8kLyI6BYfj62wlYXMlBl/yBRBeMUKrwu4+7AF05VRYFjO6zcnp9YB4ypF02S2/0vD2Q2mtBHkD23RqH7+88of0iiGvnZemu8f5ggMQHJWFxeRTWHe2BoTsPDCipspzkgQMZ0i6b6oWlQxaQbmfZ+FzzszsvD8Mr+/FLRwzgQO9ofSWZBTgWtMEBqb16wzHlLw+l4fRlbcGcpUTzeVr5wDxkqLrszKtDqhezrrJts4D0OsueevwI/n36Gvyg/gQoZTy+pzeBGyiQtDWUNcIPd52CjZE+OD044nqdMlAgK3MENFD5853rDYdC5x/IBPmZFLez7HuPpyF29iqs+/gsLN/aAkqpOSLdBJUffc0LkOjKSUtS4Uf/OAkb/3cePjw1AK19o3Dx1iT0D0/kTNUY11diE9fnd2G8QN/ULK5Q4Wd7O3LqHe2SHhyB+LlrsDPVC+sOd8N33mnV34/jjJpDF22Fd36ApK0nqb0CLG2C5VuS8GL9KXh1Xwe8/kE7vL6/I5Ma0pnt/R2wclszKBU2PyTgF8hcIV9WZeVrn/uyjxYu+Fxts6Zns77N2/s64eVdJ+C7O1rgS29rwTNKObWDx4Vvlg7nHUjSqpLa2hpChvF66Poxpwm9Kd3GvDxH5X0D2VKQb2q0H0JNaHo269u8jeuKaBuqfzIJtNqCw1KPGdL5BZJ6SkasoVlA1rZvIMM3hqRjSVZuP6kx2YGlX/P5rG9fFgqQ5or62fYLZBiWfkiXnYkYZ4FIz3MH0o+dnN6bNw/pVEDWdb6BDIuHlECKP7ZCWP0CGZpJTWYdknpAVi49JMubBXHeL5ChWfbJAMljHVLYnlFYwZzC6xfI0CyMZ7psCaRTOPJxnR8gCYz4LbTp2+p81IH1TDLxkh5yQY8hV9amtHApXMrAWSxNuC9gwtAuHDM69Y54rRxDslp6EOc9esgf/70ZVtSl4Bt1yVAklJUC6RRKCWQQwLHK9AjkkfQgHDjZH6rEmlVbz0sgWfAEcd4jkFbjLcR9CWQQwLHKlEDaBj9LIFnwBHFeAimBFGrtUgIpgZRA5v5DUVHGo7LLDqJLZpUpPaT0kNJDSg8ZGAOBFczybLzOSw8pPaRQEEsgJZAiAYk/Ws/jFxhEmYjwlEP7jXHGTzrz6ql4lSMSXF5kwV/x+sOh2T8rh+96Cz0h2AaQJOYzgE9WeUFoLscLBCLds6QiAavfa4VEz4hMFh2sP4h/nBQDBcPsyB9hevy4ywxM0NsiweVZlpo4rNjWKpNFB1/5M8KInpHzl4FBQukZgiCF8lI2Kl6muTrwost83rNggMynEuWz+QVzSyBDMK4qJOAlkBJIoRgQSphC8gSyrtm7eWGArIzD5ypjMgmkg7ywkZeHzvEOcVj1fjv8ZF+bTILoYNXuT+3/X3KO/TgOe4QAsiYO9x9OySSQDs7dmgBl3fHs3eqCB7JatQ0Q4PluV5blPGyuwIGMSyA5/FkpzwZX2EDWxCSQEkhteCDGGFICydO78ShLekjBPAQPo4a5DAmkBFKoYYsEUgIpgcTlJDmGdL4UEuYu2K3s0kO6/O1DtwqW17treIUNpL4w7vR3DyVc7uDyoq/zw5MF/KamJga3Jh/IJJAO0lfHQHmzsXBfHRYfOQsyiaGDsqOfwfqPOrQPxIJ8b52tbFEmNUop/q9eDJRS/O9DUyqJgYLJfExuB6qPpeURHcY8fDorBJDku+HmzN/d2n2sla1FyWP8ulXyhSJCiLbgGFLmpqy8PdgspKGIPLRIsxxy2wRinqAUAkgJggmEPHkmUWwggSxwAEQBkcohgZRACsWAUMLQViLzwu3CJZDSQwrFgFDCSM9YuJ6R2l4CKT2kUAwIJQxtJTIvXE8pgZQeUiQG/g9/u9n8GNg+egAAAABJRU5ErkJggg==;" vertex="1" parent="1">
          <mxGeometry x="508" y="416" width="31.47" height="19" as="geometry" />
        </mxCell>
        <mxCell id="k85vUh0XSUUEYJ-B9VRs-28" value="" style="shape=image;verticalLabelPosition=bottom;labelBackgroundColor=#ffffff;verticalAlign=top;aspect=fixed;imageAspect=0;image=data:image/png,iVBORw0KGgoAAAANSUhEUgAAACsAAAAoCAYAAABnyQNuAAACTklEQVRYCe2WTUoEMRCF5zBuXHkEN248gwsX3sGF4CVE8BIieAvFY6jnaP0GHhShXn66M4IwBW26051XX14qcXYnp2fLf7l2/wUUziPsoVZrirPnF5fLw+PT8vb+sXx+fS8ELRd9zy+vy9X1zea9sRpWgHuyzj/AMynGrnF/FSwJt4SgR4GHYHGEZZ0VQI+43A2L6CFiBLgLFlBEDxW9wF2w5dIjzg5fExqbabZquAmbbabbu/v9bsZx7qPr3HNlMGgJiKOsDAzQ+6xtwpaCPJdnJtBln5LxjkvPaukrg0lm32pMFdYttQOTaE+bwQJfc7cKW85czzNgKZ8scNdN1sI6MRLUlsolKvvRACwLZ4aFdSUQN0kJMPrsDHGlYGHL3SwHZriqSbm6Jbe+ia2FdUsUB8+4z/K4urWwcjK2TmQL9BTYEZHZsBiUaVpn/6JmAcrCraCFdaeBO1YyJ1p97jQY3mDZbwJccLNugWXv3eoNH1046GLGWVvTx/FscrYMav9hmMQWYLdqMicDpc/C8jLWFEtDknhKcE9fTx0z+XK84GLrSqAJG90FDKjYF5O4TUESV5txvO7RZ0x2VZ1lQHQXYMQyYFdnaNTqU5C0OJ9Bqq8JC1h0RstEP4AkaCXh21bUVqYblg8jsOpUAr1tDVYr1tJqOiuBEhgnep1Fw4X2gvLU2m5YRCJwmbyWhHdZANoaF98PwTIQ4OwIiqLZfQnbqvNMYxhWIiW0+l0LrOqdse67Wv9qWIn2Ju79TrpZuxk2Ez1U3xH26Ozvr64fMiQ2vC/zD5IAAAAASUVORK5CYII=;" vertex="1" parent="1">
          <mxGeometry x="587.75" y="163" width="21.5" height="20" as="geometry" />
        </mxCell>
        <mxCell id="k85vUh0XSUUEYJ-B9VRs-29" value="" style="shape=image;verticalLabelPosition=bottom;labelBackgroundColor=#ffffff;verticalAlign=top;aspect=fixed;imageAspect=0;image=data:image/png,iVBORw0KGgoAAAANSUhEUgAAAJcAAAC2CAYAAADUbx/qAAAgAElEQVR4Ae2d+ZsTVdbH+V/e31xH2VQcHbfRGXVm1HFm1NGZeX1nWLqbpQERGhBFVLYRBRVZFFAREcQFF1QEVFA2BVERcINslaSzJ90/nvf5nOrbljHpJN1JdyWpfp5+KqlU3brLt84596zDuru7xfv35qCaGJCev2HVbLQR2srluiWT7ZZ0pktSmS5Jpn/5z3l+5zqub4RxV3MMHrjyKHZXV7dkc91iRXNyypeVA9+kZfPuuDz9eqcs3RyVh56L6JHvnOd3ruN67uP+ai5QPbflgau7W3JdNoXyh3Oy94uUrH83LjPXhOWmeUG5uN0vwyf6ZXibT0Y4/vnOeX7nOq7nPu4PRHJK0Wi3nsEx0L43NbgMlYolu+Tg8bTMfDYiv58TlPMm+OSccT45b7xPzh/vk19NKP7P71yn10/w6f0d6yJy6Hha4smupqZmTQsuZKRUuktOnMnK3HVhGTHZL6Mn+WV4a3Eg9QUy8xv3j5zo1/Zol/Z5TjPKZE0HLlgVlOrrHzKybkdcrp8dVHanVKoPCmXAU87RUDPYKO2v3xHX5/HcZmKVTQOurh7ZqjPRJZt3xeWuJZacC9urEqCKgY72YbM8j+fyfABGfwYq07j9/qYAFywpEu+SfV+k5N+PWnL5dL+MaPPXHFgGcACM5/Fcnk8/6E+js8qGBZcK61kbVMe+z8jybZ1y+fSADaiWgclVBjQVH1tsSkk/6A/9AmTZbGOqMBoWXFAFn5WTNW/H5Mb7gnJOiV1fxUAZADuFkp01zqf9on/0sxGpWEOBy1CrUDQnr36UkNsWhuSyaX65cIA7wGoDz8h59Iv+0U/6S78bSRHbMODCFGPFcvL5ybS0rwyrgpNFLKWnqjZwKm2P/tFPFLLTVoXl6KmMhGO2ycntAnup/jUEuGApgGrxlk654p6A7s4uGCq5qp/skv6yq7xqRkAe3RaTI6cyda+2qGtwJVJdcjqUlade75S/PRxS5WW9gSqf0tH/kZP8csfCkKx+MyanrZwwzlJUwo2/1x240BHBAtllfXw0Jbc+GJLzkal6dmL5i1WP32GTgOyCVp/c9nBI9h61VReMu56UsHUHLt7i/V+lZdYzERkxyW8vQp2xwHIBrwBr8ek4O56NyP6v03VFxeoCXLytmE6QqxZtjsot84MyvM3eBZqdV7kLVm/XGSo2vNUvt8wPyeLNnSqP1YMpydXgQlDHSS8Sz8nLe+LypweCMrLN9kKoN5BUo7/YPzGK3zQ/KFv2xFU0UFbpUkdFV4PL6szJrs9T8u+llpzXanss1LvAPlCQMX48L5iPlscs2fdlSsKxnCsFfteBC5fhaLxLne4WbIzKtbMCAksY6KI02v0GZL+bHZSFL0XlwNdpNYozf27ZOboCXOqxgH9Vpku+D2Rl+SudcnVHUN9QtytBhxK0yGPnjfOpBeK6uUFZ/UZMzlg5nUc3eF64Aly8bfigv7U/KX+4PygXeiywbEptBP4RrT65sM0vf34wJO8fTgoiBaakoaRiQwYu7IBEzuC3/v6hlHQ8E5FRk+wdIILrUFKEen0284Y8dskUv9y/ISK7Puvx5892DYn/2KCDy8kCv/VlZd6GiFw9M6g+6B4LrM5LxTziCHltR1AWvBBVUYMXebBZ5aCDC7nqjJWVtW/GZER7QC6qgt96vVKaWvcbKkZcwMj2gDz3bkx8YVseGyxWOSjg4o0BVD8Gs/L2/qS0PG4pC2x2tUKtwWXaZ56xV7ausOSdA0k5HfpJ6K8l0GoOLmQrY7JpXxWWiyb75dxxtfddNxPrHW1Wi+BP+Bvy2PS1EVVdsC6sT60AVjNw9VKrUE4e2RiVK+8NyKiJ7nPcazbw4aDIOrAeizZFlYoZeazaIKs6uHgT4qku+S6Qla0fJuT6ObZqoZqhW80GiGqPV/VjakryyZ/mBeXVvQldL9atmpSsquBiJ5hId8n2TxIyYYWlzm8MpNqT47VXvTlVoLX4pGWFJW99mlRbbrXC3qoCLlhgNNElB46nZeLKsFwzMzCooVse2AYGNgBG6BumNuTiQ9/YpiTWdSCsst/gAt1ogDuTXfJDMCvr3okpHz8f36oG9a9qdBDr7r3VJ1fdG5CN78V1XXHt0aCRfgTx9htcuMMEIznZtCshty4IyVnjbe/JRl+AZhnfuRNsL9iXdickFOlf6FtF4ELYA8XYrd7Zn5QJyy25ckbADt1qIDfjZgFQsXHCJo3XBevLOrPexl5ZrtBfNrjS2W516TAmm9FT7HB4z2QzMHmn2AK75TzrC9hYb0x1rD/5LsBDKXmsLHCB1BOns5rc7LqOoJzX4pMLPbmqqXbBrDfrzvqT5A48lKJgfYILF+NAOCcvfhCX/yyzVLvumWwam1KVopisP1YW8AAuwAc4KUTFCoILuQqF2pGTGRm7zFK7VCOFbpWaQO/3vl8g2CR4wF4JPsAJeAE3TpD9AlzoNvBmfPbtmFw+w3Yx9qhV35PdrGC0hX6/4gS8gBunbqwXXPBPPEKPfZeRGc9EZAyJZlvdn2uhWRfWLeNG4Acn4AXckOsig3NiV7fBlgzDJeaLbzNy22LLdVlh3DKRXj+KU3Blla0++dsiS46eSquLlUHXsKPfZuSmR0Lqh+2xweKT6AGs+NyAG/z4wRF4Mn/Dpq0O12V2GG+xiy/2UMwNACNbz9TVYYMtGUYk71B0xnumu8BRrfXAEG7+hnmssDEXuVpgqbQdnBLN3zAVyDzfq6LUm5ePXRHxgRy9l7HvlxE8mb9hlSKzWa5XGWK8Dar//NeSKSvDwhGQ4V3rgaw4yDxwFaHW6G8g7QQ0UDQKR0hSDaAo5Mj3GavD+jvXeQb8X4LMA5cDXJByKBFguXRqQK6/PyRb98S1ChkKZmOotRXOXXr+5d1xve7SqXbwCfd7IoYNNA9cDnDB5ohUJm/9yjfKyw+P0yR55MnLesPcoN5PO80iNvQ1Tg9cPdQKQ+wlU/2ybEtUPjtpp+tWalXCvRd3b64jR9ZnJ9N6P+3QXrPLY00PrpFtfhnTHpC7l1ry6VdpzQFv2J/Twl/OZ+4jhzzt0B7t0n5fb3cj/9a04IJ18X/7Ikte3BnXhHMaiDDAiBcARjsksHvx/bjcvtjS55BHq5GBVGhsTQUuBG3+qYP4x3lBWf1WTL78PqNuu/2lVsUoGu3hDkz7POcP80gSbD+/WQT+pgEXbrqwqPPa/DJnbVi+/jFjV3AtQalMCN0vd4s2hSoVQIp/E5Vied4s7Letfu1HM7iJNzy40D+xA8Q1d9zjlnx0JKVpx51gKUp9eoT1b37MyInTmV5PS9jeN6czwvmyhP4eXzliAD84nJJxj1ma2gi23MhUrKHBxW4Ng/zd/7Vk0wcJOeXLqr+301uyGLBw2/0xlJOnt8fkrqWWvPpxQjMhcj2JO9B//WOppSVUuI7ri7Vlzmvq85RdV3vjzrj871JLRuAw0KDBLg0JLmx/o9r8cvHUgKx8vVOLmKezZSx+TypNZKWdB5Ny84PUE7IrWBCMYAIROJJMjQoeZIy55cGQXq8hV2WWUAGgx09ntajn6HbbnZx+FxKM6/Vcw4ELVnP5PQE12VAkPZ7ssllXCdkK6gI4DmLWWROWUZN/0rgDok154HoecE20y8NgZ+T6mWvDej/tGGpV7IjAD0uFVeIBPOUpSy6dFtCdZb2CKb/fDQEuYwccPdkvk56w5PV9SQ15InCz1C4QVgUYDp9Iy5KtnXLT/UH5VasNGiMPAaJi4GJCuQ4WfEGrX++nHdqjXdovBjDO0z+oGFr+Vz5KSNsKSxgHVKze7ZV1DS4WFDsgno+oFjbtimuJPChCXwvKbyw6cQNUP9v8QVxunm+7eEP58t/AUuByXs/9uPrSHu3SPs8pBTL6RL9J7ck4GA/jYnwXOExUzme5/XPdgotFhB39enpAFm6KqrBuYudKUSt+J+/BniMpuXNhSCnVyB4fLUOtnAtXCbgMFaM9KCDt8xyeV06/2IkyDjYfjAtWWa9UrC7BRbmWq2cGtGzvrsNJLTxVjsAOm0Rzvu9YSh7eFNU2qGnoBFKhz5WAK/9+gEFfH9oU1efy/HLyLDAeCmrtPJSU9qfD2ka9Cfx1Ay6VaVp8cvZ4n/xzsSWvf5LQFE6llJj8juoBlvOd396dXT/XZjmFWGA+OPg+EHBxP8+BxfHc5ds6tR8AjH6V039SVW3bm5C7FoV0/DoXdcAq6wJcKse0+jTz3cu74goqwwJLyVYEaGJMJkU5rjQABXbKAhUCUqFzAwUXbfI8KA9tATJK0cAqEeZLjcGwSkC2eVdck+xBcct9OQqNaTDOuRpcmEiYxN/NDkjHuoh8diKtW/dSwrHZgbEYu4+kZNbasFw4kR2Yv187sGqAyywmO0BAdsFEv9yzKiw7TQmVTOlkt4w7lujStJIzn43IdR0BnZ9KXhTTj8E4uhpcUJh/LLFU7ihHAw4FMMA6/kNG5j9vl9Q7e+yZAZlZqgkus6gI/vQLeWzehqh8+V1GqVgpod9QOUD27oGkenWUIzea5w7m0bXgYsLuXGJp7gqAVYpaMels+fFvX/VGTK7qCMrFRl80QPmkFuBikQEYVIwSNVfMCspTr8Xk+2BWx2FAVOzIfKAgPnIqI3cstipi84MFMFeCC3Z40RS/vL43ocbivt5mJhlzzI+hrLIYnPTQM1XTXlcrcOUvMv0msghWyXgYV18vFfOCPPbKhwlVvLrN08KV4IId3jgvJN/6syWFXUqMfHQ0JfesDtsK1QJK0PxFrPT7YIGLfpnNy/TVYa2Wa+yZxSgY5785k5Xr5gR1o1Lp2Gp5vSvBBav4v6WWmnAKTaqhVtgO5zwbkatnBWtW+kUF8AK2RbxMh0/s3wah1IJCgTCIX9MR1LqJjLMvKkbNyruXWMpiS7U9mL+7Flytj1maoroQuCiosO2jhFDfmZwEyC78V3PijOrg4il+uX1hSG2FxqzEcf/Xafn7wpDGLVaq2iinn2ZMjO/3c4Ly2scJLSRRaD5I5c188VKW0/ZgXVOX4CJB3fWz7RTltbC7GaXnTQ8EZdX2mNr78n3A+I4dEH+vW+ZXppStZHEZH/ZFaigxbg9cA6QivIF9US5cVG7oAVclC1XOtexSf9sRlMde6ewtU2IoVv7Cch4qSjmTpVs65ZpZth2wnOdUcg3g+sNcD1xVIcslwfVdRm6sErhgPyrj4F/f6lfZhVB9QNPXLtUJNK7DZnjg67T8C7VAm1+dFWm3Guya+fijB67q8PzBBBeFRRHMsVdu35fo9a/PZ4NOMBX6zPVQMny4kAfvWmTJ8Da7cGklVKrQtR64BsgKnZNaa3BBTdRk0uqX2x4Kyaq3Y/JVj9dqpaDKBxo7WbxLkY+e2h6TWx+0XXp4Xn+pmAeuOgIXIWajpvjloY1RBRW6snyQVOM7GnRARlkTvEv7G33tgatOwIUc9I/Flnx8NKVOebCycmWrSgFnWCXmq4+PpOTvC/tnpvHAVSfggjW1rQzLjh6Xl2I7wUqBVOx62se1hqpfrU+E+8UaPXC5HFxOfRiOe7jxLNsa1cAIo/2uFgWjHWNFIFnc0pej6h7Dc41s6eyPOVfs6IHLMXHFJqnc80xmn3quClURLCRt8m+EeT6rTmtWQKNu8P0qx1W6GIVynscBkPYwKFN19fzWnkCLHqHe9KVcgHG9p4qoEsCYzKqCCy+LSX7N1dD2ZFgum2orO42R+KJ2vxq+TcHK/shhUCtlgdGcFiKfviqsnh0andTjIHj5tID6w89aE9Zw/nKd/DxwVQlYULdqgwshfswUv2zdHRc/8YEfJ9QuCJsyKoKzx9qBFDOfiajjHqwSdxYnRSr2meu4Hoe/GWsjSq1oj7HQPs8hCmjbxwkJhnOCqza5VulXOdTcA5fLwcVivrInroBBRYC/1Ko3OmXEFDuUHirGIo6e5JdLpwfkmbfstJX44BcDFef5nYDWtW/FZMy0gIxWd2rbdWZEq19GTQ3I2jdj+jyeiyy2ZXdcHRk9cFURNOW8pbWiXIBr24fxXqDAwnAV3v9VWkPUfjsLDwu7jiBAw4SD28/rnyS1Sj2UyQj8HPn+QzCrv3Mdjn56n6ZqYsMQ1PB+7I5a4d4RqAsFxUvWA1eDgstJjSI90UEtj1vyP2N7tPc9jnujJvkVfJ8csytxwQJxp+b7tFVhVY6aXSCbhXMm+DSlwLsHk2pvdD7HfPbANQSgMpStFjJXPuUyC80RwKClh1WSZ4J8ERop1CMz4bh3yfSAPLAhIh8eScl96yL6nfNGKIdy/fnBkIawnbay2l4xmc0DVxOBywANdoc2HcEckw0eruT3MgDiMyAyRbg4j0nn2tlBeeTFqBz/MaOgMuzTtJt/9MDVhOByggBd1b4vUjL56bBc3O4Xs/sz1PWcsT65bFpAZqwNy6HjaRXsnff39dkDV5ODC7sgQvvpUE62f5KUOx8JqdLV6MbGPWrJe4dSulNEBitFrZxg88DV5OBygoFd5QeHkpqnAXCdPcGn1Kq/3hQeuDxw9aotoEwffp5UUOFcyI7wsxN2sl0nCMv97IHLA1cvuJC/PsoH10kPXEb+LHasy+ifLyo0XKOs7EsVUYrieOAqz0yVDzIPXCUKRwE8D1weuIoagfFMGD09oA6CpahUod+rDS42B7+51467zH/bC333DNdVlNGqpaGnnV+1+uTKGQH1hAhEcr1yVCEQFTtXbXDhmUresD/PD8n5rXYyukKgMuc8cLkIXKgLsPddfW9A5r8Q0bRKiQpcaPJBVm1wGS9V3H9Im0TGQ7Ly0G8DKOfRA5cbwNVTQPPyaX6Z9HRY7Xx4hGYdQRiVKDsNyKoJLp5PHlTN1Zrr1lTiWALmbIjIb2f9lCnQGYbmgWuIwcUCIFtRCnjz7ricsbK9zn4sJC42KD3xvcJ+CGDKBdpAwcVzaAPXGzT+PN/p7Yo1QIM4DiQ1Qgi3aGe2QA9cQwgu2MmY6QF5+IWIOD0STKZkvBPI5PzM2zEZNT0g01ZacvCbtC5yOUGwAwGXBskmumTvsZSMf9SSC9v9suLVTjl5JqsAM9TRsEqSA1P65bcdATm/x1OVl8bzoa8SwHhT+/Sh/9bOcoN3wmWwwKfCmh+Ut9+4uUAt0KyTiYayJy3LLcE3C9kGp8Ab5tjJRkjiWyovRKXgUpbXZbO8T79My5LNUbm2I2Cne+qppEYGwc17EioPUo/RUFHATn/2H0/L3A0RzWDNOG/0ckUUFkidwmk5n0uBiyjmqzsC8reHQ7pAgbADVA7/rM9PpoUMfWPabS9Rp8DMZ+Samx4Myfp3Yr1puwtRskrABQUC1LDfFds65YZ5QX2Os44Pz+Ufxe6UlXYxKlglL4ahtoANm+Z7B4l3tBRcVJ01lM559PJzVUDVSoELp75N78d/5pfOYvCPLEOs4PKtUa0KS/I02EoxUI9ss3PD//XhkLKucOyXZVTKBRfPh3q+dygpN9xH2WG/aJmWImOnX6Z67ZKXovJdICvpzE8R4AAdOTEUzcmHn6eKJsPzwFVkggsteilw8YabN928wbYnaU62fpjQNEbkMcWZz7nrKvQsPdcToUPoF/V2Pv0qrSAh+AJK0he4ABS/o0Ojxs996yMyeoqd7bDo8xxzQf/oJ0C8c5ElL/ewSsZnxgbIeEYhqso1HrgcE1pq0kuBy0w6RyY8lemWXZ+lpOXJsFw8yWaBpZ5R6HdYF/ox0kSS/A3WBiVEJvqF4fqEnTeeMisnTmc1qQkBsNxfFqALzAesmuij8U+EtVwx4yoGKOcceOAqMJmFFphz5YKLt5mt/fznI6qFd/q0F2u71HmlIuSGn2wnvN32YUJBtuew7c+Fyw3+XCSII+f92u2dMuaegB3NA/stMxaxWD94PuO44p6APPA8u9/SJVw8cFUIrr6yOZu3FnCZgga88QNdWOeCQ8VYaBLuUjkWNQZFraAuHNe9E5dxy6zeLNJOgd3ZTr8+t9gU7OrZQY2fLJVmgA0N88VL2a/nVbA2lbTvSq+ISvPQ7/48pbuuc3vCwSqZgFLXAhr85QGa89rzcBocW/1qroD3vBafTHk6LIyrHG9X8vWTt595c/ZxqD+7Elz4X8GWSOSh2/M+6lMb5SMBqm9TC+cRu+JrrSe2v3JV0X4h1E/062Zkx8GfAnEZn6HU+Uc2E8wP8wSFLTfItmgfqkzBXAkuBg+lqKT2D7s6AipO+rKybEun/GamLQfBKqoOhCotAv2if5eofBdQvRhUSKO7S/iZATp2lEdPZeTvXu2fykk2mvR/9rNqGZM+Z50t6A+0alkt3nSANZCqZQCLKrJ3LbZcxw7NfLmWctFByDyKxt/PDsic9Y56i32wSVhHr+4pbCs0pz5tp+9WKlbErcVMSK2PyHD0o7fe4uGUlqFhc0K/81mf8ztqCYzfmKyYDxLYYeB2Gzs0c+hqcJlO6s6N4gOORG35SlTnIjg/s2hozV/bm9AiBChXa1FOxfS12BE2z3Oxb2In7G+lWOyk186yvVirukOtEqt3jr8uwEWHWRz+z+pnjWuUnXgikELyxrkBlcMGa3F0BzjAGtfU9CZXPuM3c+FcSDd+rhtwOSePJCHXzAxolpk9n6fU4a6ULghqplQslpO9R1My/4Wo1oqGRTnbrvZn2r9qZkDmb4zKvmMpzXwD0J3UtdBnxhOJdwnjI5sO42Xc1e5fLdurS3AxIVAd2Myvp9v2wFO+bK+9sZTswu9WNCc7D6fkrwvwY/epgRmKMNCdJffTjhqsW/2aURB9Fc8rp1/Gbsp4sHMyPsY5WFS2mmCrW3AxCSwiAj/2vD/dH5SXdsXldOjnTniFqALnjGtMJJ6TF9+PCRXKMB7DwgYywdxPJpyb54dk8wdxpT644PSlrzJ9xI5J/xkH42FcjI9xDqRPQ3VvXYPLTBpvNeyHKhWTnrA0xxYmEacrsVnA/COLTr0eMgAu3tIpfyRYomdBy6Vihlpd0OrX3F5LtnZqfUbaLQUqqBlskoKcr+5NaP8ZB+OpR2pl1oSj+RvmPFnPn6Ecl98TkJlrwuqtwK6yHJABOsBAkU4yMY8irWQZVAOqorvAyX5NU3nweFrbyQdx/ndARb/Ik0rdofanLGWBA6Wcblq7hgMXk8tbP6rNLxdPDcjK1zvlxJlsWTnmbfedLgXHuweScvODIRk5sQ9PB3VZ9ul1Ow8m9T42DeW4yXDdN6ez6k8/uj2gToP0203gGGhfGhJcZlKgKuiV/v2oJZt3J7QgO6aVchYfivdDKCsr34ipvXLkpJ+cD2mX73cstLRS7I89ET351Cn/OywymepSsG/cGZe7l1raTjW9OczY3XBsaHAxwcgtsBr81ccvt+SjIynVcpfDKo089PnJjPx3S6cah0mfhE8+34+csjPdGL/3fDCZ74YFol3/4HBKxj1mqVMg/SpXrnMDWCrtQ8ODy0wI8hP+9FSDfWBdRKmH7uJKmFwABtehc/r6h4y8sCOmR75zvhSwlNWmu+TrHzNawYPn4zfvVpONma9qHJsGXEwWVIJ/QHbzAyF1AESYhqIAIkNpCh1t6mMH06pvfRnXs0EgYmf1WzH54zw7z73pQzUWz+1tNBW4nIthWBLuKpt3xVUYL+U7Vgh0+ecAIe1Q83rTzrjcsdhSttxIu0DnPPb1uWnBZSYFFjWmPSD/Wmpp1A/srhQVyweU+c59REwTPYSwTru0b57VbMemBxcLrhrwFp9cOs0vj7/SKZ+dzChIVOgv4bSHzMV1gIr7lm2JyiVTbX9+bbcG3gb1AlIPXI7Fh3WdO96nKY1QQRBaVkrDzu9cx/WkQuL+ZmSBhQDvgcsBLoRtqA07y0unBuT6+0OydU9cA16dQrwR7gmE5Xeu43qj0aedQpPdbOc8cBUBAvoxwIJ+bMbqsJqFyJSDYZkjZiLO8zvX1bsdsBbA98BVBFxmsqFkBMICoH8uCknrCkuPfOd8s8tVZp4KHXvB5ZHy4qxM54bQr5462WoDrILvV6EFaZRzzJn5G+a9gcXB1SgLPpjjwAJh/oahtR7Mh3vPamwwk7DO/A2j8Ddh5B4Fa+xFr/VLDX7A0fQ1YYMtGYaN7a+LLXX19QDmAaw/IAQ3uIr/eZElZH80f8Ow8GP1v3OpZRcSL7GL6s/DvXsaF7QI8HjkYks99m1GPUZ6wWUrBru1lO685yLy66me/sZ7GUq/DEYfiI8bUeBffd/j49bVbbAlw5zGV4Ibnns3pvVpCDpoBt8jD0ilgZQ/R8oGW/3ymxkBWb8jJlQEcRr9Dbp6wQXIcBkhLxSl50hwdtGUn1x88x/gfa98Uep9zozeD1fvscssOXIy0xszaogUR/P3M3CZC/A3x36G/zmuuUTEeMJ+84HJ+TKw/uRO+88yS178IK5JVMCJwYzz2Ce4nBcSQfPsjrhcPzuoW02PVTYXyFhvVAzXdQRl/btxDdtzskAnVsznssGFzxJuuyQne+C5iPosqcHW21U2tPIZgR02SPrzeRsi8q0va4fQlZHvomxwgUaQijxGSqId+5MyYbklV80gQYYd26e82ANb3YONdbSFdbtWJev8zv6krnslruAVgcuQO444yZGimvo1tz8c0tQ+Hrgah1WSvPi2h0Py0u6ErnMpp0knNsznfoML915QTOQMyW5feC+uueBJntGoQZ5OwbYRP+tmjZRP9wZk43txXVfWV6lVCXdvAyjnsd/gcjZCbB7yGMk82leFNfOdZwivHyoGx2G9yFjI+rGOrGc5kelOHOR/rgq4TKNQM7alb+9PSuuT4Z8VpGzEN70RxgSw2AW2rLDkrU+TZWWSNutd6lhVcPEwhH7yLFC6hDykf5oX1GQeJk6wERak3seggBrv03VhfUjdRMU01q2UeqEUoJy/Vx1cpnFIKplcqM2zaJOdIpKaNqgv6n1x6rn/zD/rcOW9AV0X1qfczDxmbcs91gxcpgO8CfxF0y8AAATCSURBVJiSDhDQ8ExExkzxyznjGjsBhxvBB7Vi3gkomb42ouvBulSTUpk1N8eag4sHaTKOTJcW2dxxICkTn7RLAnumpMGh4swzdkCCS945kFRuUk4SFgOS/h4HBVzOzkGCSdFIkfBRUwOaSqjRkp65hXIxr1RzG9keUC8XXzinflbO9ajl50EHFztKI48h9C/YGJXrZgc1TMsti1Lv/cBkQ+T3tR1BWfBCVDdXRq5i/msJKGfbgw4u83AGSa71YCSnpd+wW+FwxtvmhcP3j10yb8zfJe1+uX9DRKvn4tXCPA8mqMwaDxm4TAc4Gnvl+4dT8peHQoKDIi6zyAoIovVOSWrZf+aHeWK+SFF+64KQMI/Yf5lX5zwP9mdXgMuwSoTMM1ZO1myPyXVzg6q2oGimB7DCLxjzwvygXmC+Vr8R0/kzwvpQUCsngF0BLmeHjGsPqouFL0Xld7ODSuq9neXPAcZ8wAKZH+aJ+cJkw/w553MoP7sOXM7JCMdysu/LlExaYWkuU97QZgeZARW5VVses3R+mCfnvLnls6vBhZsHJJ4UkNs/ScotC0KqXW5WUxLjJpL5pvlB2bKnstIvQwE4V4PLTAhaZFw/CLR87JVO+cuCkAxvaw6B3wjsVCy7ZX5IFm+2U5QzHwP1WjDzW6tjXYDLOXgoGS4huFqPnOyX8xs4BQEskEqwIyb5pePZiOYEw2TjnA83f647cEHFDKukzg4FLs8nttLFhdIrVUUYagWw8Ab95Eu7pqTZBboZUM6+1R24nJ3Hd4x8pM++E9dC4pRiqXeBn/7bpV9CsvpNW7VQT9TKuT51DS4zEGQP5LHlr8XkmnsDWqew3kBGf3ERJ+Dl0W0xLf3idpnKzH+xY0OAi8FhOyOHPBUrZqwJy/CJflW+uj1XqQndor+UGz56yk5TDgsstmj1cr5hwMWEq6afqKRoTl79KCG3LQzJZdN+clB0i6bf9AM5kf7RT/pLvzUYokTpFw9cg2h9LzTZJj/8mrft/PBnuciMBLjoD3nr6V85+e4LjdHt5xqKcjknm11lNtutrPLY9xlZvq1TrrgnYNsph6pmdI8hnn7QH/oFK6eftfQIdc7LYH5uWHA5JxEqxiLuO5bSwp6XT/drKJVhT5WqCiq9nucQusVzKSxKP+hPfwJNneNy++emABeLYDwvMO5SpeyuJZbuzmoNMNpnF8jzTHU0doFD7bEwGMBsGnCZyWRhMZ2QonN9T9aeEW22g2K1dpa0gx2QdskKxHN4Xj2YbMw8VePYdOAyk6ZG8bRdb3ruurCMmOxXozBOd7C9SimauZ77MS7THu2SeipFXe0hdtwz4x7MY9OCi0lWoT/XLfFklxw6npbZ6yPyh/uCysbOHms74pWiZkqlxvlEr5/g0/tph/Zot5FUC5UCs6nBZSYLVokSFn/+T75My/M749LxTFhunR+SMVP9ajgmBTaeGCPbSIdtp8TGoMzvXMf13Mf9tGMCIswzmvHogStPH2eoGT7oJLo7dCIj2z9NyoYdMXl8S1QWbYzoke+c53euMz7rjahS6O+L4YErD1xmIqFmuAwTOYMphn8M5ebfnON3ruN6c693tOfCA1cRcHkAGfjL4oHLA1fNKK4B1/8DAuBtvw7N41QAAAAASUVORK5CYII=;" vertex="1" parent="1">
          <mxGeometry x="711.75" y="413" width="18.25" height="22" as="geometry" />
        </mxCell>
        <mxCell id="k85vUh0XSUUEYJ-B9VRs-30" value="" style="shape=image;verticalLabelPosition=bottom;labelBackgroundColor=#ffffff;verticalAlign=top;aspect=fixed;imageAspect=0;image=data:image/png,iVBORw0KGgoAAAANSUhEUgAAACsAAAAoCAYAAABnyQNuAAACTklEQVRYCe2WTUoEMRCF5zBuXHkEN248gwsX3sGF4CVE8BIieAvFY6jnaP0GHhShXn66M4IwBW26051XX14qcXYnp2fLf7l2/wUUziPsoVZrirPnF5fLw+PT8vb+sXx+fS8ELRd9zy+vy9X1zea9sRpWgHuyzj/AMynGrnF/FSwJt4SgR4GHYHGEZZ0VQI+43A2L6CFiBLgLFlBEDxW9wF2w5dIjzg5fExqbabZquAmbbabbu/v9bsZx7qPr3HNlMGgJiKOsDAzQ+6xtwpaCPJdnJtBln5LxjkvPaukrg0lm32pMFdYttQOTaE+bwQJfc7cKW85czzNgKZ8scNdN1sI6MRLUlsolKvvRACwLZ4aFdSUQN0kJMPrsDHGlYGHL3SwHZriqSbm6Jbe+ia2FdUsUB8+4z/K4urWwcjK2TmQL9BTYEZHZsBiUaVpn/6JmAcrCraCFdaeBO1YyJ1p97jQY3mDZbwJccLNugWXv3eoNH1046GLGWVvTx/FscrYMav9hmMQWYLdqMicDpc/C8jLWFEtDknhKcE9fTx0z+XK84GLrSqAJG90FDKjYF5O4TUESV5txvO7RZ0x2VZ1lQHQXYMQyYFdnaNTqU5C0OJ9Bqq8JC1h0RstEP4AkaCXh21bUVqYblg8jsOpUAr1tDVYr1tJqOiuBEhgnep1Fw4X2gvLU2m5YRCJwmbyWhHdZANoaF98PwTIQ4OwIiqLZfQnbqvNMYxhWIiW0+l0LrOqdse67Wv9qWIn2Ju79TrpZuxk2Ez1U3xH26Ozvr64fMiQ2vC/zD5IAAAAASUVORK5CYII=;" vertex="1" parent="1">
          <mxGeometry x="120" y="263" width="21.5" height="20" as="geometry" />
        </mxCell>
        <mxCell id="k85vUh0XSUUEYJ-B9VRs-31" value="" style="shape=image;verticalLabelPosition=bottom;labelBackgroundColor=#ffffff;verticalAlign=top;aspect=fixed;imageAspect=0;image=data:image/png,iVBORw0KGgoAAAANSUhEUgAAADAAAABeCAYAAABl/JetAAAHYElEQVR4Ae2aWVBTVxjHfepLn/vQaR/cpurUDStCtKNSnSq26HQDWUXFOoOIWme0autStS7YamttrUspi6CIVrG2KK3WClhwxVoZ5d5shCwkIQlZePx3vhMOxhBCQgKEmfuQObk35958v/P/zne+79w7DAA6OjqG7GeYBDDI6kkKDPb8kRSQFAgxCEguJLmQ5EJSLjS4iaAUhaQoJEUhKQpJUSikepyFUZdrcEcxlEjGAB7fs8He7gppJEIxIpRrGcCOZc24WNAKbbMDQ00NBpAyRcCqeAX257Sg6pwJZqNzyKjBAJZMF5EeI4JA1i5S4tBGLepvtsHpiPy50QVAEByEYDYuVqHksB6KpvaIVqMbAAdJixaRGSui8qwRHa4OtNsiZ5I7HI6uQe0RgEA+el3A+XwDm9jXKsx4WG/tujCUyBHKtXU1Ktz4U4Slzc5s8QuQOFHAhQI3wE95Oqx71+1WKtF9cSiGBHut8NSAI1/dxvuzLuDw/jq0GmzBARzfq2OKZM2WY2u6GpdOtQ5ItGrRtKEkvwEZCZcxa0Ipxr+Uj7wvavsAsE+H5CiBRau0aAGr5iuwb7UG1Vfb+mV+tJntuPLrU6xbXoX5MWWIHlmIaaMLMemVn3Fg562+A/BJnh7rjloUdo/t0uHRXSs8J1ewLsL729s78OCuFnu31uC9uHOYMa4Ysa8VQja2CNPHFWFyuAA4SEasiBVxcmxKVqH8hB7Nir7PD6XciJ++v4eMRZcQN7kEsjHPDCfj+wWAgchEEMjKOXLsyGrGHxeMMJsCB9HrrKgob8Sq9ErMjToN2ZiirhHnhvM27ApwJaglCGqz58mRt1bTa9h12DtQV6PG6iVViJt4ppu7cKM9234F4DAEsnSGiNwEJX7cqYPiaffV/EmjHl9ursGCmDJMH1PMJij3c0+Dvb8PCABTo9Otls+UY1OKGpdLjbCYXdDrLCgr+hcZiyowc/yp5yaot7G+jgcMoEsNmYi0qQK2L1Pjv/tW5jIrEi8HPOLeEAMOQCAEsCVdjQd1FlRfVyAt4SKiRxWyqOJtYG/HgwMQLT4PsPAiU6A3Y3397hMgebLQFUG49NR65kLHO1diz98D/U6Z7XMKhBuA8hqK4VTQZMjcoXBIAVBBrxTsoIQtI0ZkOc8S2RBSgPIQKuapaKGcf3dOM1KiBCROeJZOR7QL8USKg5Ai1ypMyIlX4OwJdz0wZAA4DCmiUVtYlknnhhwAB+Ht2ZMGJLzchOQpAst3Ao1A1C9cUWjqiAIMf+EEjh68A5PJnZ6wkpIb6a8lRRrqLNiUrkLypOAgQgWgYmbUiyexeMEFXL8qwmb1Kur9Gc5/M7U64XB0sC3IihIDchMUbKIHokQoAFOHF+DDt8+hvPQRTMbuSWHAChR9o0fZMQMMWieDoMI+P0+HrNnkIv4VCRaAstLoEQWYO6WU1b/CExOcTt+bbAED0BqR8GoTNixW4WalGRazE1arA/U1OuzKVrP0OXOG+NxCyNUJFIAMp7o3dnQRcpdeQV2tGu3t/rc5AwfoTCVopU4aL2BPrhp3bulZikwwVedNWP+BEktiOyE8VvTeALrqgDHFSIr/BeUlj7qKdu7CPbVBA7BRlblX69QoAcf2aNEsd8BmdcGgd+DMUT1WviVHJlVoBEHpdE+50Fh36UglZHxsGQ7tq4NSbgpq86xvAJ37qGRg6hsCct5R4FIxbc/bYLO4IDa247utWmTNkjMA6sOTuZvXFUildHpkAaaPK8acqNPYtv4GHjVo4XT6dxdfKoQEwH2cSkga5W1ZajY/DDoHWvUO1FaZsX+tBpkyEVtSVaweoDCYFH8eb449xYp4OrZanoVFX0b6OxcWAAIhCNr4olr4641q3K4xsJ07vdbB1PlhhxYP6y2ovaHEZ59cQ+Hx+9Bq2oJyF18gYQPwVINAsucpUHbUALHR3glig1ZjYZOzRWPuk7sMCAAH4Q9MNiSp8PsZI9vwsvcSEn0Z2Nu5sCvAAXhL9XDKZAEH1qsgbzKH7DLeQP0OQCAUhWjrkYp6bwNCPR4QAM91IFSDva+XALiv+2slBfy8UyS5kD/X4b9JLhQOFyr+Vo+kie6HfHxkA20jQoE71RbsWqnEyrnuLchAjad+EQFAC4hSbkb5CQO2L23Gx517qYGARAwAQVBx3dhgQ9FBPT5NUrGChRI3fyARBcCXcnpcVP+XBUc+12LNQgXSpvU8PyISgEBos0vf4sCVs0bsX6Nh84OM9VYjYgG4Gg67C8Ljdpw/2cqeE/MSk4NEPAAHoZ2Jh3VW5OfpsSFRhdSp/N2KZ09oeN9wtQGnEsH8Ib1zV32lDYe3aLE6QYHFkwRs7izqg7lPIH37BYD+mN63o/cmKsuM2LNKg93ZzXjwzyAWNIGMhq8+5FaN9234+zczlE2Bvz/h616+zvWbAp5/5nK6H1/1x8u1AwLgCRPu7xJAuEc02PtJCgQ7YuHuLykQ7hEN9n6SAsGOWLj7SwqEe0SDvZ+kQLAjFu7+Q16B/wHfYMOn6yGq3gAAAABJRU5ErkJggg==;" vertex="1" parent="1">
          <mxGeometry x="166.21" y="263" width="13.79" height="27" as="geometry" />
        </mxCell>
        <mxCell id="k85vUh0XSUUEYJ-B9VRs-32" value="" style="shape=image;verticalLabelPosition=bottom;labelBackgroundColor=#ffffff;verticalAlign=top;aspect=fixed;imageAspect=0;image=data:image/png,iVBORw0KGgoAAAANSUhEUgAAAM0AAABECAYAAAAiA7F5AAAP3ElEQVR4Ae3cPat9RxUG8HwKv4CFgoWFWAgW1hapRAvRIBhESKFgE6s0KRSt0ggKFgFjXlQUokGIgooaRBGiiClUJOAbKsFIyiu/K09Y/8nsffbse8499+ZOsZn9MrNmrWetZ62ZOZd732uvvXYxr4nBjIHtMXDfBGs7WBOriZUYmKSZlXauNAZjYJJmELBZbWa1maSZpJmVZjAGJmkGAZuVZlaaSZpJmllpBmNgkmYQsFlpZqWZpJmkmZVmMAYmaQYBm5VmVppJmkmaWWkGY2CSZhCwWWlmpZmkmaSZlWYwBq6dNK+8+u+LX//55xfP/OrLF4/96OGLR5574PL67LMfunB5fvT7D1589Wefu3j+d9+6+OPffj+dOujUWQ1PWw2vhTSv/vc/lwRAiA9//a0XDzz1jouPP/2uiweffvfl9Yln3nNRL+99/9hT77zs79vjL3xxEmiS50Yk0JOS5p+v/P0y2JEEAZDhk9947/CFNEj0kSffdlmNVKqZTU+bTSe+y/iejDTfffGJ1yvKHqIsjUE85LGEe/kff+qSx3tLu+n4ZcevYfOVnz56Wfk//e33Xy6l1/rexW9HJ42AffjZD1wSZinwj/EeeT765NsvnvvNU28gh73SF37wqTe8v4sOHrXZMhiuWS5bTlsxjMp5M/c/Kmle+MMPLwHfuwzbQyZVpxLEwYG9k+Xcm9lxp7LtM9+5/5Iw8YWlNb+ear7bKPdopLEc+uDX3jK8X4lzrtLaLzl5c+Dw0Dffd7ls+9JPHpnO3nFwIAFJOPGHSjNPMO9d5h6FNAgD3AB9jlZ1o4OjbNlLdkSc25jJzqnzX//18mXigaXriV88NjFsks+VSeMk69yEQVLVpi7TVB1EOmcA3ua5X/rLixcIdJttOJXuVyINUK15bRrPUV0yJ8I4TWtBsmSbS4t7lxYtRvN5HJ8rkcYp2XVu+kOS2joIcFrWc75jb1fv23w3HiwTs/9jtps0+R2mBvB13iMrwqyRIidpp3C2PwdyFOtyPzLHlv7kquRaS80R+foac2jcmh6Hxh76TgfyXVv6brGPLD9p8CtcDo3Z0mePbrtIQ3nLsuskSeayFEQWx8pbll76HwJ363dOcNDgWBZpYeBy74dAPwo6gFhyhH2CfsZYOrZ7BvJtvNOHnfaLTrP0lyCWZFcb6GiMZSud6jc6qMxw8d1cFUfy7Q3zrf3rCzpaCpMPhzrWPOQ7gCE3OsDHqoRtWwK56lsxhxtMcjkp9btSiyNimT977d++/Mt7MCCfnxxg/fil723GNXrtIg3jgZpAvo4W8H50A8bI7wZbyRVAllqByFns7u3hvBMkHKuFkeRS5cGJHVp96JbvHMi+Nfm+ufTNuLYVII7+o6PASX8E8kyHfHcv+CNHHzbQUR86VTs+//xDr/s+tmQsMobkkZ/Y8Ex3GPZ+kI6M2mY1s4YJHM1ZVxwI6n1scF/lInr+aBg2iL5VJ3KGSSMTRaEAcuwWwBxiHg4EiuzXZr0KxNK94E3QLPU59N5fXHP2iJ1xdCqDbMiOKkMfc8uW7bfar72ny9I+DrnJzRg4IkIlQ76lNXcwaH/cRJqKO99UQtBFZpcA6ryR3WvNR8/M2WuR09y98b13ZPITWe043+iYeUIQ/d1LNCOJeJg0ylkyUU/5Q+8qGcgBuothjOUQjkMSwHJYAi9Gj7TAuMrvNeanW7ULmaNz9A5Jaj/2xBlIY0z9bnmRCpb38CELNtqlBOV7jzjk1THBk9zMUVt9a8VrSWOeSpo61j35xmdOz+bK1fbPM9zapV38WqtZ+qc1T8Wn2gVv9tMh/bVwr6ThE8s+hFGhVNIQKTqstcOkYVBVtCq3dK8/8BlsPMOQD8MBJ6DqEmBN4dFvWd+Ojkt/e4lqL4chIb2R2eUe+PpykP4uy6QERo808KrBxun2C2RxrAqpQiyRR+C1VbQljTnaIPLMH3Rt91ajpKny6Uk2H8OILUu6w6f+rha8BS8c2liCkzGqg9hBZLZLHGzxreJZx7ekMRecxB/yWI3ET9FjrR0ijcAGQlVo7R6AFJaJBMFVKsaaEfnWk+8dJ6TPSGtsrTIc0/s9qMq0PhYMgpFz822JNPAjt92QZ5wW7gmOijd8BVO1u0eaOob/EINuvU35HtKQz891XxH96Y5AvbiBbU2W7hGg6uveOzKqnZGvlRjhnQTUju+Rxrgsy6oOVe7S/RBpTNLLAq2Snhlg+WHM0uTHfi9gezLp0wuQXt/6jjMAHvvYZP9R+2y9XyKNwBeoW+Sk6kQfrWCsS4s10vDdIf33kEZQtxWvtUciSTWI/sbV+EC6llye2d3K6z1Lzu0c5loiTU/GlndDpOkZFQBqC4zeenuLQnv7yEI1s1c5TlNGym/GIk2tNGwU5HsIuEQaWPmWOQ+1KhIdgrd7WTbjlkgj+A4RhoxR0gjSuieKHm3LxhZLOlWytXOzjb2trKVnfmlJB6ezkgbjl0pgnCgIcoqxZNwp3guWpWC2xq6b2ZH5W0dzJMeszdeT3yMNLEexkhhgHLy1Kkhs75GGzlurWRu45qrY1Xndw2IpWbU4tLKNTZWkf63qo7Izl/1JG6NnJY3q0St/AZKyvc1dDDpVC/C1eemdU6xRHQR1L3t5J6DscWTLBO2S/B5pBHtdniyNre+tv1t9qpweaei5N7APkcbcS8viqrf7dolWSQMHcyWWtJ4P4drOYUXRku+spFk7OZPNkGZps9Yad8xny4M1xyHN1qBp9WKPvVmbveJcSYTzVSQEWiJnjzSCYg9e7RKNnMy7RJqt87TVgOy1SiMgty5926RbSdNWUPEE99YfW57bpHJjSVMB2GLYsfrYZx1aU1+FNPSU3c0B/LVK65s+Aq8NpB5pBMYeHOxhjA1xYZ+k0JJGv0P4VB32kMber8pYul8jjWpdg53e9qJLstbeI1vF58aSRkZaM+QU32TA+x+/754frnrzqAA1W/b6bHknmwtAVYWDlwjEYfrUOXuk2VuZBVMNijXS0NFx7Rb79LlJpBk5BKj2tX45K2naNWkyHeePOKYauPfecsyPhzLrIRm9zH9ozNp3BLCBRSDJQtDWIIaLZ+t9fcnqkQax8n1tvvZb5Af/uoRqKw3fjBw2nIs0Egw7YpNW8G9dVgYjeyC4VjlnJQ1i9Nb2NdNF+VO2CAOIreWbfnuCc4sNnGRpIdjMU53l2WkOOT3S+F6PXLfMZ9mHjHUeQZIl0m0lDbvaYB85ZAh2VgMt+c5KGg5pA4Pz9hgXI0dbGQm4gNlysqKPijQ6z57+CFLxUW3yG0qPNL4j28hcqkZNXKlwkXFbSUN/tsQecbVnBdPu98g5K2l6JfQUSiUA2lZAIIxr61GtzDMamHXe0eVBdbr7rMt7pIEd8rOrzrl038vGbWDdZtL0fgcc8bUlc1tlThGfQ38RIGtfh1Jt0Di9ctxtbiDmeLXt13t2YpMlUu/72jvjshTK6dRaf99qFbAmz8nVEmni1PzItyQfYcirpDQWHr5l3G0mTS8psFH1XvtJge2WuSqK/u111kpDuV75E8xbM3+cu7UVrALRJUC2Bi/5qsRIpqo6caBlHQcIVDaqWOZfqj7+TKWSxn3+dGWNNOYgX2KAY5Vvr4K8vreEIb/9Ufc2kwb+klzFsOIPy5og9IcXDJLcWsJ4Pjtpen9/JhN4X4PuqvcyiyzNYBkWKPUId4v8nP1v6dv24QyEq04IeQQw3SwnBLTWbwN1P2NcrQI90hijX8jATrJd+a2B/W0QZYz52r/Qve2kYQ97g0nF3/vgAR84iQu4BZNgWsfpA//Wx3ufh5ZnJrFEa1nNwGx49yqScYLV7yoCDhiAAkROh9JvSyuo9i7NyJf5OannQO/olqvtw6HIFD17pDFGctC3Hd8+1yAIudqsa64eaaoe0WepVU3r3HRLslIB6zc6waenR0/+2o+btT9f813IUG3PfauHZ2Poqk0/LRu2HBpVHdbuh0lDWO/oGXiH1p1LigCds5EjmQMIiLP39x+l3PLqqhnGcixZbc2JcVL0FiDV3h5pOFcf9idBRE6vJVsAOFxYSiIqvj4Zb46RxCH5VTv5oPqVXHpEvu9bMUZeSSZj6bl05E4mAutT58vY2rIxibV3WMWe6our3u8iDYcBqyrOsK2nVFhvM+/4lLEpuWS4AEVWMtyokWQjzEiGPTQHmSoPByG2NlXGPZ3ZQe/eQcUSabJ/0cKDHFdka8knG96HlsGWN4KEDONcI1k22JmXnTnICD7mh63vYqBNDunXaxM3wYs9sb/X3zukkiTYb1xwcU8/zzUptD/Aw4LfluTveb+LNCZqswYAGEDBFggBwxmyvx8kGZvASBYxFjAAGtnst0YjGjmukWBp5Sw9C0pLSM5UHTlMS+el7E/WIdJkPvJhRSYSwUygmjN9DrVkOI0zbg8G5mLXUhWAse97/AQHetGPnj1b2vjRRzWumJNBj9oXbmKrJnPkWrKjN/eWd7tJQ1ksTtBHUUq653RZyL2M1JLEOETx3mUZNhIYPeMAaS6EOXSE2xt/yndbSXNKHW6DbHGgkokjMbRErNYWBG4JI/bI2Sqjlbn0vJs0BGJ6lmlIQEHlXOtqSRWiCGrLMpmUjCXltr5HNhUsxHSQsHXsdfWbpDn8b3BVisRTAt6zJZckyM9wVD219lqqiH0Y3xtTL+8Q79g+vhJpKEMpJKBslgJay6xUoRBKYOu/9bRlzVgyVBZ7CPObw4WMx84sa3ps/TZJM06aEEDylYSRgK+1qorL+8RZ+mu9P1XyvDJpBI1lWN2MeSegY5DqgyxKqMzgm0v28Oy9S6ZReXJ5zhjjVSZAAAV4ke85xFzbV2wN8FP0m6Q5TBq4ixXVBVEqCbbeiwNkOhVh6HgU0hDUbrZsYO1ZEtDuBfnSJXssXRlDRrvki3xjj1HBTkEYMu0B6ZisqFWNTzXfbZYraQp65OF7fg9uPfL4pg98xUcbi8fG4mikoZgsn1MOxvYMPPY7YJEpkx8bnGPLUzVtclVJ11UPPo6t302TZ5kPM4cDluEqCCK54KdFFMt+p7lWJtdhw1FJQ2EsFxh7y+tWUskugOsdcV8HcHvnEAjIUo9K98q6i+PsVyVIOJ5r73p00nAko5RXQb1WVrcSpO2Xki0L3cXAmTZv2x+dCqeTkCbKWpvmdOuqlQf5kEWJtl86V5aJbbM9b+CeE/+TkiaGIY8TtqxBD23sVBYkQTREMc6m2YnbJMvdDdbE07nbayFNjLSOt1lTKRwtIgVCtJfNHZIgGqLc1GPk2DXbu0XkayVNL7gQSfXI5Xluku9WEPbi4ia/OztpbjI4U7dJ3l4MTNK8NgOjFxjz3XJcTNJM0sxj+8EYmKQZBGxm4OUMfFewmaSZpJmVZjAGJmkGAbsr2XTauVxRJ2kmaWalGYyB/wHtlNzjgIT3PwAAAABJRU5ErkJggg==;" vertex="1" parent="1">
          <mxGeometry x="377.84000000000003" y="160" width="54.26" height="18" as="geometry" />
        </mxCell>
      </root>
    </mxGraphModel>
  </diagram>
</mxfile>
